<?xml version="1.0" standalone="no"?> <!DOCTYPE svg PUBLIC "-//W3C//DTD SVG 1.0//EN" "http://www.w3.org/TR/2001/REC-SVG-20010904/DTD/svg10.dtd" > <svg xmlns="http://www.w3.org/2000/svg" width="100%" height="100%">
<defs >
<font horiz-adv-x="394" ><font-face
    font-family="Brandon Grotesque Black"
    units-per-em="1000"
    panose-1="2 11 10 3 2 2 3 6 2 2"
    ascent="1050"
    descent="-380"
    alphabetic="0" />
<missing-glyph horiz-adv-x="599" d="M50 30V670Q50 700 80 700H519Q549 700 549 670V30Q549 0 519 0H80Q50 0 50 30ZM262 314Q262 302 276 302H312Q327 302 327 315V341Q327 357 343 373T379 401T415 438T432 491Q432 539 397 570T307 602Q283 602 261 596T224
581T198 563T182 548L177 541Q169 529 177 523L199 501Q208 495 216 501Q217 502 223 508T233 517T244 525T260 534T278 539T300 542Q329 542 345 527T361 490Q361 469 346 451T312 421T278 389T262 343V314ZM245 176T245 156T259 122T293 108Q313 108 327 122T342
156T328 190T293 204Q274 204 260 190Z" />
<glyph unicode=" " glyph-name="space" horiz-adv-x="221" />
<glyph unicode="!" glyph-name="exclam" horiz-adv-x="314" d="M136 272Q129 272 124 277T117 288L68 567V681Q68 688 74 694T87 700H227Q234 700 240 694T246 681V569L197 288Q196 282 191 277T178 272H136ZM62 84Q62 123 90 151T156 180Q195 180 223 152T252
84Q252 46 224 18T156 -10Q118 -10 90 18T62 84Z" />
<glyph unicode="&quot;" glyph-name="quotedbl" horiz-adv-x="366" d="M231 501Q224 501 218 506T212 520V681Q212 688 218 694T231 700H335Q345 700 350 693T353 675L305 516Q301 501 287 501H231ZM50 501Q42 501 37 506T31 520V681Q31 688 36 694T50 700H154Q164
700 169 693T172 675L124 516Q120 501 106 501H50Z" />
<glyph unicode="#" glyph-name="numbersign" horiz-adv-x="535" d="M101 22L123 185H52Q44 185 39 190T33 204V221Q33 240 52 240H130L154 401H81Q74 401 68 406T62 420V437Q62 444 68 450T81 456H161L193 684Q194 690 199 695T211 700H228Q236 700 241 694T246
678L216 456H377L408 684Q409 690 414 695T427 700H443Q452 700 457 694T462 678L432 456H492Q500 456 505 451T511 437V420Q511 412 506 407T492 401H424L401 240H463Q471 240 476 235T482 221V204Q482 196 476 191T463 185H393L370 16Q368 0 351 0H335Q326 0
321 6T316 22L339 185H177L155 16Q153 0 136 0H120Q110 0 105 6T101 22ZM185 240H347L369 401H209L185 240Z" />
<glyph unicode="$" glyph-name="dollar" horiz-adv-x="526" d="M40 67Q32 76 31 80T35 95L78 171Q94 200 116 184Q181 141 232 124L233 286Q196 301 164 320T100 366T49 431T30 511Q30 589 83 644T234 709V741Q234 749 239 754T253 760H270Q278 760 283 755T289
741V708Q388 699 475 635Q483 630 484 619T481 603L423 519Q411 502 396 513Q394 514 377 525T335 550T289 572V431Q501 347 501 197Q501 118 443 59T287 -9V-113Q287 -120 282 -125T268 -131H251Q243 -131 238 -126T232 -113V-9Q107 0 40 67ZM230 455V585Q206
582 191 567T175 533Q175 488 230 455ZM290 115Q314 121 328 137T343 177Q343 225 290 261V115Z" />
<glyph unicode="%" glyph-name="percent" horiz-adv-x="659" d="M209 441T153 441T58 480T18 576T57 671T153 710T248 671T288 576T249 481ZM92 27L435 690Q441 700 452 700H528Q539 700 544 692T545 673L200 10Q192 0 183 0H109Q98 0 93 8T92 27ZM139 541T153
541T177 551T187 576T177 600T153 610Q139 610 129 600T118 576T128 552ZM353 125Q353 181 392 220T488 260T584 221T624 125T584 30T488 -10T393 30T353 125ZM454 125Q454 112 464 102T488 91T512 101T523 125T513 149T488 160T464 150T454 125Z" />
<glyph unicode="&amp;" glyph-name="ampersand" horiz-adv-x="699" d="M70 180Q70 220 84 255T118 313T158 351T193 374L207 381V384L187 405Q121 474 121 548Q121 611 173 660T315 710Q400 710 457 662T515 543Q515 512 504 484T477 435T444 400T417 377T406
366L496 274Q516 306 529 351Q533 364 536 369T547 380T568 378L641 352Q659 346 659 330T654 306Q643 275 628 245T602 198L591 181L676 102Q684 94 687 90T688 77T674 56L618 -1Q596 -21 573 2L508 67Q505 64 500 59T475 40T432 17T371 -1T290 -10Q195 -10 133
45T70 180ZM322 449Q329 452 340 458T369 487T387 534Q387 560 366 579T313 598Q286 598 270 584T254 549Q254 544 254 540T257 530T260 522T264 514T270 506T277 498T284 490T292 480T300 471L322 449ZM213 200Q213 164 240 140T307 115Q329 115 348 120T379 133T399
147T412 160L415 166L284 305Q281 304 277 302T260 292T238 272T221 242T213 200Z" />
<glyph unicode="&apos;" glyph-name="quotesingle" horiz-adv-x="183" d="M50 501Q42 501 37 506T31 520V681Q31 688 36 694T50 700H153Q163 700 168 693T171 675L123 516Q119 501 105 501H50Z" />
<glyph unicode="(" glyph-name="parenleft" horiz-adv-x="344" d="M291 -79Q37 -61 37 315Q37 695 291 708Q299 709 305 704T311 690L315 605Q315 590 302 586Q241 567 214 500T187 315Q187 197 214 130T302 43Q315 37 315 24L311 -60Q309 -79 291 -79Z" />
<glyph unicode=")" glyph-name="parenright" horiz-adv-x="344" d="M29 25Q29 30 33 35T42 43Q103 63 130 130T157 315Q157 432 130 499T42 586Q29 590 29 605L33 690Q33 698 39 703T53 708Q307 695 307 315Q307 -61 53 -79Q45 -79 39 -74T33 -61L29 25Z" />
<glyph unicode="*" glyph-name="asterisk" horiz-adv-x="364" d="M160 347Q152 347 147 352T141 366L143 456L69 405Q63 401 55 402T43 410L21 445Q10 462 26 472L112 523L26 575Q11 585 20 602Q36 626 44 637Q56 651 69 641L143 590L141 681Q141 688 146 694T160
700H201Q208 700 214 694T220 681L218 590L293 641Q309 651 319 636L341 602Q353 584 336 574L250 523L336 471Q352 461 342 445L317 410Q313 404 306 403T292 405L218 455L220 366Q220 358 214 353T201 347H160Z" />
<glyph unicode="+" glyph-name="plus" horiz-adv-x="532" d="M212 146V292H66Q58 292 53 298T47 311V381Q47 388 52 394T66 400H212V547Q212 554 217 559T231 565H301Q309 565 314 560T320 547V400H467Q474 400 479 395T485 381V311Q485 303 480 298T467 292H320V146Q320
139 315 134T301 128H231Q223 128 218 133T212 146Z" />
<glyph unicode="," glyph-name="comma" horiz-adv-x="277" d="M28 83Q28 122 57 150T132 178T213 141T250 27Q250 -102 136 -201Q132 -205 130 -207Q114 -221 102 -207L81 -183Q67 -168 83 -155Q172 -81 173 1Q151 -10 121 -10Q83 -10 56 17T28 83Z" />
<glyph unicode="-" glyph-name="hyphen" horiz-adv-x="359" d="M65 178Q57 178 52 183T46 196V287Q46 306 65 306H294Q313 306 313 287V196Q313 188 308 183T294 178H65Z" />
<glyph unicode="." glyph-name="period" horiz-adv-x="244" d="M27 84Q27 123 55 151T121 180Q160 180 188 152T217 84Q217 46 189 18T121 -10Q83 -10 55 18T27 84Z" />
<glyph unicode="/" glyph-name="slash" horiz-adv-x="372" d="M24 25L220 687Q224 700 238 700H336Q347 700 352 693T354 675L159 13Q155 0 141 0H42Q32 0 27 7T24 25Z" />
<glyph unicode="0" glyph-name="zero" horiz-adv-x="624" d="M434 -10T312 -10T123 82T56 340T123 597T312 690T501 598T568 340T501 83ZM266 135T312 135T382 188T407 340Q407 438 383 491T312 545T242 492T217 340Q217 241 241 188Z" />
<glyph unicode="1" glyph-name="one" horiz-adv-x="374" d="M139 19V469H43Q36 469 31 474T25 488V551Q25 560 31 566L177 680H269Q276 680 281 675T287 661V19Q287 11 282 6T269 0H158Q150 0 145 5T139 19Z" />
<glyph unicode="2" glyph-name="two" horiz-adv-x="514" d="M23 19V39Q196 266 288 406Q314 446 314 482Q314 512 290 533T226 554Q174 554 129 504Q115 490 101 504L40 566Q26 578 39 592Q42 596 48 602T75 626T117 656T172 679T239 690Q343 690 404 632T466
488Q466 452 458 426T427 358Q413 332 386 293T318 199T266 128H442Q450 128 455 122T461 109V19Q461 12 456 6T442 0H42Q34 0 29 5T23 19Z" />
<glyph unicode="3" glyph-name="three" horiz-adv-x="517" d="M30 79Q20 91 31 104L94 167Q106 179 119 169Q181 123 229 123Q262 123 289 147T316 203Q316 237 284 260T197 284H141Q134 284 128 290T122 303V386Q122 394 127 399T141 405H197Q248 405 276 426T304
482Q304 514 281 535T224 557Q172 557 137 517Q125 503 110 516L49 576Q35 588 49 602Q52 606 58 611T85 632T126 659T178 680T240 690Q330 690 393 640T456 507Q456 454 424 412T353 352V349Q397 330 435 285T474 181Q474 99 409 45T241 -10Q183 -10 135 8T66
43T30 79Z" />
<glyph unicode="4" glyph-name="four" horiz-adv-x="600" d="M33 141Q25 141 20 146T14 160V266L363 685Q369 691 378 691H450Q458 691 463 686T469 672L470 262H549Q557 262 562 257T568 244V161Q568 153 563 148T549 142H470L471 19Q471 12 466 6T452 0H345Q338
0 332 6T326 19V141H33ZM171 265H330V451L171 265Z" />
<glyph unicode="5" glyph-name="five" horiz-adv-x="527" d="M52 73Q35 92 50 107L113 169Q124 180 137 172Q208 124 256 124Q297 124 324 151T351 219Q351 261 323 288T248 316H94Q80 316 72 327T63 351V661Q63 669 68 674T82 680H404Q412 680 417 675T423 661V573Q423
565 418 560T404 554H198V447H269Q371 447 434 383T497 219Q497 124 426 57T250 -10Q181 -10 129 16T52 73Z" />
<glyph unicode="6" glyph-name="six" horiz-adv-x="538" d="M37 262Q37 345 64 417T130 536T218 620T304 674T373 702Q396 710 404 686L433 609Q440 588 414 580Q235 523 213 416Q260 436 308 436Q386 436 446 380T507 219Q507 125 440 58T278 -10Q165 -10 101
66T37 262ZM180 224Q180 185 208 157T276 128T344 156T372 224Q372 264 344 292T276 321T208 293T180 224Z" />
<glyph unicode="7" glyph-name="seven" horiz-adv-x="494" d="M37 19V30L287 552H55Q48 552 42 558T36 571V661Q36 668 42 674T55 680H477Q484 680 490 674T496 661V654L197 29Q183 0 156 0H57Q49 0 43 5T37 19Z" />
<glyph unicode="8" glyph-name="eight" horiz-adv-x="567" d="M40 181Q40 212 55 242T94 294T134 329T162 349V352Q123 374 91 414T59 507Q59 589 123 639T281 690Q378 690 443 640T508 507Q508 419 405 353V349Q452 323 489 281T527 181Q527 98 460 44T281 -10Q174
-10 107 44T40 181ZM283 418Q354 444 354 501Q354 527 333 546T283 566T234 547T213 501Q213 445 283 418ZM202 188Q202 156 227 135T284 113Q315 113 340 135T365 188Q365 217 344 242T283 280Q245 267 224 242T202 188Z" />
<glyph unicode="9" glyph-name="nine" horiz-adv-x="537" d="M104 77Q97 98 123 106Q302 163 324 270Q277 250 229 250Q151 250 91 306T30 467Q30 561 97 628T259 696Q372 696 436 620T500 424Q500 341 474 269T409 150T322 66T235 12T164 -16Q141 -22 133 0L104
77ZM221 365T261 365T329 393T357 462Q357 501 329 529T261 558T193 530T165 462Q165 422 193 394Z" />
<glyph unicode=":" glyph-name="colon" horiz-adv-x="260" d="M163 251T130 251T74 274T51 330T74 386T130 410T186 387T210 330T187 274ZM51 36T51 69T74 125T130 149T186 126T210 69T187 13T130 -10T74 13Z" />
<glyph unicode=";" glyph-name="semicolon" horiz-adv-x="237" d="M140 251T107 251T51 274T28 330T51 386T107 410T163 387T187 330T164 274ZM33 31T33 61T55 112T112 133Q147 133 175 105T203 17Q203 -85 110 -162Q98 -171 88 -160L73 -145Q62 -133 74 -123Q144
-72 145 -3Q128 -10 105 -10Q75 -10 54 10Z" />
<glyph unicode="&lt;" glyph-name="less" horiz-adv-x="435" d="M27 210Q17 216 17 227V232Q17 243 27 249L377 461Q387 467 396 462T405 445V358Q405 348 397 344L206 231L397 122Q405 118 405 108V21Q405 9 396 4T377 5L27 210Z" />
<glyph unicode="=" glyph-name="equal" horiz-adv-x="483" d="M72 331Q64 331 59 336T53 350V420Q53 428 58 433T72 439H411Q419 439 424 434T430 420V350Q430 342 425 337T411 331H72ZM72 120Q64 120 59 125T53 139V210Q53 218 58 223T72 229H411Q419 229 424
224T430 210V139Q430 131 425 126T411 120H72Z" />
<glyph unicode="&gt;" glyph-name="greater" horiz-adv-x="435" d="M30 21V108Q30 118 38 122L229 231L38 344Q30 348 30 358V445Q30 457 39 462T58 461L408 249Q418 243 418 232V227Q418 216 408 210L58 5Q48 -1 39 4T30 21Z" />
<glyph unicode="?" glyph-name="question" horiz-adv-x="453" d="M154 272Q146 272 141 277T135 291V333Q135 361 156 388T204 433T251 474T273 518Q273 542 252 559T198 577Q169 577 145 562T108 537T84 536L23 596Q9 608 23 622Q26 626 32 631T57 652T99 679T155
700T226 710Q308 710 369 660T430 535Q430 499 415 470T377 423T333 387T296 345T280 291Q280 283 275 278T261 272H154ZM113 84Q113 123 141 151T207 180Q246 180 274 152T303 84Q303 46 275 18T207 -10Q169 -10 141 18T113 84Z" />
<glyph unicode="@" glyph-name="at" horiz-adv-x="990" d="M26 223Q26 436 161 573T510 710Q717 710 835 592T954 288Q954 236 941 186T901 90T827 18T717 -10Q630 -10 597 68H589Q571 34 537 12T456 -10Q373 -10 323 52T272 199Q272 285 326 347T460 410Q526
410 583 348Q585 353 589 364T596 382T604 394T617 400H658Q666 400 671 395T677 381V213Q677 155 692 135T733 115Q774 115 795 166T817 280Q817 416 737 500T505 584Q346 584 252 487T158 223Q158 112 221 22T388 -110Q405 -118 400 -133L370 -215Q363 -233 347
-227Q208 -181 117 -56T26 223ZM396 203Q396 163 417 141T469 118Q499 118 519 143T540 204Q540 242 520 266T466 290Q435 290 416 265T396 203Z" />
<glyph unicode="A" glyph-name="A" horiz-adv-x="662" d="M13 0Q2 0 -3 8T-4 26L309 699Q314 710 326 710H336Q348 710 353 699L666 26Q671 16 666 8T649 0H538Q515 0 503 25L467 104H195L159 24Q149 0 123 0H13ZM255 240H407L331 405H330L255 240Z" />
<glyph unicode="B" glyph-name="B" horiz-adv-x="612" d="M86 19V681Q86 689 91 694T105 700H338Q427 700 490 646T553 514Q553 462 518 421T437 356Q571 300 571 193Q571 110 508 55T353 0H105Q97 0 92 5T86 19ZM242 416H320Q349 416 369 437T390 488Q390 517
370 536T320 556H242V416ZM242 143H333Q362 143 383 164T405 216Q405 245 380 265T323 286H242V143Z" />
<glyph unicode="C" glyph-name="C" horiz-adv-x="673" d="M35 199T35 349T140 604T396 710Q536 710 638 617Q653 603 639 589L561 508Q548 496 536 508Q479 559 401 559Q317 559 261 499T205 353Q205 269 261 210T402 150Q480 150 536 198Q550 210 562 197L640
114Q653 101 639 87Q539 -10 396 -10Q246 -10 141 94Z" />
<glyph unicode="D" glyph-name="D" horiz-adv-x="735" d="M86 19V681Q86 689 91 694T104 700H348Q493 700 596 598T699 351Q699 206 596 103T348 0H104Q97 0 92 5T86 19ZM242 148H338Q422 148 477 206T533 351Q533 436 478 494T338 553H242V148Z" />
<glyph unicode="E" glyph-name="E" horiz-adv-x="586" d="M86 19V681Q86 689 91 694T105 700H519Q527 700 532 695T538 681V572Q538 564 533 559T519 553H242V429H470Q478 429 483 424T489 410V301Q489 293 484 288T470 282H242V147H519Q527 147 532 142T538 128V19Q538
11 533 6T519 0H105Q97 0 92 5T86 19Z" />
<glyph unicode="F" glyph-name="F" horiz-adv-x="563" d="M86 19V681Q86 689 91 694T105 700H519Q527 700 532 695T538 681V572Q538 564 533 559T519 553H242V409H470Q478 409 483 404T489 390V281Q489 274 484 268T470 262H242V19Q242 12 236 6T223 0H105Q97
0 92 5T86 19Z" />
<glyph unicode="G" glyph-name="G" horiz-adv-x="702" d="M36 199T36 349T141 604T395 709Q458 709 523 684T639 615Q655 602 641 588L562 504Q549 493 535 503Q483 551 404 551Q323 551 265 492T207 349Q207 267 265 209T405 150Q454 150 494 166V224H431Q423
224 418 229T412 242V341Q412 360 431 360H632Q639 360 644 355T650 341L651 72Q651 62 643 56Q631 49 610 38T524 9T395 -9Q245 -9 141 95Z" />
<glyph unicode="H" glyph-name="H" horiz-adv-x="772" d="M86 19V681Q86 688 92 694T105 700H224Q232 700 237 695T243 681V429H529V681Q529 689 534 694T548 700H667Q674 700 680 694T686 681V19Q686 12 680 6T667 0H548Q540 0 535 5T529 19V282H243V19Q243 11
238 6T224 0H105Q98 0 92 6T86 19Z" />
<glyph unicode="I" glyph-name="I" horiz-adv-x="330" d="M86 19V681Q86 688 92 694T105 700H225Q232 700 238 694T244 681V19Q244 12 238 6T225 0H105Q98 0 92 6T86 19Z" />
<glyph unicode="J" glyph-name="J" horiz-adv-x="424" d="M-14 63Q-22 76 -12 88L56 155Q70 168 83 155Q104 134 134 134Q157 134 175 154T193 210V681Q193 689 198 694T212 700H334Q342 700 347 695T353 681V209Q353 108 291 49T138 -10Q45 -10 -14 63Z" />
<glyph unicode="K" glyph-name="K" horiz-adv-x="673" d="M86 24V676Q86 686 93 693T110 700H227Q237 700 244 693T251 676V413L473 690Q481 700 492 700H618Q632 700 638 687T636 663L402 370L657 38Q665 27 659 14T638 1H500Q487 1 482 8L251 322V24Q251 14
244 7T227 0H110Q100 0 93 7T86 24Z" />
<glyph unicode="L" glyph-name="L" horiz-adv-x="511" d="M86 19V681Q86 689 91 694T105 700H224Q232 700 237 694T243 681V147H481Q489 147 494 142T500 128V19Q500 11 495 6T481 0H105Q97 0 92 5T86 19Z" />
<glyph unicode="M" glyph-name="M" horiz-adv-x="878" d="M42 22L155 694Q157 710 173 710H189Q201 710 206 700L438 268H440L672 700Q677 710 689 710H705Q721 710 723 694L836 22Q837 12 832 6T817 0H699Q692 0 687 5T680 16L635 325H633L465 1Q460 -10 448
-10H430Q418 -10 413 1L244 325H242L198 16Q196 0 179 0H61Q52 0 47 6T42 22Z" />
<glyph unicode="N" glyph-name="N" horiz-adv-x="773" d="M86 19L85 692Q85 699 90 704T104 710H129L528 326H529V681Q529 689 534 694T548 700H668Q676 700 681 694T687 681V8Q687 1 682 -4T668 -10H652Q644 -10 639 -5L244 392H243V19Q243 11 238 6T224 0H105Q98
0 92 6T86 19Z" />
<glyph unicode="O" glyph-name="O" horiz-adv-x="789" d="M35 199T35 349T139 604T394 710T649 605T754 349T649 95T394 -10T140 94ZM195 349Q195 267 253 209T394 150T535 208T594 349Q594 432 535 491T394 550T254 491T195 349Z" />
<glyph unicode="P" glyph-name="P" horiz-adv-x="589" d="M86 19V681Q86 689 91 694T105 700H346Q438 700 504 635T570 479Q570 386 505 320T347 254H242V19Q242 12 236 6T223 0H105Q97 0 92 5T86 19ZM242 400H337Q370 400 393 423T416 479Q416 510 393 531T337
553H242V400Z" />
<glyph unicode="Q" glyph-name="Q" horiz-adv-x="792" d="M35 199T35 349T139 604T394 710T649 605T754 349Q754 253 704 169T569 34L698 -168Q704 -178 699 -188T682 -198H547Q537 -198 531 -188L425 -9Q413 -10 394 -10Q244 -10 140 94ZM195 349Q195 267 253
209T394 150T535 208T594 349Q594 432 535 491T394 550T254 491T195 349Z" />
<glyph unicode="R" glyph-name="R" horiz-adv-x="670" d="M86 19V681Q86 689 91 694T105 700H404Q494 700 558 637T622 484Q622 417 582 364T474 283L611 29Q617 19 612 10T594 0H461Q450 0 445 9L312 274H243V19Q243 12 238 6T224 0H105Q97 0 92 5T86 19ZM243
401H391Q422 401 444 425T467 481Q467 512 445 534T391 557H243V401Z" />
<glyph unicode="S" glyph-name="S" horiz-adv-x="548" d="M51 67Q43 75 42 79T46 95L93 178Q98 187 110 188T127 184L134 180Q141 175 150 169T174 156T203 143T235 133T269 129Q299 129 318 146T338 189Q338 249 235 290Q41 367 41 511Q41 592 102 651T272 710Q384
710 486 635Q494 630 495 619T492 603L441 526Q435 517 425 513T407 513Q406 513 395 521T370 536T339 553T301 567T264 573Q237 573 219 558T201 522Q201 494 226 472T310 425Q512 345 512 197Q512 115 447 53T276 -10Q191 -10 135 15T51 67Z" />
<glyph unicode="T" glyph-name="T" horiz-adv-x="510" d="M176 19V553H33Q25 553 20 558T14 572V681Q14 689 19 694T33 700H477Q485 700 490 695T496 681V572Q496 564 491 559T477 553H334V19Q334 12 328 6T315 0H195Q188 0 182 6T176 19Z" />
<glyph unicode="U" glyph-name="U" horiz-adv-x="721" d="M76 268V681Q76 688 82 694T95 700H218Q226 700 231 695T237 681V276Q237 223 272 187T360 150Q414 150 449 186T485 276V681Q485 689 490 694T504 700H627Q634 700 640 694T646 681V268Q646 154 562 72T360
-10Q243 -10 160 72T76 268Z" />
<glyph unicode="V" glyph-name="V" horiz-adv-x="662" d="M308 1L-4 674Q-9 684 -4 692T13 700H146Q159 700 163 689L328 324H334L499 689Q503 700 516 700H649Q660 700 665 692T666 674L352 1Q346 -10 335 -10H325Q314 -10 308 1Z" />
<glyph unicode="W" glyph-name="W" horiz-adv-x="896" d="M213 4L24 676Q21 686 26 693T42 700H159Q173 700 177 686L263 347H267L422 699Q428 710 439 710H457Q470 710 474 699L629 347H633L719 686Q723 700 737 700H854Q865 700 870 693T872 676L683 4Q680 -10
665 -10H649Q638 -10 632 1L449 410H446L264 1Q258 -10 247 -10H231Q216 -10 213 4Z" />
<glyph unicode="X" glyph-name="X" horiz-adv-x="655" d="M24 28L234 359L32 672Q26 682 31 691T49 700H195Q204 700 211 691L326 505H327L444 691Q448 700 460 700H606Q619 700 624 691T623 672L420 359L630 28Q637 18 632 9T614 0H475Q463 0 458 9L327 211H325L197
9Q190 0 180 0H41Q28 0 23 9T24 28Z" />
<glyph unicode="Y" glyph-name="Y" horiz-adv-x="590" d="M215 19V337L-6 671Q-12 681 -7 690T10 700H140Q149 700 156 691L295 486L434 691Q441 700 450 700H580Q592 700 597 691T596 671L372 338V19Q372 12 366 6T353 0H234Q226 0 221 5T215 19Z" />
<glyph unicode="Z" glyph-name="Z" horiz-adv-x="542" d="M23 19V37L289 551V553H71Q64 553 58 558T52 572V681Q52 688 58 694T71 700H496Q504 700 509 694T515 681V668L258 149V147H476Q484 147 489 142T495 128V19Q495 11 490 6T476 0H42Q34 0 29 6T23 19Z" />
<glyph unicode="[" glyph-name="bracketleft" horiz-adv-x="361" d="M198 -183H325Q333 -183 338 -188T344 -201V-282Q344 -290 338 -295T325 -301H79Q72 -301 66 -296T60 -282V681Q60 688 66 694T79 700H325Q332 700 338 694T344 681V601Q344 593 339 588T325
582H198V-183Z" />
<glyph unicode="\" glyph-name="backslash" horiz-adv-x="372" d="M213 13L18 675Q15 685 20 692T36 700H134Q148 700 152 687L348 25Q351 15 346 8T330 0H231Q217 0 213 13Z" />
<glyph unicode="]" glyph-name="bracketright" horiz-adv-x="361" d="M36 -183H163V582H36Q28 582 23 587T17 601V681Q17 688 22 694T36 700H282Q290 700 295 694T301 681V-282Q301 -290 296 -295T282 -301H36Q28 -301 23 -296T17 -282V-201Q17 -194 22 -189T36 -183Z" />
<glyph unicode="^" glyph-name="asciicircum" horiz-adv-x="524" d="M50 378Q38 378 33 387T34 406L245 704Q251 714 262 714H267Q278 714 284 704L490 406Q496 396 491 387T474 378H387Q377 378 373 386L263 535L151 386Q147 378 137 378H50Z" />
<glyph unicode="_" glyph-name="underscore" horiz-adv-x="431" d="M17 -29Q17 -10 36 -10H395Q414 -10 414 -29V-80Q414 -88 409 -93T395 -98H36Q28 -98 23 -93T17 -80V-29Z" />
<glyph unicode="`" glyph-name="grave" horiz-adv-x="302" d="M232 512L50 594Q34 604 44 624L78 683Q81 689 90 689T104 686L274 582Q285 573 280 563L259 521Q249 501 232 512Z" />
<glyph unicode="a" glyph-name="a" horiz-adv-x="429" d="M27 63T27 122T67 218T174 256Q194 256 213 252T242 244L251 240Q251 272 241 285T197 299Q146 299 97 284Q77 277 73 305L64 368Q60 389 79 395Q89 398 133 404T212 410Q304 410 342 370T381 240V19Q381
12 376 6T362 0H318Q306 0 300 13L286 40Q231 -10 165 -10Q105 -10 66 26ZM157 132Q157 114 169 101T200 88T231 101T244 132Q243 149 231 161T200 174T170 162T157 132Z" />
<glyph unicode="b" glyph-name="b" horiz-adv-x="510" d="M54 19V681Q54 688 60 694T73 700H184Q192 700 197 694T203 681V391Q236 410 286 410Q371 410 428 356T485 200Q485 113 428 52T287 -10Q248 -10 215 6T167 38L153 53L141 20Q134 0 120 0H73Q66 0 60 6T54
19ZM187 201Q187 166 210 143T267 119T324 142T348 201Q348 235 325 258T267 281T210 258T187 201Z" />
<glyph unicode="c" glyph-name="c" horiz-adv-x="420" d="M23 200Q23 287 87 348T239 410Q330 410 389 338Q400 324 384 310L324 253Q320 249 313 250T302 255Q278 281 244 281Q211 281 188 257T164 200Q164 166 186 143T242 119Q279 119 310 150Q322 162 332
154L392 102Q408 87 399 74Q344 -10 238 -10Q151 -10 87 50T23 200Z" />
<glyph unicode="d" glyph-name="d" horiz-adv-x="510" d="M25 200Q25 301 82 355T224 410Q274 410 307 391V681Q307 688 312 694T326 700H437Q444 700 450 694T456 681V19Q456 12 450 6T437 0H390Q376 0 369 20L357 53Q352 46 342 36T297 8T223 -10Q139 -10 82
51T25 200ZM162 201Q162 166 185 143T243 119T300 142T323 201Q323 235 300 258T243 281T186 258T162 201Z" />
<glyph unicode="e" glyph-name="e" horiz-adv-x="439" d="M24 200Q24 286 84 348T231 410Q309 410 365 357T421 222Q421 209 419 195Q417 178 400 178H160Q163 153 182 133T237 112Q275 112 307 136Q322 148 332 136L382 76Q394 60 381 47Q324 -10 233 -10Q145
-10 85 51T24 200ZM173 256H280Q279 275 263 289T227 303T192 290T173 256Z" />
<glyph unicode="f" glyph-name="f" horiz-adv-x="356" d="M75 19V273H54Q46 273 41 278T35 292V381Q35 400 54 400H75V492Q75 594 131 652T278 710Q314 710 350 698T400 672Q412 662 404 649L362 566Q360 561 353 559T339 559Q309 575 287 575Q228 575 228 492V400H320Q339
400 339 381V292Q339 284 334 279T320 273H228V19Q228 12 222 6T209 0H94Q86 0 81 6T75 19Z" />
<glyph unicode="g" glyph-name="g" horiz-adv-x="465" d="M11 36Q11 71 31 98T71 136L91 146Q62 176 62 237Q62 307 114 358T238 410H427Q446 410 446 391V350Q446 338 435 333L377 312Q381 309 387 302T404 270T415 215Q415 157 367 111T242 64H170Q137 64 137
37Q137 24 146 17T169 10H289Q361 10 411 -30T461 -136Q461 -213 405 -261T236 -310Q129 -310 78 -270T27 -174Q27 -111 88 -78V-75Q80 -73 70 -67T45 -48T21 -14T11 36ZM189 250T189 228T204 191T242 176T280 190T295 228T280 265T242 280T204 265ZM164 -146Q164
-193 236 -193T308 -146Q308 -104 236 -104Q206 -104 185 -115T164 -146Z" />
<glyph unicode="h" glyph-name="h" horiz-adv-x="530" d="M54 19V681Q54 688 60 694T73 700H184Q192 700 197 694T203 681V387Q249 410 296 410Q386 410 436 349T487 200V19Q487 12 482 6T468 0H362Q354 0 349 5T343 19V202Q343 236 323 258T270 281Q242 281 223
263T203 202V19Q203 0 181 0H73Q66 0 60 6T54 19Z" />
<glyph unicode="i" glyph-name="i" horiz-adv-x="256" d="M160 521T127 521T71 544T48 600T71 656T127 680T183 657T207 600T184 544ZM54 19V381Q54 389 59 394T73 400H183Q191 400 196 395T202 381V19Q202 12 196 6T183 0H73Q66 0 60 6T54 19Z" />
<glyph unicode="j" glyph-name="j" horiz-adv-x="257" d="M161 521T128 521T72 544T49 600T72 656T128 680T184 657T208 600T185 544ZM54 -92V381Q54 389 59 394T73 400H184Q192 400 197 395T203 381V-92Q203 -194 147 -252T0 -310Q-36 -310 -72 -298T-122 -272Q-134
-262 -126 -249L-84 -166Q-82 -161 -75 -159T-61 -159Q-31 -175 -9 -175Q54 -175 54 -92Z" />
<glyph unicode="k" glyph-name="k" horiz-adv-x="511" d="M54 19V681Q54 688 60 694T73 700H184Q192 700 197 694T203 681V248L324 388Q336 400 349 400H461Q474 400 479 390T476 369L344 216L504 30Q512 20 507 10T489 0H354Q345 0 339 8L203 182V19Q203 12 198
6T184 0H73Q66 0 60 6T54 19Z" />
<glyph unicode="l" glyph-name="l" horiz-adv-x="256" d="M54 19V681Q54 688 60 694T73 700H183Q190 700 196 694T202 681V19Q202 12 196 6T183 0H73Q66 0 60 6T54 19Z" />
<glyph unicode="m" glyph-name="m" horiz-adv-x="786" d="M54 19V381Q54 400 73 400H119Q130 400 136 389L153 348Q213 410 288 410Q364 410 419 349Q480 410 557 410Q646 410 694 351T742 200V19Q742 11 737 6T723 0H617Q609 0 604 5T598 19V206Q598 238 581
259T531 281Q504 281 484 262T464 213V19Q464 11 459 6T445 0H349Q341 0 336 5T330 19V206Q330 239 315 260T267 281Q237 281 217 262T197 211V19Q197 12 192 6T178 0H73Q65 0 60 5T54 19Z" />
<glyph unicode="n" glyph-name="n" horiz-adv-x="528" d="M54 19V381Q54 389 59 394T73 400H120Q133 400 138 388L154 348Q211 410 295 410Q384 410 434 351T485 201V19Q485 12 480 6T466 0H359Q351 0 346 5T340 19V206Q340 238 322 259T272 281Q241 281 219 261T196
211V19Q196 0 178 0H73Q66 0 60 6T54 19Z" />
<glyph unicode="o" glyph-name="o" horiz-adv-x="462" d="M23 201Q23 286 84 348T231 410T377 348T439 201Q439 115 378 53T231 -10T85 52T23 201ZM152 201Q152 167 175 143T231 119T287 143T310 201Q310 234 287 257T231 281T175 258T152 201Z" />
<glyph unicode="p" glyph-name="p" horiz-adv-x="510" d="M203 9V-281Q203 -288 198 -294T184 -300H73Q66 -300 60 -294T54 -281V381Q54 388 60 394T73 400H120Q134 400 141 380L153 347Q158 354 168 364T213 392T287 410Q371 410 428 349T485 200Q485 99 428
45T286 -10Q236 -10 203 9ZM187 199Q187 165 210 142T267 119T324 142T348 199Q348 234 325 257T267 281T210 258T187 199Z" />
<glyph unicode="q" glyph-name="q" horiz-adv-x="510" d="M25 200Q25 287 82 348T223 410Q262 410 295 394T343 362L357 347L369 380Q376 400 390 400H437Q444 400 450 394T456 381V-281Q456 -288 450 -294T437 -300H326Q318 -300 313 -294T307 -281V9Q274 -10
224 -10Q139 -10 82 44T25 200ZM162 199Q162 165 185 142T243 119T300 142T323 199Q323 234 300 257T243 281T186 258T162 199Z" />
<glyph unicode="r" glyph-name="r" horiz-adv-x="345" d="M54 19V381Q54 389 59 394T73 400H120Q132 400 138 388L156 344Q202 410 265 410Q292 410 313 404T343 388T345 367L296 287Q288 273 274 278Q262 283 250 283Q227 283 212 267T197 226V19Q197 0 175 0H73Q66
0 60 6T54 19Z" />
<glyph unicode="s" glyph-name="s" horiz-adv-x="371" d="M40 23Q27 34 33 44L68 113Q70 118 76 121T89 121Q136 95 179 95Q198 95 198 113Q198 135 141 155Q29 194 29 289Q29 342 68 376T185 410Q269 410 318 379Q336 367 328 354L291 286Q285 274 270 280Q224
303 185 303Q163 303 163 289Q163 273 208 257Q277 233 311 203T345 117Q345 62 301 26T176 -10Q81 -10 40 23Z" />
<glyph unicode="t" glyph-name="t" horiz-adv-x="344" d="M70 129V273H44Q37 273 32 278T26 292V381Q26 389 31 394T44 400H70V511Q70 518 76 524T89 530H196Q203 530 208 525T214 511V400H288Q307 400 307 381V292Q307 284 302 279T288 273H214V148Q214 124 241
124Q245 124 280 131Q298 134 302 118L324 35Q328 17 311 12Q240 -10 190 -10Q133 -10 102 25T70 129Z" />
<glyph unicode="u" glyph-name="u" horiz-adv-x="510" d="M45 200V381Q45 389 50 394T64 400H171Q179 400 184 395T190 381V196Q190 164 207 142T254 119Q282 119 298 140T314 190V381Q314 400 335 400H437Q445 400 450 395T456 381V19Q456 12 450 6T437 0H390Q377
0 371 14L356 51Q335 30 325 22T286 2T221 -10Q136 -10 91 49T45 200Z" />
<glyph unicode="v" glyph-name="v" horiz-adv-x="426" d="M192 0L4 373Q-1 383 4 391T21 400H133Q146 400 151 389L210 253H213L276 389Q280 397 285 398T303 400H404Q415 400 420 392T421 373L231 0Q225 -10 214 -10H209Q198 -10 192 0Z" />
<glyph unicode="w" glyph-name="w" horiz-adv-x="619" d="M143 2L10 375Q6 385 11 392T28 400H123Q138 400 141 388L193 251H194L289 402Q294 410 305 410H315Q326 410 330 402L426 251H427L478 388Q483 400 498 400H591Q602 400 607 393T609 375L476 2Q473 -10
458 -10H454Q442 -10 438 -2L309 198H308L181 -2Q175 -10 165 -10H160Q145 -10 143 2Z" />
<glyph unicode="x" glyph-name="x" horiz-adv-x="469" d="M34 0Q21 0 17 10T19 30L149 204L23 370Q15 380 20 390T38 400H161Q173 400 177 392L233 310H236L293 392Q297 400 309 400H432Q445 400 450 390T447 370L321 205L448 30Q455 20 450 10T433 0H312Q304
0 297 9L236 95H233L169 8Q163 0 153 0H34Z" />
<glyph unicode="y" glyph-name="y" horiz-adv-x="465" d="M156 41L6 374Q1 384 6 392T23 400H137Q148 400 154 389L231 203H233L312 389Q316 400 329 400H442Q453 400 458 392T459 374L153 -288Q147 -300 136 -300H24Q13 -300 8 -292T7 -273L156 41Z" />
<glyph unicode="z" glyph-name="z" horiz-adv-x="369" d="M28 19V29L145 269V271H56Q49 271 44 276T38 290V381Q38 389 43 394T56 400H327Q338 400 343 392T344 373L218 130V128H307Q326 128 326 109V19Q326 11 321 6T307 0H47Q40 0 34 6T28 19Z" />
<glyph unicode="{" glyph-name="braceleft" horiz-adv-x="393" d="M101 -19V85Q101 135 32 149Q26 150 22 155T17 167V225Q17 239 30 243Q38 246 50 250T81 272T101 307V418Q101 487 117 539T159 622T219 672T285 699T351 709Q369 711 371 692Q372 676 373 649T376
607Q376 592 362 588Q252 560 252 418V327Q252 305 243 284T222 248T198 222T176 204L167 199V195Q184 188 201 176T235 136T252 75V-19Q252 -161 362 -189Q376 -193 376 -208Q374 -268 371 -293Q370 -301 364 -306T351 -310Q316 -308 285 -301T219 -274T159 -224T118
-141T101 -19Z" />
<glyph unicode="|" glyph-name="bar" horiz-adv-x="174" d="M60 -282V741Q60 749 65 754T79 760H96Q104 760 109 755T114 741V-282Q114 -289 109 -294T95 -300H79Q71 -300 66 -295T60 -282Z" />
<glyph unicode="}" glyph-name="braceright" horiz-adv-x="393" d="M141 -19V75Q141 122 168 152T226 195V199Q223 201 217 205T197 221T171 248T150 283T141 327V418Q141 560 31 588Q17 592 17 607Q18 622 19 649T22 692Q24 711 42 709Q77 707 108 700T174 673T234
623T275 540T292 418V307Q292 289 310 273T346 250L363 243Q376 239 376 225V167Q376 161 372 156T361 149Q292 135 292 85V-19Q292 -88 276 -140T234 -223T174 -273T108 -300T42 -310Q35 -311 29 -306T22 -293Q19 -268 17 -208Q17 -193 31 -189Q141 -161 141 -19Z"
/>
<glyph unicode="~" glyph-name="asciitilde" horiz-adv-x="526" d="M84 172L23 235Q12 248 21 259Q24 263 29 270T51 294T85 325T128 350T179 361Q198 361 217 354T246 342T277 322Q279 321 288 315T299 308T310 302T323 296T335 293T350 291Q380 291 414 340Q427
357 443 341L501 280Q513 266 503 255Q500 251 495 244T474 220T440 189T398 165T349 154Q326 154 304 162T272 175T237 198Q199 222 177 222Q144 222 113 174Q98 156 84 172Z" />
<glyph unicode="&#xa0;" glyph-name="uni00A0" horiz-adv-x="221" />
<glyph unicode="&#xa1;" glyph-name="exclamdown" horiz-adv-x="282" d="M142 220Q103 220 75 248T46 316Q46 354 74 382T142 410Q180 410 208 382T236 316Q236 277 208 249T142 220ZM101 112Q102 118 107 123T120 128H162Q169 128 174 123T181 112L230 -167V-281Q230
-288 224 -294T211 -300H71Q64 -300 58 -294T52 -281V-169L101 112Z" />
<glyph unicode="&#xa2;" glyph-name="cent" horiz-adv-x="413" d="M154 4Q93 27 55 80T17 200Q17 287 81 348T233 410Q243 410 263 408L274 449Q279 467 297 462L314 457Q332 453 327 434L316 392Q350 375 383 338Q395 322 378 310L318 253Q314 249 307 250T296
255T282 267L242 120Q275 121 304 150Q316 162 326 154L386 102Q402 87 393 74Q338 -10 232 -10Q223 -10 207 -8L181 -106Q180 -113 173 -117T158 -119L142 -114Q124 -110 128 -92L154 4ZM189 135L228 280Q199 276 179 254T158 200Q158 159 189 135Z" />
<glyph unicode="&#xa3;" glyph-name="sterling" horiz-adv-x="479" d="M60 19V37Q121 153 96 289H53Q46 289 41 294T35 308V325Q35 333 40 338T53 344H84Q55 456 55 494Q55 596 112 653T269 710Q361 710 442 639Q457 628 444 613L381 537Q371 524 355 534Q309
573 272 573Q244 573 226 555T207 503Q207 483 224 429T248 344H340Q348 344 353 339T359 325V307Q359 299 354 294T340 289H257Q264 206 248 134H417Q425 134 430 129T435 115V19Q435 11 430 6T417 0H79Q72 0 66 6T60 19Z" />
<glyph unicode="&#xa4;" glyph-name="currency" horiz-adv-x="447" d="M96 147L47 197Q34 210 47 224L99 276Q81 322 98 371L46 424Q41 429 41 437T46 451L96 500Q109 513 122 500L173 449Q221 470 274 451L325 502Q330 507 338 507T352 501L401 452Q414 438 402
426L351 375Q371 324 350 272L401 221Q406 216 406 208T400 195L351 146Q346 141 338 141T325 145L272 198Q222 180 175 199L123 147Q110 134 96 147ZM184 307T196 295T225 283T255 296Q266 307 266 324T255 354Q242 366 225 366T196 354T184 325Z" />
<glyph unicode="&#xa5;" glyph-name="yen" horiz-adv-x="642" d="M140 118Q133 118 128 123T122 137V154Q122 162 127 167T140 173H241V238H140Q133 238 128 243T122 257V274Q122 282 127 287T140 293H241V337L20 671Q14 681 19 690T36 700H166Q175 700 182 691L321
486L460 691Q467 700 476 700H606Q618 700 623 691T622 671L398 338V293H497Q505 293 510 288T516 274V256Q516 248 511 243T497 238H398V173H497Q505 173 510 168T516 154V136Q516 128 511 123T497 118H398V19Q398 12 392 6T379 0H260Q252 0 247 5T241 19V118H140Z"
/>
<glyph unicode="&#xa6;" glyph-name="brokenbar" horiz-adv-x="294" d="M139 392Q131 392 126 397T120 410V741Q120 749 125 754T139 760H156Q164 760 169 755T174 741V410Q174 403 169 398T155 392H139ZM120 49Q120 57 125 62T139 68H156Q164 68 169 63T174 49V-282Q174
-289 169 -294T155 -300H139Q131 -300 126 -295T120 -282V49Z" />
<glyph unicode="&#xa7;" glyph-name="section" horiz-adv-x="504" d="M74 -77Q88 -52 112 -66Q113 -66 124 -73T148 -86T177 -99T211 -111T243 -116Q271 -116 289 -101T308 -60Q308 -28 283 -7T212 33Q30 106 30 241Q30 326 98 382Q30 443 30 522Q30 599 86 654T246
710Q348 710 447 639Q455 635 456 625T453 610L400 532Q388 513 367 528Q293 580 239 580Q213 580 196 567T179 534Q179 507 202 486T281 442Q472 367 472 228Q472 149 406 89Q472 27 472 -54Q472 -130 411 -189T250 -248Q116 -248 42 -178Q27 -163 38 -144L74
-77ZM172 254Q172 220 199 200T287 154Q315 177 315 225Q315 259 289 278T200 325L196 321Q172 294 172 254Z" />
<glyph unicode="&#xa8;" glyph-name="dieresis" horiz-adv-x="414" d="M338 535T309 535T260 556T239 606T259 655T309 676T359 656T380 606T359 556ZM133 535T104 535T55 556T34 606T54 655T104 676T154 656T175 606T154 556Z" />
<glyph unicode="&#xa9;" glyph-name="copyright" horiz-adv-x="789" d="M35 201T35 350T140 604T394 710T648 604T754 350T648 96T394 -10T141 95ZM122 463T122 350T202 157T394 77Q507 77 586 157T666 350T587 542T394 622T202 543ZM216 348Q216 426 271 481T403
536Q470 536 518 498Q534 484 520 469L472 421Q460 409 448 418Q430 431 403 431Q370 431 348 408T325 351Q325 317 347 294T403 271Q429 271 447 284Q459 293 471 281L521 231Q534 217 520 203Q471 161 403 161Q326 161 271 216T216 348Z" />
<glyph unicode="&#xaa;" glyph-name="ordfeminine" horiz-adv-x="316" d="M122 396Q75 396 46 424T17 500Q17 540 49 566T136 593Q149 593 162 592T181 588L187 586Q189 629 146 629Q115 629 72 620Q56 617 54 636L47 678Q45 695 58 699Q96 710 158 710Q226 710
255 680T284 583V417Q284 412 280 408T270 403H237Q228 403 223 413L213 434Q173 396 122 396ZM149 467Q162 467 171 476T181 500Q181 513 172 522T149 532Q135 532 126 523T117 500Q117 486 126 477T149 467Z" />
<glyph unicode="&#xab;" glyph-name="guillemotleft" horiz-adv-x="501" d="M239 194Q231 205 239 218L348 366Q355 378 366 378H445Q458 378 462 369T460 347L395 208L457 61Q463 49 459 40T442 31H358Q349 31 343 39L239 194ZM125 39L21 194Q13 205 21 218L130
366Q137 378 148 378H227Q240 378 244 369T242 347L177 208L239 61Q245 49 241 40T224 31H140Q131 31 125 39Z" />
<glyph unicode="&#xac;" glyph-name="logicalnot" horiz-adv-x="549" d="M51 293Q44 293 38 298T32 312V382Q32 390 38 395T51 401H451Q459 401 464 395T470 382V146Q470 139 465 134T451 128H381Q373 128 368 133T362 146V293H51Z" />
<glyph unicode="&#xad;" glyph-name="uni00AD" horiz-adv-x="500" />
<glyph unicode="&#xae;" glyph-name="registered" horiz-adv-x="789" d="M35 201T35 350T140 604T394 710T648 604T754 350T648 96T394 -10T141 95ZM122 463T122 350T202 157T394 77Q507 77 586 157T666 350T587 542T394 622T202 543ZM256 187V515Q256 523 261
528T275 534H437Q486 534 523 498T560 404Q560 331 493 292L533 195Q537 185 532 177T516 168H448Q434 168 430 182L393 288H354V187Q354 179 349 174T335 168H275Q267 168 262 173T256 187ZM351 369H420Q433 369 442 379T452 402Q452 416 443 425T420 435H351V369Z"
/>
<glyph unicode="&#xaf;" glyph-name="overscore" horiz-adv-x="414" d="M79 563Q71 563 66 568T60 581V622Q60 641 79 641H335Q354 641 354 622V581Q354 573 349 568T335 563H79Z" />
<glyph unicode="&#xb0;" glyph-name="degree" horiz-adv-x="300" d="M206 440T150 440T55 479T15 575T54 670T150 710T245 671T285 575T246 480ZM136 540T150 540T174 550T184 575Q184 588 174 598T150 609T126 599T115 575T125 551Z" />
<glyph unicode="&#xb1;" glyph-name="plusminus" horiz-adv-x="557" d="M244 239Q236 239 231 244T225 257V353H79Q72 353 66 358T60 372V442Q60 450 66 455T79 461H225V608Q225 615 230 620T244 626H314Q322 626 327 621T333 608V461H480Q487 461 492 456T498
442V372Q498 364 493 359T480 353H333V257Q333 250 328 245T314 239H244ZM70 58V128Q70 136 76 141T89 147H463Q470 147 475 142T481 128V58Q481 50 476 45T463 39H89Q82 39 76 44T70 58Z" />
<glyph unicode="&#xb2;" glyph-name="twosuperior" horiz-adv-x="267" d="M30 504Q20 504 20 513V531L122 654Q142 680 142 701Q142 730 111 730Q91 730 76 715Q64 707 58 719L36 755Q28 769 32 775Q34 778 40 782Q76 810 133 810Q178 810 207 785T237 716Q237
675 207 632L167 579H225Q235 579 235 570V513Q235 504 225 504H30Z" />
<glyph unicode="&#xb3;" glyph-name="threesuperior" horiz-adv-x="256" d="M116 494Q65 494 26 523Q14 532 23 545L46 579Q54 590 66 583Q80 572 102 572Q135 572 135 596Q135 621 102 621H69Q56 623 56 637V671Q56 688 74 688H102Q114 688 122 694T130 712Q130
734 101 734Q86 734 71 723Q61 717 54 727L28 762Q19 773 29 783Q60 810 116 810Q166 810 196 788T226 727Q226 682 175 657Q235 634 235 580Q235 539 201 517T116 494Z" />
<glyph unicode="&#xb4;" glyph-name="acute" horiz-adv-x="302" d="M80 512Q63 501 53 521L32 563Q27 573 38 582L208 686Q212 690 221 690T234 683L268 624Q278 604 262 594L80 512Z" />
<glyph unicode="&#xb5;" glyph-name="mu" horiz-adv-x="519" d="M199 -7V-281Q199 -288 194 -294T180 -300H73Q66 -300 60 -294T54 -281V381Q54 389 59 394T73 400H180Q188 400 193 395T199 381V194Q201 165 218 146T263 127T307 147T323 194V381Q323 400 344
400H446Q454 400 459 395T465 381V19Q465 12 460 6T446 0H399Q386 0 380 14L365 51Q344 30 334 22T295 2T230 -10Q214 -10 199 -7Z" />
<glyph unicode="&#xb6;" glyph-name="paragraph" horiz-adv-x="704" d="M225 281Q140 281 79 342T17 491Q17 577 73 638T211 700L673 699Q680 699 686 694T692 680V620Q692 612 687 607T673 601H612V-281Q612 -289 607 -294T593 -300H522Q514 -300 509 -294T503
-281V601H377V-281Q377 -288 372 -294T358 -300H288Q280 -300 275 -294T269 -281V281H225Z" />
<glyph unicode="&#xb7;" glyph-name="middot" horiz-adv-x="276" d="M136 149Q93 149 62 180T31 254Q31 299 62 331T136 363Q181 363 213 331T245 254Q245 211 213 180T136 149Z" />
<glyph unicode="&#xb8;" glyph-name="cedilla" horiz-adv-x="247" d="M51 0H124V-52Q169 -58 192 -85T216 -154Q216 -198 185 -229T110 -260Q64 -260 34 -225Q21 -211 38 -196L61 -176Q72 -165 82 -178Q88 -187 106 -187Q118 -187 127 -177T136 -155Q136 -116
68 -113Q51 -111 51 -95V0Z" />
<glyph unicode="&#xb9;" glyph-name="onesuperior" horiz-adv-x="204" d="M83 504Q73 504 73 513V697H19Q11 697 11 708V746Q11 752 19 757L95 800H158Q167 800 167 791V513Q167 504 158 504H83Z" />
<glyph unicode="&#xba;" glyph-name="ordmasculine" horiz-adv-x="302" d="M214 394T151 394T54 436T20 552Q20 627 54 668T151 710T248 669T282 552Q282 478 248 436ZM120 474T151 474T182 552T151 630T120 552Z" />
<glyph unicode="&#xbb;" glyph-name="guillemotright" horiz-adv-x="501" d="M261 61L323 208L258 347Q252 359 256 368T273 378H352Q363 378 370 366L479 218Q487 205 479 194L375 39Q369 31 360 31H276Q264 31 260 40T261 61ZM58 31Q46 31 42 40T43 61L105 208L40
347Q34 359 38 368T55 378H134Q145 378 152 366L261 218Q269 205 261 194L157 39Q151 31 142 31H58Z" />
<glyph unicode="&#xbc;" glyph-name="onequarter" horiz-adv-x="628" d="M72 27L416 690Q421 700 433 700H489Q500 700 505 692T506 673L161 10Q156 0 144 0H89Q78 0 73 8T72 27ZM91 404Q81 404 81 413V597H27Q19 597 19 608V646Q19 652 27 657L103 700H166Q175
700 175 691V413Q175 404 166 404H91ZM315 64V126L474 293Q476 296 481 296H532Q541 296 541 287V124H580Q589 124 589 116V65Q589 56 580 56H541V9Q541 0 532 0H464Q454 0 454 9V56H324Q315 56 315 64ZM404 122H455V187L404 122Z" />
<glyph unicode="&#xbd;" glyph-name="onehalf" horiz-adv-x="635" d="M72 27L416 690Q421 700 433 700H489Q500 700 505 692T506 673L161 10Q156 0 144 0H89Q78 0 73 8T72 27ZM91 404Q81 404 81 413V597H27Q19 597 19 608V646Q19 652 27 657L103 700H166Q175 700
175 691V413Q175 404 166 404H91ZM369 9V27L471 150Q491 176 491 197Q491 226 460 226Q440 226 425 211Q413 203 407 215L385 251Q377 265 381 271Q383 274 389 278Q425 306 482 306Q527 306 556 281T586 212Q586 171 556 128L516 75H574Q584 75 584 66V9Q584 0
574 0H379Q369 0 369 9Z" />
<glyph unicode="&#xbe;" glyph-name="threequarters" horiz-adv-x="655" d="M122 394Q71 394 32 423Q20 432 29 445L52 479Q60 490 72 483Q86 472 108 472Q141 472 141 496Q141 521 108 521H75Q62 523 62 537V571Q62 588 80 588H108Q120 588 128 594T136 612Q136
634 107 634Q92 634 77 623Q67 617 60 627L34 662Q25 673 35 683Q66 710 122 710Q172 710 202 688T232 627Q232 582 181 557Q241 534 241 480Q241 439 207 417T122 394ZM99 27L443 690Q448 700 460 700H516Q527 700 532 692T533 673L188 10Q183 0 171 0H116Q105
0 100 8T99 27ZM342 64V126L501 293Q502 296 508 296H559Q568 296 568 287V124H607Q616 124 616 116V65Q616 56 607 56H568V9Q568 0 559 0H491Q481 0 481 9V56H351Q342 56 342 64ZM431 122H482V187L431 122Z" />
<glyph unicode="&#xbf;" glyph-name="questiondown" horiz-adv-x="446" d="M240 220Q201 220 173 248T144 316Q144 354 172 382T240 410Q278 410 306 382T334 316Q334 277 306 249T240 220ZM17 -135Q17 -99 32 -70T70 -23T114 13T151 55T167 109Q167 117 172 122T186
128H293Q301 128 306 123T312 109V67Q312 39 291 12T243 -33T196 -74T174 -118Q174 -142 195 -159T249 -177Q278 -177 302 -162T339 -137T363 -136L424 -196Q438 -208 424 -222Q421 -226 415 -231T390 -252T348 -279T292 -300T221 -310Q139 -310 78 -260T17 -135Z"
/>
<glyph unicode="&#xc0;" glyph-name="Agrave" horiz-adv-x="662" d="M13 0Q2 0 -3 8T-4 26L309 699Q314 710 326 710H336Q348 710 353 699L666 26Q671 16 666 8T649 0H538Q515 0 503 25L467 104H195L159 24Q149 0 123 0H13ZM255 240H407L331 405H330L255 240ZM402
762L220 844Q204 854 214 874L248 933Q251 939 260 939T274 936L444 832Q455 823 450 813L429 771Q419 751 402 762Z" />
<glyph unicode="&#xc1;" glyph-name="Aacute" horiz-adv-x="662" d="M13 0Q2 0 -3 8T-4 26L309 699Q314 710 326 710H336Q348 710 353 699L666 26Q671 16 666 8T649 0H538Q515 0 503 25L467 104H195L159 24Q149 0 123 0H13ZM255 240H407L331 405H330L255 240ZM260
762Q243 751 233 771L212 813Q207 823 218 832L388 936Q392 940 401 940T414 933L448 874Q458 854 442 844L260 762Z" />
<glyph unicode="&#xc2;" glyph-name="Acircumflex" horiz-adv-x="662" d="M13 0Q2 0 -3 8T-4 26L309 699Q314 710 326 710H336Q348 710 353 699L666 26Q671 16 666 8T649 0H538Q515 0 503 25L467 104H195L159 24Q149 0 123 0H13ZM255 240H407L331 405H330L255
240ZM232 762Q219 755 210 766L177 813Q171 822 183 832L318 936Q329 944 342 936L480 832Q491 823 486 813L452 767Q443 755 431 762L332 820L232 762Z" />
<glyph unicode="&#xc3;" glyph-name="Atilde" horiz-adv-x="662" d="M13 0Q2 0 -3 8T-4 26L309 699Q314 710 326 710H336Q348 710 353 699L666 26Q671 16 666 8T649 0H538Q515 0 503 25L467 104H195L159 24Q149 0 123 0H13ZM255 240H407L331 405H330L255 240ZM214
785L179 813Q167 822 173 836Q181 850 193 866T230 901T280 920Q305 920 337 897T388 873T426 904Q436 920 451 906L485 880Q499 870 486 851Q440 773 386 773Q358 773 325 797T276 821Q268 821 261 816T246 799T236 786Q227 777 214 785Z" />
<glyph unicode="&#xc4;" glyph-name="Adieresis" horiz-adv-x="662" d="M13 0Q2 0 -3 8T-4 26L309 699Q314 710 326 710H336Q348 710 353 699L666 26Q671 16 666 8T649 0H538Q515 0 503 25L467 104H195L159 24Q149 0 123 0H13ZM255 240H407L331 405H330L255 240ZM492
768T463 768T414 789T393 839T413 888T463 909T513 889T534 839T513 789ZM227 768T198 768T149 789T128 839T148 888T198 909T248 889T269 839T248 789Z" />
<glyph unicode="&#xc5;" glyph-name="Aring" horiz-adv-x="662" d="M13 0Q2 0 -3 8T-4 26L309 699Q314 710 326 710H336Q348 710 353 699L666 26Q671 16 666 8T649 0H538Q515 0 503 25L467 104H195L159 24Q149 0 123 0H13ZM255 240H407L331 405H330L255 240ZM331
752Q283 752 250 785T216 867T249 948T331 982Q378 982 412 949T446 867T412 786T331 752ZM314 823T331 823T361 836T374 867T361 897T331 910T301 897T287 867T300 837Z" />
<glyph unicode="&#xc6;" glyph-name="AE" horiz-adv-x="898" d="M-3 0Q-14 0 -17 8T-15 26L386 669Q401 693 411 697Q418 700 430 700H831Q839 700 844 695T850 681V572Q850 564 845 559T831 553H554V429H782Q790 429 795 424T801 410V301Q801 293 796 288T782
282H554V147H831Q839 147 844 142T850 128V19Q850 11 845 6T831 0H417Q409 0 404 5T398 19V104H214L161 17Q151 0 132 0H-3ZM288 240H398V417L288 240Z" />
<glyph unicode="&#xc7;" glyph-name="Ccedilla" horiz-adv-x="675" d="M331 -4Q204 19 120 118T36 349Q36 499 141 604T397 710Q537 710 639 617Q654 603 640 589L562 508Q550 496 537 508Q480 559 402 559Q318 559 262 499T206 353Q206 269 262 210T403 150Q481
150 537 198Q551 210 563 197L641 114Q654 101 640 87Q545 -7 404 -10V-52Q449 -58 472 -85T496 -154Q496 -198 465 -229T390 -260Q344 -260 314 -225Q301 -211 318 -196L341 -176Q352 -165 362 -178Q368 -187 386 -187Q398 -187 407 -177T416 -155Q416 -116 348
-113Q331 -111 331 -95V-4Z" />
<glyph unicode="&#xc8;" glyph-name="Egrave" horiz-adv-x="586" d="M86 19V681Q86 689 91 694T105 700H519Q527 700 532 695T538 681V572Q538 564 533 559T519 553H242V429H470Q478 429 483 424T489 410V301Q489 293 484 288T470 282H242V147H519Q527 147 532
142T538 128V19Q538 11 533 6T519 0H105Q97 0 92 5T86 19ZM388 762L206 844Q190 854 200 874L234 933Q237 939 246 939T260 936L430 832Q441 823 436 813L415 771Q405 751 388 762Z" />
<glyph unicode="&#xc9;" glyph-name="Eacute" horiz-adv-x="586" d="M86 19V681Q86 689 91 694T105 700H519Q527 700 532 695T538 681V572Q538 564 533 559T519 553H242V429H470Q478 429 483 424T489 410V301Q489 293 484 288T470 282H242V147H519Q527 147 532
142T538 128V19Q538 11 533 6T519 0H105Q97 0 92 5T86 19ZM246 762Q229 751 219 771L198 813Q193 823 204 832L374 936Q378 940 387 940T400 933L434 874Q444 854 428 844L246 762Z" />
<glyph unicode="&#xca;" glyph-name="Ecircumflex" horiz-adv-x="586" d="M86 19V681Q86 689 91 694T105 700H519Q527 700 532 695T538 681V572Q538 564 533 559T519 553H242V429H470Q478 429 483 424T489 410V301Q489 293 484 288T470 282H242V147H519Q527 147
532 142T538 128V19Q538 11 533 6T519 0H105Q97 0 92 5T86 19ZM218 762Q205 755 196 766L163 813Q157 822 169 832L304 936Q315 944 328 936L466 832Q477 823 472 813L438 767Q429 755 417 762L318 820L218 762Z" />
<glyph unicode="&#xcb;" glyph-name="Edieresis" horiz-adv-x="586" d="M86 19V681Q86 689 91 694T105 700H519Q527 700 532 695T538 681V572Q538 564 533 559T519 553H242V429H470Q478 429 483 424T489 410V301Q489 293 484 288T470 282H242V147H519Q527 147
532 142T538 128V19Q538 11 533 6T519 0H105Q97 0 92 5T86 19ZM475 768T446 768T397 789T376 839T396 888T446 909T496 889T517 839T496 789ZM210 768T181 768T132 789T111 839T131 888T181 909T231 889T252 839T231 789Z" />
<glyph unicode="&#xcc;" glyph-name="Igrave" horiz-adv-x="330" d="M86 19V681Q86 688 92 694T105 700H225Q232 700 238 694T244 681V19Q244 12 238 6T225 0H105Q98 0 92 6T86 19ZM236 762L54 844Q38 854 48 874L82 933Q85 939 94 939T108 936L278 832Q289 823
284 813L263 771Q253 751 236 762Z" />
<glyph unicode="&#xcd;" glyph-name="Iacute" horiz-adv-x="330" d="M86 19V681Q86 688 92 694T105 700H225Q232 700 238 694T244 681V19Q244 12 238 6T225 0H105Q98 0 92 6T86 19ZM94 762Q77 751 67 771L46 813Q41 823 52 832L222 936Q226 940 235 940T248 933L282
874Q292 854 276 844L94 762Z" />
<glyph unicode="&#xce;" glyph-name="Icircumflex" horiz-adv-x="330" d="M86 19V681Q86 688 92 694T105 700H225Q232 700 238 694T244 681V19Q244 12 238 6T225 0H105Q98 0 92 6T86 19ZM66 762Q53 755 44 766L11 813Q5 822 17 832L152 936Q163 944 176 936L314
832Q325 823 320 813L286 767Q277 755 265 762L166 820L66 762Z" />
<glyph unicode="&#xcf;" glyph-name="Idieresis" horiz-adv-x="330" d="M86 19V681Q86 688 92 694T105 700H225Q232 700 238 694T244 681V19Q244 12 238 6T225 0H105Q98 0 92 6T86 19ZM326 768T297 768T248 789T227 839T247 888T297 909T347 889T368 839T347 789ZM61
768T32 768T-17 789T-38 839T-18 888T32 909T82 889T103 839T82 789Z" />
<glyph unicode="&#xd0;" glyph-name="Eth" horiz-adv-x="740" d="M91 19V319H62Q55 319 50 324T44 338V355Q44 363 49 368T62 374H91V681Q91 689 96 694T109 700H353Q498 700 601 598T704 351Q704 206 601 103T353 0H109Q102 0 97 5T91 19ZM247 148H343Q427 148
482 206T538 351Q538 436 483 494T343 553H247V374H389Q397 374 402 369T408 355V337Q408 329 403 324T389 319H247V148Z" />
<glyph unicode="&#xd1;" glyph-name="Ntilde" horiz-adv-x="773" d="M86 19L85 692Q85 699 90 704T104 710H129L528 326H529V681Q529 689 534 694T548 700H668Q676 700 681 694T687 681V8Q687 1 682 -4T668 -10H652Q644 -10 639 -5L244 392H243V19Q243 11 238
6T224 0H105Q98 0 92 6T86 19ZM271 785L236 813Q224 822 230 836Q238 850 250 866T287 901T337 920Q362 920 394 897T445 873T483 904Q493 920 508 906L542 880Q556 870 543 851Q497 773 443 773Q415 773 382 797T333 821Q325 821 318 816T303 799T293 786Q284
777 271 785Z" />
<glyph unicode="&#xd2;" glyph-name="Ograve" horiz-adv-x="789" d="M35 199T35 349T139 604T394 710T649 605T754 349T649 95T394 -10T140 94ZM195 349Q195 267 253 209T394 150T535 208T594 349Q594 432 535 491T394 550T254 491T195 349ZM465 762L283 844Q266
854 277 874L311 933Q314 939 323 939T337 936L507 832Q518 823 513 813L492 771Q482 751 465 762Z" />
<glyph unicode="&#xd3;" glyph-name="Oacute" horiz-adv-x="789" d="M35 199T35 349T139 604T394 710T649 605T754 349T649 95T394 -10T140 94ZM195 349Q195 267 253 209T394 150T535 208T594 349Q594 432 535 491T394 550T254 491T195 349ZM323 762Q306 751 296
771L275 813Q270 823 281 832L451 936Q455 940 464 940T477 933L511 874Q522 854 505 844L323 762Z" />
<glyph unicode="&#xd4;" glyph-name="Ocircumflex" horiz-adv-x="789" d="M35 199T35 349T139 604T394 710T649 605T754 349T649 95T394 -10T140 94ZM195 349Q195 267 253 209T394 150T535 208T594 349Q594 432 535 491T394 550T254 491T195 349ZM295 762Q282
755 273 766L240 813Q234 822 246 832L381 936Q392 944 405 936L543 832Q554 823 549 813L515 767Q506 755 494 762L395 820L295 762Z" />
<glyph unicode="&#xd5;" glyph-name="Otilde" horiz-adv-x="789" d="M35 199T35 349T139 604T394 710T649 605T754 349T649 95T394 -10T140 94ZM195 349Q195 267 253 209T394 150T535 208T594 349Q594 432 535 491T394 550T254 491T195 349ZM277 785L242 813Q230
822 236 836Q244 850 256 866T293 901T343 920Q368 920 400 897T451 873T489 904Q499 920 514 906L548 880Q562 870 549 851Q503 773 449 773Q421 773 388 797T339 821Q331 821 324 816T309 799T299 786Q290 777 277 785Z" />
<glyph unicode="&#xd6;" glyph-name="Odieresis" horiz-adv-x="789" d="M35 199T35 349T139 604T394 710T649 605T754 349T649 95T394 -10T140 94ZM195 349Q195 267 253 209T394 150T535 208T594 349Q594 432 535 491T394 550T254 491T195 349ZM555 768T526 768T477
789T456 839T476 888T526 909T576 889T597 839T576 789ZM290 768T261 768T212 789T191 839T211 888T261 909T311 889T332 839T311 789Z" />
<glyph unicode="&#xd7;" glyph-name="multiply" horiz-adv-x="459" d="M100 168L50 218Q37 231 50 244L153 347L50 451Q37 464 50 477L99 527Q112 540 126 527L229 424L333 528Q346 540 359 527L409 477Q422 464 410 451L306 347L410 243Q422 230 409 217L359
168Q354 163 346 163T333 167L229 271L126 168Q113 155 100 168Z" />
<glyph unicode="&#xd8;" glyph-name="Oslash" horiz-adv-x="795" d="M57 23Q44 36 56 49L123 115Q38 216 38 349Q38 499 142 604T397 710Q530 710 632 623L702 692Q714 706 728 692L740 680Q754 668 740 654L670 584Q757 482 757 349Q757 199 652 95T397 -10Q261
-10 162 76L95 10Q82 -2 69 11L57 23ZM238 230L518 509Q462 550 397 550Q315 550 257 491T198 349Q198 283 238 230ZM277 191Q329 150 397 150Q479 150 538 208T597 349Q597 418 556 470L277 191Z" />
<glyph unicode="&#xd9;" glyph-name="Ugrave" horiz-adv-x="722" d="M76 268V681Q76 688 82 694T95 700H218Q226 700 231 695T237 681V276Q237 223 272 187T360 150Q414 150 449 186T485 276V681Q485 689 490 694T504 700H627Q634 700 640 694T646 681V268Q646
154 562 72T360 -10Q243 -10 160 72T76 268ZM432 762L250 844Q234 854 244 874L278 933Q281 939 290 939T304 936L474 832Q485 823 480 813L459 771Q449 751 432 762Z" />
<glyph unicode="&#xda;" glyph-name="Uacute" horiz-adv-x="722" d="M76 268V681Q76 688 82 694T95 700H218Q226 700 231 695T237 681V276Q237 223 272 187T360 150Q414 150 449 186T485 276V681Q485 689 490 694T504 700H627Q634 700 640 694T646 681V268Q646
154 562 72T360 -10Q243 -10 160 72T76 268ZM290 762Q273 751 263 771L242 813Q237 823 248 832L418 936Q422 940 431 940T444 933L478 874Q488 854 472 844L290 762Z" />
<glyph unicode="&#xdb;" glyph-name="Ucircumflex" horiz-adv-x="722" d="M76 268V681Q76 688 82 694T95 700H218Q226 700 231 695T237 681V276Q237 223 272 187T360 150Q414 150 449 186T485 276V681Q485 689 490 694T504 700H627Q634 700 640 694T646 681V268Q646
154 562 72T360 -10Q243 -10 160 72T76 268ZM261 762Q248 755 239 766L206 813Q200 822 212 832L347 936Q358 944 371 936L509 832Q520 823 515 813L481 767Q472 755 460 762L361 820L261 762Z" />
<glyph unicode="&#xdc;" glyph-name="Udieresis" horiz-adv-x="722" d="M76 268V681Q76 688 82 694T95 700H218Q226 700 231 695T237 681V276Q237 223 272 187T360 150Q414 150 449 186T485 276V681Q485 689 490 694T504 700H627Q634 700 640 694T646 681V268Q646
154 562 72T360 -10Q243 -10 160 72T76 268ZM521 768T492 768T443 789T422 839T442 888T492 909T542 889T563 839T542 789ZM256 768T227 768T178 789T157 839T177 888T227 909T277 889T298 839T277 789Z" />
<glyph unicode="&#xdd;" glyph-name="Yacute" horiz-adv-x="590" d="M215 19V337L-6 671Q-12 681 -7 690T10 700H140Q149 700 156 691L295 486L434 691Q441 700 450 700H580Q592 700 597 691T596 671L372 338V19Q372 12 366 6T353 0H234Q226 0 221 5T215 19ZM224
762Q207 751 197 771L176 813Q171 823 182 832L352 936Q356 940 365 940T378 933L412 874Q422 854 406 844L224 762Z" />
<glyph unicode="&#xde;" glyph-name="Thorn" horiz-adv-x="586" d="M86 19V681Q86 689 91 694T105 700H223Q230 700 236 694T242 681V573H346Q438 573 504 508T570 352Q570 259 505 193T347 127H242V19Q242 12 236 6T223 0H105Q97 0 92 5T86 19ZM242 273H337Q370
273 393 296T416 352Q416 383 393 404T337 426H242V273Z" />
<glyph unicode="&#xdf;" glyph-name="germandbls" horiz-adv-x="540" d="M54 19V413Q54 559 122 634T304 710Q371 710 421 669T472 550Q472 502 435 437T398 349Q398 331 438 295Q519 223 519 147Q519 -6 325 -10Q308 -10 305 5L286 89Q284 97 289 104T302 112Q358
121 358 164Q358 192 313 222Q247 272 247 324Q247 360 284 433T321 544Q321 558 313 568T288 579Q277 579 264 572T237 549T214 496T204 410V19Q204 12 198 6T185 0H73Q66 0 60 6T54 19Z" />
<glyph unicode="&#xe0;" glyph-name="agrave" horiz-adv-x="429" d="M27 63T27 122T67 218T174 256Q194 256 213 252T242 244L251 240Q251 272 241 285T197 299Q146 299 97 284Q77 277 73 305L64 368Q60 389 79 395Q89 398 133 404T212 410Q304 410 342 370T381
240V19Q381 12 376 6T362 0H318Q306 0 300 13L286 40Q231 -10 165 -10Q105 -10 66 26ZM157 132Q157 114 169 101T200 88T231 101T244 132Q243 149 231 161T200 174T170 162T157 132ZM300 512L118 594Q102 604 112 624L146 683Q149 689 158 689T172 686L342 582Q353
573 348 563L327 521Q317 501 300 512Z" />
<glyph unicode="&#xe1;" glyph-name="aacute" horiz-adv-x="429" d="M27 63T27 122T67 218T174 256Q194 256 213 252T242 244L251 240Q251 272 241 285T197 299Q146 299 97 284Q77 277 73 305L64 368Q60 389 79 395Q89 398 133 404T212 410Q304 410 342 370T381
240V19Q381 12 376 6T362 0H318Q306 0 300 13L286 40Q231 -10 165 -10Q105 -10 66 26ZM157 132Q157 114 169 101T200 88T231 101T244 132Q243 149 231 161T200 174T170 162T157 132ZM148 512Q131 501 121 521L100 563Q95 573 106 582L276 686Q280 690 289 690T302
683L336 624Q346 604 330 594L148 512Z" />
<glyph unicode="&#xe2;" glyph-name="acircumflex" horiz-adv-x="429" d="M27 63T27 122T67 218T174 256Q194 256 213 252T242 244L251 240Q251 272 241 285T197 299Q146 299 97 284Q77 277 73 305L64 368Q60 389 79 395Q89 398 133 404T212 410Q304 410 342 370T381
240V19Q381 12 376 6T362 0H318Q306 0 300 13L286 40Q231 -10 165 -10Q105 -10 66 26ZM157 132Q157 114 169 101T200 88T231 101T244 132Q243 149 231 161T200 174T170 162T157 132ZM120 512Q107 505 98 516L65 563Q59 572 71 582L206 686Q217 694 230 686L368
582Q379 573 374 563L340 517Q331 505 319 512L220 570L120 512Z" />
<glyph unicode="&#xe3;" glyph-name="atilde" horiz-adv-x="429" d="M27 63T27 122T67 218T174 256Q194 256 213 252T242 244L251 240Q251 272 241 285T197 299Q146 299 97 284Q77 277 73 305L64 368Q60 389 79 395Q89 398 133 404T212 410Q304 410 342 370T381
240V19Q381 12 376 6T362 0H318Q306 0 300 13L286 40Q231 -10 165 -10Q105 -10 66 26ZM157 132Q157 114 169 101T200 88T231 101T244 132Q243 149 231 161T200 174T170 162T157 132ZM95 555L60 583Q48 592 54 606Q62 620 74 636T111 671T161 690Q186 690 218 667T269
643T307 674Q317 690 332 676L366 650Q380 640 367 621Q321 543 267 543Q239 543 206 567T157 591Q149 591 142 586T127 569T117 556Q108 547 95 555Z" />
<glyph unicode="&#xe4;" glyph-name="adieresis" horiz-adv-x="429" d="M27 63T27 122T67 218T174 256Q194 256 213 252T242 244L251 240Q251 272 241 285T197 299Q146 299 97 284Q77 277 73 305L64 368Q60 389 79 395Q89 398 133 404T212 410Q304 410 342 370T381
240V19Q381 12 376 6T362 0H318Q306 0 300 13L286 40Q231 -10 165 -10Q105 -10 66 26ZM157 132Q157 114 169 101T200 88T231 101T244 132Q243 149 231 161T200 174T170 162T157 132ZM350 535T321 535T272 556T251 606T271 655T321 676T371 656T392 606T371 556ZM145
535T116 535T67 556T46 606T66 655T116 676T166 656T187 606T166 556Z" />
<glyph unicode="&#xe5;" glyph-name="aring" horiz-adv-x="429" d="M27 63T27 122T67 218T174 256Q194 256 213 252T242 244L251 240Q251 272 241 285T197 299Q146 299 97 284Q77 277 73 305L64 368Q60 389 79 395Q89 398 133 404T212 410Q304 410 342 370T381
240V19Q381 12 376 6T362 0H318Q306 0 300 13L286 40Q231 -10 165 -10Q105 -10 66 26ZM157 132Q157 114 169 101T200 88T231 101T244 132Q243 149 231 161T200 174T170 162T157 132ZM219 480Q171 480 138 513T104 595T137 676T219 710Q266 710 300 677T334 595T300
514T219 480ZM202 551T219 551T249 564T262 595T249 625T219 638T189 625T175 595T188 565Z" />
<glyph unicode="&#xe6;" glyph-name="ae" horiz-adv-x="661" d="M26 123Q26 180 66 218T175 256Q193 256 212 252T241 244L251 240Q252 274 240 288T197 302Q159 302 97 290Q78 288 74 306L63 375Q62 382 67 388T79 395Q158 410 212 410Q300 410 338 375Q390 410
453 410Q531 410 587 357T643 222Q643 178 622 178H382Q385 153 404 132T459 111Q495 111 527 135Q543 146 552 135L604 76Q618 62 605 49Q546 -10 455 -10Q362 -10 305 55Q296 43 281 31T234 4T165 -10Q102 -10 64 27T26 123ZM395 256H502Q501 275 485 289T449
303T414 290T395 256ZM157 132Q157 114 169 101T200 88T231 101T244 132Q243 149 231 161T200 174T170 162T157 132Z" />
<glyph unicode="&#xe7;" glyph-name="ccedilla" horiz-adv-x="421" d="M170 1Q106 23 65 76T24 200Q24 287 88 348T240 410Q331 410 390 338Q401 324 385 310L325 253Q321 249 314 250T303 255Q279 281 245 281Q212 281 189 257T165 200Q165 166 187 143T243 119Q280
119 311 150Q323 162 333 154L393 102Q409 87 400 74Q344 -9 243 -10V-53Q288 -59 311 -86T335 -155Q335 -199 304 -230T229 -261Q183 -261 153 -226Q140 -212 157 -197L180 -177Q191 -166 201 -179Q207 -188 225 -188Q237 -188 246 -178T255 -156Q255 -117 187
-114Q170 -112 170 -96V1Z" />
<glyph unicode="&#xe8;" glyph-name="egrave" horiz-adv-x="439" d="M24 200Q24 286 84 348T231 410Q309 410 365 357T421 222Q421 209 419 195Q417 178 400 178H160Q163 153 182 133T237 112Q275 112 307 136Q322 148 332 136L382 76Q394 60 381 47Q324 -10 233
-10Q145 -10 85 51T24 200ZM173 256H280Q279 275 263 289T227 303T192 290T173 256ZM314 512L132 594Q116 604 126 624L160 683Q163 689 172 689T186 686L356 582Q367 573 362 563L341 521Q331 501 314 512Z" />
<glyph unicode="&#xe9;" glyph-name="eacute" horiz-adv-x="439" d="M24 200Q24 286 84 348T231 410Q309 410 365 357T421 222Q421 209 419 195Q417 178 400 178H160Q163 153 182 133T237 112Q275 112 307 136Q322 148 332 136L382 76Q394 60 381 47Q324 -10 233
-10Q145 -10 85 51T24 200ZM173 256H280Q279 275 263 289T227 303T192 290T173 256ZM162 512Q145 501 135 521L114 563Q109 573 120 582L290 686Q294 690 303 690T316 683L350 624Q360 604 344 594L162 512Z" />
<glyph unicode="&#xea;" glyph-name="ecircumflex" horiz-adv-x="439" d="M24 200Q24 286 84 348T231 410Q309 410 365 357T421 222Q421 209 419 195Q417 178 400 178H160Q163 153 182 133T237 112Q275 112 307 136Q322 148 332 136L382 76Q394 60 381 47Q324
-10 233 -10Q145 -10 85 51T24 200ZM173 256H280Q279 275 263 289T227 303T192 290T173 256ZM134 512Q121 505 112 516L79 563Q73 572 85 582L220 686Q231 694 244 686L382 582Q393 573 388 563L354 517Q345 505 333 512L234 570L134 512Z" />
<glyph unicode="&#xeb;" glyph-name="edieresis" horiz-adv-x="439" d="M24 200Q24 286 84 348T231 410Q309 410 365 357T421 222Q421 209 419 195Q417 178 400 178H160Q163 153 182 133T237 112Q275 112 307 136Q322 148 332 136L382 76Q394 60 381 47Q324 -10
233 -10Q145 -10 85 51T24 200ZM173 256H280Q279 275 263 289T227 303T192 290T173 256ZM364 535T335 535T286 556T265 606T285 655T335 676T385 656T406 606T385 556ZM159 535T130 535T81 556T60 606T80 655T130 676T180 656T201 606T180 556Z" />
<glyph unicode="&#xec;" glyph-name="igrave" horiz-adv-x="256" d="M54 19V380Q54 388 59 393T73 399H183Q191 399 196 394T202 380V19Q202 12 196 6T183 0H73Q66 0 60 6T54 19ZM199 512L17 594Q0 604 11 624L45 683Q48 689 57 689T71 686L241 582Q252 573 247
563L226 521Q216 501 199 512Z" />
<glyph unicode="&#xed;" glyph-name="iacute" horiz-adv-x="256" d="M54 19V380Q54 388 59 393T73 399H183Q191 399 196 394T202 380V19Q202 12 196 6T183 0H73Q66 0 60 6T54 19ZM57 512Q40 501 30 521L9 563Q4 573 15 582L185 686Q189 690 198 690T211 683L245
624Q256 604 239 594L57 512Z" />
<glyph unicode="&#xee;" glyph-name="icircumflex" horiz-adv-x="256" d="M54 19V380Q54 388 59 393T73 399H183Q191 399 196 394T202 380V19Q202 12 196 6T183 0H73Q66 0 60 6T54 19ZM29 512Q16 505 7 516L-26 563Q-32 572 -20 582L115 686Q126 694 139 686L277
582Q288 573 283 563L249 517Q240 505 228 512L129 570L29 512Z" />
<glyph unicode="&#xef;" glyph-name="idieresis" horiz-adv-x="256" d="M54 19V380Q54 388 59 393T73 399H183Q191 399 196 394T202 380V19Q202 12 196 6T183 0H73Q66 0 60 6T54 19ZM259 535T230 535T181 556T160 606T180 655T230 676T280 656T301 606T280 556ZM54
535T25 535T-24 556T-45 606T-25 655T25 676T75 656T96 606T75 556Z" />
<glyph unicode="&#xf0;" glyph-name="eth" horiz-adv-x="523" d="M24 219Q24 321 84 378T223 436Q271 436 318 416Q304 483 229 530L152 486Q136 476 127 492L118 507Q108 524 124 533L171 560Q146 575 110 584Q91 590 98 609L127 686Q136 709 165 699Q220 681
293 630L364 672Q380 681 389 664L398 650Q408 633 392 624L340 594Q494 461 494 262Q494 142 430 66T253 -10Q159 -10 92 57T24 219ZM159 224Q159 185 187 157T255 128T323 156T351 224Q351 264 323 292T255 321T187 293T159 224Z" />
<glyph unicode="&#xf1;" glyph-name="ntilde" horiz-adv-x="528" d="M54 19V381Q54 389 59 394T73 400H120Q133 400 138 388L154 348Q211 410 295 410Q384 410 434 351T485 201V19Q485 12 480 6T466 0H359Q351 0 346 5T340 19V206Q340 238 322 259T272 281Q241
281 219 261T196 211V19Q196 0 178 0H73Q66 0 60 6T54 19ZM152 555L117 583Q105 592 111 606Q119 620 131 636T168 671T218 690Q243 690 275 667T326 643T364 674Q374 690 389 676L423 650Q437 640 424 621Q378 543 324 543Q296 543 263 567T214 591Q206 591 199
586T184 569T174 556Q165 547 152 555Z" />
<glyph unicode="&#xf2;" glyph-name="ograve" horiz-adv-x="462" d="M23 201Q23 286 84 348T231 410T377 348T439 201Q439 115 378 53T231 -10T85 52T23 201ZM152 201Q152 167 175 143T231 119T287 143T310 201Q310 234 287 257T231 281T175 258T152 201ZM302
512L120 594Q104 604 114 624L148 683Q151 689 160 689T174 686L344 582Q355 573 350 563L329 521Q319 501 302 512Z" />
<glyph unicode="&#xf3;" glyph-name="oacute" horiz-adv-x="462" d="M23 201Q23 286 84 348T231 410T377 348T439 201Q439 115 378 53T231 -10T85 52T23 201ZM152 201Q152 167 175 143T231 119T287 143T310 201Q310 234 287 257T231 281T175 258T152 201ZM158
512Q141 501 131 521L110 563Q105 573 116 582L286 686Q290 690 299 690T312 683L346 624Q356 604 340 594L158 512Z" />
<glyph unicode="&#xf4;" glyph-name="ocircumflex" horiz-adv-x="462" d="M23 201Q23 286 84 348T231 410T377 348T439 201Q439 115 378 53T231 -10T85 52T23 201ZM152 201Q152 167 175 143T231 119T287 143T310 201Q310 234 287 257T231 281T175 258T152 201ZM132
512Q119 505 110 516L77 563Q71 572 83 582L218 686Q229 694 242 686L380 582Q391 573 386 563L352 517Q343 505 331 512L232 570L132 512Z" />
<glyph unicode="&#xf5;" glyph-name="otilde" horiz-adv-x="462" d="M23 201Q23 286 84 348T231 410T377 348T439 201Q439 115 378 53T231 -10T85 52T23 201ZM152 201Q152 167 175 143T231 119T287 143T310 201Q310 234 287 257T231 281T175 258T152 201ZM114
555L79 583Q67 592 73 606Q81 620 93 636T130 671T180 690Q205 690 237 667T288 643T326 674Q336 690 351 676L385 650Q399 640 386 621Q340 543 286 543Q258 543 225 567T176 591Q168 591 161 586T146 569T136 556Q127 547 114 555Z" />
<glyph unicode="&#xf6;" glyph-name="odieresis" horiz-adv-x="462" d="M23 201Q23 286 84 348T231 410T377 348T439 201Q439 115 378 53T231 -10T85 52T23 201ZM152 201Q152 167 175 143T231 119T287 143T310 201Q310 234 287 257T231 281T175 258T152 201ZM362
535T333 535T284 556T263 606T283 655T333 676T383 656T404 606T383 556ZM157 535T128 535T79 556T58 606T78 655T128 676T178 656T199 606T178 556Z" />
<glyph unicode="&#xf7;" glyph-name="divide" horiz-adv-x="494" d="M275 471T244 471T192 493T170 546T191 598T244 620T297 599T319 546T297 493ZM47 292Q40 292 34 298T28 311V381Q28 388 34 394T47 400H448Q455 400 460 395T466 381V311Q466 303 461 298T448
292H47ZM169 123T169 154T190 206T243 228T296 207T318 154T296 101T243 79T191 101Z" />
<glyph unicode="&#xf8;" glyph-name="oslash" horiz-adv-x="466" d="M44 21Q39 26 39 34T43 47L68 72Q25 128 25 202Q25 287 86 348T233 410Q302 410 359 366L387 394Q399 408 413 394L425 382Q439 370 425 356L397 328Q441 271 441 202Q441 116 380 53T233 -10Q163
-10 107 33L82 8Q70 -4 56 9L44 21ZM161 168L267 274Q253 281 233 281Q200 281 177 258T154 202Q154 182 161 168ZM199 126Q213 119 233 119Q266 119 289 143T312 202Q312 218 305 235L199 126Z" />
<glyph unicode="&#xf9;" glyph-name="ugrave" horiz-adv-x="510" d="M45 200V381Q45 389 50 394T64 400H171Q179 400 184 395T190 381V196Q190 164 207 142T254 119Q282 119 298 140T314 190V381Q314 400 335 400H437Q445 400 450 395T456 381V19Q456 12 450 6T437
0H390Q377 0 371 14L356 51Q335 30 325 22T286 2T221 -10Q136 -10 91 49T45 200ZM334 512L152 594Q136 604 146 624L180 683Q183 689 192 689T206 686L376 582Q387 573 382 563L361 521Q351 501 334 512Z" />
<glyph unicode="&#xfa;" glyph-name="uacute" horiz-adv-x="510" d="M45 200V381Q45 389 50 394T64 400H171Q179 400 184 395T190 381V196Q190 164 207 142T254 119Q282 119 298 140T314 190V381Q314 400 335 400H437Q445 400 450 395T456 381V19Q456 12 450 6T437
0H390Q377 0 371 14L356 51Q335 30 325 22T286 2T221 -10Q136 -10 91 49T45 200ZM182 512Q165 501 155 521L134 563Q129 573 140 582L310 686Q314 690 323 690T336 683L370 624Q380 604 364 594L182 512Z" />
<glyph unicode="&#xfb;" glyph-name="ucircumflex" horiz-adv-x="510" d="M45 200V381Q45 389 50 394T64 400H171Q179 400 184 395T190 381V196Q190 164 207 142T254 119Q282 119 298 140T314 190V381Q314 400 335 400H437Q445 400 450 395T456 381V19Q456 12
450 6T437 0H390Q377 0 371 14L356 51Q335 30 325 22T286 2T221 -10Q136 -10 91 49T45 200ZM154 512Q141 505 132 516L99 563Q93 572 105 582L240 686Q251 694 264 686L402 582Q413 573 408 563L374 517Q365 505 353 512L254 570L154 512Z" />
<glyph unicode="&#xfc;" glyph-name="udieresis" horiz-adv-x="510" d="M45 200V381Q45 389 50 394T64 400H171Q179 400 184 395T190 381V196Q190 164 207 142T254 119Q282 119 298 140T314 190V381Q314 400 335 400H437Q445 400 450 395T456 381V19Q456 12 450
6T437 0H390Q377 0 371 14L356 51Q335 30 325 22T286 2T221 -10Q136 -10 91 49T45 200ZM384 535T355 535T306 556T285 606T305 655T355 676T405 656T426 606T405 556ZM179 535T150 535T101 556T80 606T100 655T150 676T200 656T221 606T200 556Z" />
<glyph unicode="&#xfd;" glyph-name="yacute" horiz-adv-x="465" d="M156 41L6 374Q1 384 6 392T23 400H137Q148 400 154 389L231 203H233L312 389Q316 400 329 400H442Q453 400 458 392T459 374L153 -288Q147 -300 136 -300H24Q13 -300 8 -292T7 -273L156 41ZM160
512Q143 501 133 521L112 563Q107 573 118 582L288 686Q292 690 301 690T314 683L348 624Q358 604 342 594L160 512Z" />
<glyph unicode="&#xfe;" glyph-name="thorn" horiz-adv-x="510" d="M203 6V-282Q203 -290 198 -295T184 -301H73Q66 -301 60 -296T54 -282V681Q54 688 60 694T73 700H184Q192 700 197 694T203 681V385Q238 410 290 410Q374 410 429 352T485 200Q485 112 424 51T276
-10Q238 -10 203 6ZM187 200Q187 166 209 143T266 120T323 143T346 200Q346 233 323 256T266 279Q233 279 210 256T187 200Z" />
<glyph unicode="&#xff;" glyph-name="ydieresis" horiz-adv-x="465" d="M156 41L6 374Q1 384 6 392T23 400H137Q148 400 154 389L231 203H233L312 389Q316 400 329 400H442Q453 400 458 392T459 374L153 -288Q147 -300 136 -300H24Q13 -300 8 -292T7 -273L156
41ZM363 535T334 535T285 556T264 606T284 655T334 676T384 656T405 606T384 556ZM158 535T129 535T80 556T59 606T79 655T129 676T179 656T200 606T179 556Z" />
<glyph unicode="&#x100;" glyph-name="Amacron" horiz-adv-x="662" d="M13 0Q2 0 -3 8T-4 26L309 699Q314 710 326 710H336Q348 710 353 699L666 26Q671 16 666 8T649 0H538Q515 0 503 25L467 104H195L159 24Q149 0 123 0H13ZM255 240H407L331 405H330L255 240ZM203
801Q195 801 190 806T184 819V860Q184 879 203 879H459Q478 879 478 860V819Q478 811 473 806T459 801H203Z" />
<glyph unicode="&#x101;" glyph-name="amacron" horiz-adv-x="429" d="M27 63T27 122T67 218T174 256Q194 256 213 252T242 244L251 240Q251 272 241 285T197 299Q146 299 97 284Q77 277 73 305L64 368Q60 389 79 395Q89 398 133 404T212 410Q304 410 342 370T381
240V19Q381 12 376 6T362 0H318Q306 0 300 13L286 40Q231 -10 165 -10Q105 -10 66 26ZM157 132Q157 114 169 101T200 88T231 101T244 132Q243 149 231 161T200 174T170 162T157 132ZM91 563Q83 563 78 568T72 581V622Q72 641 91 641H347Q366 641 366 622V581Q366
573 361 568T347 563H91Z" />
<glyph unicode="&#x102;" glyph-name="Abreve" horiz-adv-x="662" d="M13 0Q2 0 -3 8T-4 26L309 699Q314 710 326 710H336Q348 710 353 699L666 26Q671 16 666 8T649 0H538Q515 0 503 25L467 104H195L159 24Q149 0 123 0H13ZM255 240H407L331 405H330L255 240ZM331
763Q276 763 237 797T189 883Q187 892 192 898T208 905H253Q266 905 270 893Q277 872 293 859T331 845Q350 845 366 859T390 893Q393 905 407 905H454Q463 905 468 899T473 883Q465 831 425 797T331 763Z" />
<glyph unicode="&#x103;" glyph-name="abreve" horiz-adv-x="429" d="M27 63T27 122T67 218T174 256Q194 256 213 252T242 244L251 240Q251 272 241 285T197 299Q146 299 97 284Q77 277 73 305L64 368Q60 389 79 395Q89 398 133 404T212 410Q304 410 342 370T381
240V19Q381 12 376 6T362 0H318Q306 0 300 13L286 40Q231 -10 165 -10Q105 -10 66 26ZM157 132Q157 114 169 101T200 88T231 101T244 132Q243 149 231 161T200 174T170 162T157 132ZM219 527Q164 527 125 561T77 647Q75 656 80 662T96 669H141Q154 669 158 657Q165
636 181 623T219 609Q238 609 254 623T278 657Q281 669 295 669H342Q351 669 356 663T361 647Q353 595 313 561T219 527Z" />
<glyph unicode="&#x104;" glyph-name="Aogonek" horiz-adv-x="662" d="M13 0Q2 0 -3 8T-4 26L310 699Q316 710 327 710H337Q348 710 354 699L666 26Q671 16 666 8T649 0H564Q519 -45 519 -95Q519 -124 536 -143T589 -162Q597 -162 630 -156Q640 -155 646 -160T652
-175V-208Q652 -223 637 -227Q602 -235 574 -235Q514 -235 475 -206T436 -121Q436 -84 454 -50T488 -3T508 14L467 104H195L159 24Q149 0 123 0H13ZM255 240H407L330 405H329L255 240Z" />
<glyph unicode="&#x105;" glyph-name="aogonek" horiz-adv-x="429" d="M27 63T27 122T67 218T174 256Q194 256 213 252T242 244L251 240Q251 275 241 288T197 302Q159 302 97 290Q76 286 73 311L64 368Q60 389 79 395Q89 398 133 404T212 410Q304 410 342 370T381
240V19Q381 12 376 6T362 0H357Q312 -45 312 -95Q312 -124 329 -143T382 -162Q390 -162 423 -156Q433 -155 439 -160T445 -175V-208Q445 -223 430 -227Q395 -235 367 -235Q306 -235 268 -206T229 -121Q229 -86 246 -53T277 -6T300 13L286 40Q231 -10 165 -10Q105
-10 66 26ZM157 132Q157 114 169 101T200 88T231 101T244 132Q243 149 231 161T200 174T170 162T157 132Z" />
<glyph unicode="&#x106;" glyph-name="Cacute" horiz-adv-x="673" d="M35 199T35 349T140 604T396 710Q536 710 638 617Q653 603 639 589L561 508Q548 496 536 508Q479 559 401 559Q317 559 261 499T205 353Q205 269 261 210T402 150Q480 150 536 198Q550 210
562 197L640 114Q653 101 639 87Q539 -10 396 -10Q246 -10 141 94ZM326 762Q309 751 299 771L278 813Q273 823 284 832L454 936Q458 940 467 940T480 933L514 874Q524 854 508 844L326 762Z" />
<glyph unicode="&#x107;" glyph-name="cacute" horiz-adv-x="420" d="M23 200Q23 287 87 348T239 410Q330 410 389 338Q400 324 384 310L324 253Q320 249 313 250T302 255Q278 281 244 281Q211 281 188 257T164 200Q164 166 186 143T242 119Q279 119 310 150Q322
162 332 154L392 102Q408 87 399 74Q344 -10 238 -10Q151 -10 87 50T23 200ZM167 512Q150 501 140 521L119 563Q114 573 125 582L295 686Q299 690 308 690T321 683L355 624Q366 604 349 594L167 512Z" />
<glyph unicode="&#x108;" glyph-name="Ccircumflex" horiz-adv-x="673" d="M35 199T35 349T140 604T396 710Q536 710 638 617Q653 603 639 589L561 508Q548 496 536 508Q479 559 401 559Q317 559 261 499T205 353Q205 269 261 210T402 150Q480 150 536 198Q550
210 562 197L640 114Q653 101 639 87Q539 -10 396 -10Q246 -10 141 94ZM298 762Q285 755 276 766L243 813Q237 822 249 832L384 936Q395 944 408 936L546 832Q557 823 552 813L518 767Q509 755 497 762L398 820L298 762Z" />
<glyph unicode="&#x109;" glyph-name="ccircumflex" horiz-adv-x="420" d="M23 200Q23 287 87 348T239 410Q330 410 389 338Q400 324 384 310L324 253Q320 249 313 250T302 255Q278 281 244 281Q211 281 188 257T164 200Q164 166 186 143T242 119Q279 119 310
150Q322 162 332 154L392 102Q408 87 399 74Q344 -10 238 -10Q151 -10 87 50T23 200ZM139 512Q126 505 117 516L84 563Q78 572 90 582L225 686Q236 694 249 686L387 582Q398 573 393 563L359 517Q350 505 338 512L239 570L139 512Z" />
<glyph unicode="&#x10a;" glyph-name="Cdotaccent" horiz-adv-x="673" d="M35 199T35 349T140 604T396 710Q536 710 638 617Q653 603 639 589L561 508Q548 496 536 508Q479 559 401 559Q317 559 261 499T205 353Q205 269 261 210T402 150Q480 150 536 198Q550
210 562 197L640 114Q653 101 639 87Q539 -10 396 -10Q246 -10 141 94ZM430 774T397 774T341 797T318 853T341 909T397 933T453 910T477 853T454 797Z" />
<glyph unicode="&#x10b;" glyph-name="cdotaccent" horiz-adv-x="420" d="M23 200Q23 287 87 348T239 410Q330 410 389 338Q400 324 384 310L324 253Q320 249 313 250T302 255Q278 281 244 281Q211 281 188 257T164 200Q164 166 186 143T242 119Q279 119 310 150Q322
162 332 154L392 102Q408 87 399 74Q344 -10 238 -10Q151 -10 87 50T23 200ZM271 521T238 521T182 544T159 600T182 656T238 680T294 657T318 600T295 544Z" />
<glyph unicode="&#x10c;" glyph-name="Ccaron" horiz-adv-x="673" d="M35 199T35 349T140 604T396 710Q536 710 638 617Q653 603 639 589L561 508Q548 496 536 508Q479 559 401 559Q317 559 261 499T205 353Q205 269 261 210T402 150Q480 150 536 198Q550 210
562 197L640 114Q653 101 639 87Q539 -10 396 -10Q246 -10 141 94ZM386 762L248 866Q237 875 242 885L276 931Q285 943 297 936L396 878L496 936Q509 943 518 932L551 885Q557 876 545 866L410 762Q399 754 386 762Z" />
<glyph unicode="&#x10d;" glyph-name="ccaron" horiz-adv-x="420" d="M23 200Q23 287 87 348T239 410Q330 410 389 338Q400 324 384 310L324 253Q320 249 313 250T302 255Q278 281 244 281Q211 281 188 257T164 200Q164 166 186 143T242 119Q279 119 310 150Q322
162 332 154L392 102Q408 87 399 74Q344 -10 238 -10Q151 -10 87 50T23 200ZM227 512L89 616Q78 625 83 635L117 681Q126 693 138 686L237 628L337 686Q350 693 359 682L392 635Q398 626 386 616L251 512Q240 504 227 512Z" />
<glyph unicode="&#x10e;" glyph-name="Dcaron" horiz-adv-x="735" d="M86 19V681Q86 689 91 694T104 700H348Q493 700 596 598T699 351Q699 206 596 103T348 0H104Q97 0 92 5T86 19ZM242 148H338Q422 148 477 206T533 351Q533 436 478 494T338 553H242V148ZM315
762L177 866Q166 875 171 885L205 931Q214 943 226 936L325 878L425 936Q438 943 447 932L480 885Q486 876 474 866L339 762Q328 754 315 762Z" />
<glyph unicode="&#x10f;" glyph-name="dcaron" horiz-adv-x="550" d="M25 200Q25 301 82 355T224 410Q274 410 307 391V681Q307 688 312 694T326 700H437Q444 700 450 694T456 681V19Q456 12 450 6T437 0H390Q376 0 369 20L357 53Q352 46 342 36T297 8T223 -10Q139
-10 82 51T25 200ZM162 201Q162 166 185 143T243 119T300 142T323 201Q323 235 300 258T243 281T186 258T162 201ZM581 417L566 432Q555 444 567 454Q637 505 638 574Q621 567 598 567Q568 567 547 587T526 638T548 689T605 710Q640 710 668 682T696 594Q696 492
603 415Q591 406 581 417Z" />
<glyph unicode="&#x110;" glyph-name="Dcroat" horiz-adv-x="740" d="M91 19V319H62Q55 319 50 324T44 338V355Q44 363 49 368T62 374H91V681Q91 689 96 694T109 700H353Q498 700 601 598T704 351Q704 206 601 103T353 0H109Q102 0 97 5T91 19ZM247 148H343Q427
148 482 206T538 351Q538 436 483 494T343 553H247V374H389Q397 374 402 369T408 355V337Q408 329 403 324T389 319H247V148Z" />
<glyph unicode="&#x111;" glyph-name="" horiz-adv-x="510" d="M25 200Q25 301 82 355T224 410Q274 410 307 391V531H211Q203 531 198 536T192 549V567Q192 575 197 580T211 586H307V681Q307 688 312 694T326 700H437Q444 700 450 694T456 681V586H488Q495 586
500 581T506 567V550Q506 542 501 537T488 531H456V19Q456 12 450 6T437 0H390Q376 0 369 20L357 53Q352 46 342 36T297 8T223 -10Q139 -10 82 51T25 200ZM164 200Q164 166 187 143T244 120T300 143T323 200Q323 233 301 256T244 279T187 256T164 200Z" />
<glyph unicode="&#x112;" glyph-name="Emacron" horiz-adv-x="586" d="M86 19V681Q86 689 91 694T105 700H519Q527 700 532 695T538 681V572Q538 564 533 559T519 553H242V429H470Q478 429 483 424T489 410V301Q489 293 484 288T470 282H242V147H519Q527 147 532
142T538 128V19Q538 11 533 6T519 0H105Q97 0 92 5T86 19ZM189 801Q181 801 176 806T170 819V860Q170 879 189 879H445Q464 879 464 860V819Q464 811 459 806T445 801H189Z" />
<glyph unicode="&#x113;" glyph-name="emacron" horiz-adv-x="439" d="M24 200Q24 286 84 348T231 410Q309 410 365 357T421 222Q421 209 419 195Q417 178 400 178H160Q163 153 182 133T237 112Q275 112 307 136Q322 148 332 136L382 76Q394 60 381 47Q324 -10
233 -10Q145 -10 85 51T24 200ZM173 256H280Q279 275 263 289T227 303T192 290T173 256ZM105 563Q97 563 92 568T86 581V622Q86 641 105 641H361Q380 641 380 622V581Q380 573 375 568T361 563H105Z" />
<glyph unicode="&#x114;" glyph-name="Ebreve" horiz-adv-x="586" d="M86 19V681Q86 689 91 694T105 700H519Q527 700 532 695T538 681V572Q538 564 533 559T519 553H242V429H470Q478 429 483 424T489 410V301Q489 293 484 288T470 282H242V147H519Q527 147 532
142T538 128V19Q538 11 533 6T519 0H105Q97 0 92 5T86 19ZM317 763Q262 763 223 797T175 883Q173 892 178 898T194 905H239Q252 905 256 893Q263 872 279 859T317 845Q336 845 352 859T376 893Q379 905 393 905H440Q449 905 454 899T459 883Q451 831 411 797T317
763Z" />
<glyph unicode="&#x115;" glyph-name="ebreve" horiz-adv-x="439" d="M24 200Q24 286 84 348T231 410Q309 410 365 357T421 222Q421 209 419 195Q417 178 400 178H160Q163 153 182 133T237 112Q275 112 307 136Q322 148 332 136L382 76Q394 60 381 47Q324 -10
233 -10Q145 -10 85 51T24 200ZM173 256H280Q279 275 263 289T227 303T192 290T173 256ZM233 527Q178 527 139 561T91 647Q89 656 94 662T110 669H155Q168 669 172 657Q179 636 195 623T233 609Q252 609 268 623T292 657Q295 669 309 669H356Q365 669 370 663T375
647Q367 595 327 561T233 527Z" />
<glyph unicode="&#x116;" glyph-name="Edotaccent" horiz-adv-x="586" d="M86 19V681Q86 689 91 694T105 700H519Q527 700 532 695T538 681V572Q538 564 533 559T519 553H242V429H470Q478 429 483 424T489 410V301Q489 293 484 288T470 282H242V147H519Q527 147
532 142T538 128V19Q538 11 533 6T519 0H105Q97 0 92 5T86 19ZM350 774T317 774T261 797T238 853T261 909T317 933T373 910T397 853T374 797Z" />
<glyph unicode="&#x117;" glyph-name="edotaccent" horiz-adv-x="439" d="M24 200Q24 286 84 348T231 410Q309 410 365 357T421 222Q421 209 419 195Q417 178 400 178H160Q163 153 182 133T237 112Q275 112 307 136Q322 148 332 136L382 76Q394 60 381 47Q324
-10 233 -10Q145 -10 85 51T24 200ZM173 256H280Q279 275 263 289T227 303T192 290T173 256ZM266 521T233 521T177 544T154 600T177 656T233 680T289 657T313 600T290 544Z" />
<glyph unicode="&#x118;" glyph-name="Eogonek" horiz-adv-x="586" d="M86 19V681Q86 689 91 694T105 700H519Q527 700 532 695T538 681V572Q538 564 533 559T519 553H242V429H470Q478 429 483 424T489 410V301Q489 293 484 288T470 282H242V147H519Q527 147 532
142T538 128V35Q538 25 535 18T530 10T518 0Q473 -45 473 -95Q473 -124 490 -143T543 -162Q551 -162 584 -156Q594 -155 600 -160T606 -175V-208Q606 -223 591 -227Q556 -235 528 -235Q468 -235 429 -206T390 -121Q390 -55 445 0H105Q97 0 92 5T86 19Z" />
<glyph unicode="&#x119;" glyph-name="eogonek" horiz-adv-x="441" d="M134 -121Q134 -57 185 -4Q114 12 70 69T25 200Q25 286 85 348T232 410Q310 410 366 357T422 222Q422 209 420 195Q418 178 401 178H161Q164 153 183 132T238 111Q274 111 306 135Q322 146
331 135Q338 127 354 108T383 76Q397 62 384 49Q332 -3 253 -9Q217 -51 217 -95Q217 -124 234 -143T287 -162Q295 -162 328 -156Q338 -155 344 -160T350 -175V-208Q350 -223 335 -227Q300 -235 272 -235Q212 -235 173 -206T134 -121ZM174 256H281Q280 275 264 289T228
303T193 290T174 256Z" />
<glyph unicode="&#x11a;" glyph-name="Ecaron" horiz-adv-x="586" d="M86 19V681Q86 689 91 694T105 700H519Q527 700 532 695T538 681V572Q538 564 533 559T519 553H242V429H470Q478 429 483 424T489 410V301Q489 293 484 288T470 282H242V147H519Q527 147 532
142T538 128V19Q538 11 533 6T519 0H105Q97 0 92 5T86 19ZM306 762L168 866Q157 875 162 885L196 931Q205 943 217 936L316 878L416 936Q429 943 438 932L471 885Q477 876 465 866L330 762Q319 754 306 762Z" />
<glyph unicode="&#x11b;" glyph-name="ecaron" horiz-adv-x="439" d="M24 200Q24 286 84 348T231 410Q309 410 365 357T421 222Q421 209 419 195Q417 178 400 178H160Q163 153 182 133T237 112Q275 112 307 136Q322 148 332 136L382 76Q394 60 381 47Q324 -10
233 -10Q145 -10 85 51T24 200ZM173 256H280Q279 275 263 289T227 303T192 290T173 256ZM222 512L84 616Q73 625 78 635L112 681Q121 693 133 686L232 628L332 686Q345 693 354 682L387 635Q393 626 381 616L246 512Q235 504 222 512Z" />
<glyph unicode="&#x11c;" glyph-name="Gcircumflex" horiz-adv-x="702" d="M36 199T36 349T141 604T395 709Q458 709 523 684T639 615Q655 602 641 588L562 504Q549 493 535 503Q483 551 404 551Q323 551 265 492T207 349Q207 267 265 209T405 150Q454 150 494
166V224H431Q423 224 418 229T412 242V341Q412 360 431 360H632Q639 360 644 355T650 341L651 72Q651 62 643 56Q631 49 610 38T524 9T395 -9Q245 -9 141 95ZM297 762Q284 755 275 766L242 813Q236 822 248 832L383 936Q394 944 407 936L545 832Q556 823 551 813L517
767Q508 755 496 762L397 820L297 762Z" />
<glyph unicode="&#x11d;" glyph-name="gcircumflex" horiz-adv-x="465" d="M11 36Q11 71 31 98T71 136L91 146Q62 176 62 237Q62 307 114 358T238 410H427Q446 410 446 391V350Q446 338 435 333L377 312Q381 309 387 302T404 270T415 215Q415 157 367 111T242
64H170Q137 64 137 37Q137 24 146 17T169 10H289Q361 10 411 -30T461 -136Q461 -213 405 -261T236 -310Q129 -310 78 -270T27 -174Q27 -111 88 -78V-75Q80 -73 70 -67T45 -48T21 -14T11 36ZM189 250T189 228T204 191T242 176T280 190T295 228T280 265T242 280T204
265ZM164 -146Q164 -193 236 -193T308 -146Q308 -104 236 -104Q206 -104 185 -115T164 -146ZM152 512Q139 505 130 516L97 563Q91 572 103 582L238 686Q249 694 262 686L400 582Q411 573 406 563L372 517Q363 505 351 512L252 570L152 512Z" />
<glyph unicode="&#x11e;" glyph-name="Gbreve" horiz-adv-x="702" d="M36 199T36 349T141 604T395 709Q458 709 523 684T639 615Q655 602 641 588L562 504Q549 493 535 503Q483 551 404 551Q323 551 265 492T207 349Q207 267 265 209T405 150Q454 150 494 166V224H431Q423
224 418 229T412 242V341Q412 360 431 360H632Q639 360 644 355T650 341L651 72Q651 62 643 56Q631 49 610 38T524 9T395 -9Q245 -9 141 95ZM396 763Q341 763 302 797T254 883Q252 892 257 898T273 905H318Q331 905 335 893Q342 872 358 859T396 845Q415 845 431
859T455 893Q458 905 472 905H519Q528 905 533 899T538 883Q530 831 490 797T396 763Z" />
<glyph unicode="&#x11f;" glyph-name="gbreve" horiz-adv-x="465" d="M11 36Q11 71 31 98T71 136L91 146Q62 176 62 237Q62 307 114 358T238 410H427Q446 410 446 391V350Q446 338 435 333L377 312Q381 309 387 302T404 270T415 215Q415 157 367 111T242 64H170Q137
64 137 37Q137 24 146 17T169 10H289Q361 10 411 -30T461 -136Q461 -213 405 -261T236 -310Q129 -310 78 -270T27 -174Q27 -111 88 -78V-75Q80 -73 70 -67T45 -48T21 -14T11 36ZM189 250T189 228T204 191T242 176T280 190T295 228T280 265T242 280T204 265ZM164
-146Q164 -193 236 -193T308 -146Q308 -104 236 -104Q206 -104 185 -115T164 -146ZM251 527Q196 527 157 561T109 647Q107 656 112 662T128 669H173Q186 669 190 657Q197 636 213 623T251 609Q270 609 286 623T310 657Q313 669 327 669H374Q383 669 388 663T393
647Q385 595 345 561T251 527Z" />
<glyph unicode="&#x120;" glyph-name="Gdotaccent" horiz-adv-x="702" d="M36 199T36 349T141 604T395 709Q458 709 523 684T639 615Q655 602 641 588L562 504Q549 493 535 503Q483 551 404 551Q323 551 265 492T207 349Q207 267 265 209T405 150Q454 150 494
166V224H431Q423 224 418 229T412 242V341Q412 360 431 360H632Q639 360 644 355T650 341L651 72Q651 62 643 56Q631 49 610 38T524 9T395 -9Q245 -9 141 95ZM429 774T396 774T340 797T317 853T340 909T396 933T452 910T476 853T453 797Z" />
<glyph unicode="&#x121;" glyph-name="gdotaccent" horiz-adv-x="465" d="M11 36Q11 71 31 98T71 136L91 146Q62 176 62 237Q62 307 114 358T238 410H427Q446 410 446 391V350Q446 338 435 333L377 312Q381 309 387 302T404 270T415 215Q415 157 367 111T242 64H170Q137
64 137 37Q137 24 146 17T169 10H289Q361 10 411 -30T461 -136Q461 -213 405 -261T236 -310Q129 -310 78 -270T27 -174Q27 -111 88 -78V-75Q80 -73 70 -67T45 -48T21 -14T11 36ZM189 250T189 228T204 191T242 176T280 190T295 228T280 265T242 280T204 265ZM164
-146Q164 -193 236 -193T308 -146Q308 -104 236 -104Q206 -104 185 -115T164 -146ZM288 521T255 521T199 544T176 600T199 656T255 680T311 657T335 600T312 544Z" />
<glyph unicode="&#x122;" glyph-name="Gcommaaccent" horiz-adv-x="702" d="M36 199T36 349T141 604T395 709Q458 709 523 684T639 615Q655 602 641 588L562 504Q549 493 535 503Q483 551 404 551Q323 551 265 492T207 349Q207 267 265 209T405 150Q454 150 494
166V224H431Q423 224 418 229T412 242V341Q412 360 431 360H632Q639 360 644 355T650 341L651 72Q651 62 643 56Q631 49 610 38T524 9T395 -9Q245 -9 141 95ZM405 -90Q440 -90 468 -118T496 -206Q496 -308 403 -385Q391 -394 381 -383L366 -368Q355 -356 367 -346Q437
-295 438 -226Q421 -233 398 -233Q368 -233 347 -213T326 -162T348 -111T405 -90Z" />
<glyph unicode="&#x123;" glyph-name="gcommaaccent" horiz-adv-x="465" d="M257 524Q222 524 194 552T166 640Q166 742 259 819Q271 828 281 817L296 802Q307 790 295 780Q225 729 224 660Q241 667 264 667Q294 667 315 647T336 596T314 545T257 524ZM11 36Q11
71 31 98T71 136L91 146Q62 176 62 237Q62 307 114 358T238 410H427Q446 410 446 391V350Q446 338 435 333L377 312Q381 309 387 302T404 270T415 215Q415 157 367 111T242 64H170Q137 64 137 37Q137 24 146 17T169 10H289Q361 10 411 -30T461 -136Q461 -213 405
-261T236 -310Q129 -310 78 -270T27 -174Q27 -111 88 -78V-75Q80 -73 70 -67T45 -48T21 -14T11 36ZM189 250T189 228T204 191T242 176T280 190T295 228T280 265T242 280T204 265ZM164 -146Q164 -193 236 -193T308 -146Q308 -104 236 -104Q206 -104 185 -115T164
-146Z" />
<glyph unicode="&#x124;" glyph-name="Hcircumflex" horiz-adv-x="772" d="M86 19V681Q86 688 92 694T105 700H224Q232 700 237 695T243 681V429H529V681Q529 689 534 694T548 700H667Q674 700 680 694T686 681V19Q686 12 680 6T667 0H548Q540 0 535 5T529 19V282H243V19Q243
11 238 6T224 0H105Q98 0 92 6T86 19ZM287 762Q274 755 265 766L232 813Q226 822 238 832L373 936Q384 944 397 936L535 832Q546 823 541 813L507 767Q498 755 486 762L387 820L287 762Z" />
<glyph unicode="&#x125;" glyph-name="hcircumflex" horiz-adv-x="530" d="M54 19V681Q54 688 60 694T73 700H184Q192 700 197 694T203 681V387Q249 410 296 410Q386 410 436 349T487 200V19Q487 12 482 6T468 0H362Q354 0 349 5T343 19V202Q343 236 323 258T270
281Q242 281 223 263T203 202V19Q203 0 181 0H73Q66 0 60 6T54 19ZM24 729Q11 722 2 733L-31 780Q-37 789 -25 799L110 903Q121 911 134 903L272 799Q283 790 278 780L244 734Q235 722 223 729L124 787L24 729Z" />
<glyph unicode="&#x126;" glyph-name="Hbar" horiz-adv-x="772" d="M86 19V531H58Q51 531 46 536T40 550V567Q40 575 45 580T58 586H86V681Q86 688 92 694T105 700H224Q232 700 237 695T243 681V586H529V681Q529 689 534 694T548 700H667Q674 700 680 694T686
681V586H714Q722 586 727 581T733 567V549Q733 541 728 536T714 531H686V19Q686 12 680 6T667 0H548Q540 0 535 5T529 19V282H243V19Q243 11 238 6T224 0H105Q98 0 92 6T86 19ZM243 429H529V531H243V429Z" />
<glyph unicode="&#x127;" glyph-name="hbar" horiz-adv-x="531" d="M54 19V531H23Q16 531 11 536T5 550V567Q5 575 10 580T23 586H54V681Q54 688 60 694T73 700H184Q192 700 197 694T203 681V586H300Q308 586 313 581T319 567V549Q319 541 314 536T300 531H203V386Q252
409 296 409Q386 409 436 349T487 200V19Q487 12 482 6T468 0H362Q354 0 349 5T343 19V200Q343 234 323 256T270 279Q243 279 223 263T203 210V19Q203 0 181 0H73Q66 0 60 6T54 19Z" />
<glyph unicode="&#x128;" glyph-name="Itilde" horiz-adv-x="330" d="M86 19V681Q86 688 92 694T105 700H225Q232 700 238 694T244 681V19Q244 12 238 6T225 0H105Q98 0 92 6T86 19ZM48 785L13 813Q1 822 7 836Q15 850 27 866T64 901T114 920Q139 920 171 897T222
873T260 904Q270 920 285 906L319 880Q333 870 320 851Q274 773 220 773Q192 773 159 797T110 821Q102 821 95 816T80 799T70 786Q61 777 48 785Z" />
<glyph unicode="&#x129;" glyph-name="itilde" horiz-adv-x="256" d="M54 19V380Q54 388 59 393T73 399H183Q191 399 196 394T202 380V19Q202 12 196 6T183 0H73Q66 0 60 6T54 19ZM11 555L-24 583Q-36 592 -30 606Q-22 620 -10 636T27 671T77 690Q102 690 134
667T185 643T223 674Q233 690 248 676L282 650Q296 640 283 621Q237 543 183 543Q155 543 122 567T73 591Q65 591 58 586T43 569T33 556Q24 547 11 555Z" />
<glyph unicode="&#x12a;" glyph-name="Imacron" horiz-adv-x="330" d="M86 19V681Q86 688 92 694T105 700H225Q232 700 238 694T244 681V19Q244 12 238 6T225 0H105Q98 0 92 6T86 19ZM37 801Q29 801 24 806T18 819V860Q18 879 37 879H293Q312 879 312 860V819Q312
811 307 806T293 801H37Z" />
<glyph unicode="&#x12b;" glyph-name="imacron" horiz-adv-x="256" d="M54 19V380Q54 388 59 393T73 399H183Q191 399 196 394T202 380V19Q202 12 196 6T183 0H73Q66 0 60 6T54 19ZM0 563Q-8 563 -13 568T-19 581V622Q-19 641 0 641H256Q275 641 275 622V581Q275
573 270 568T256 563H0Z" />
<glyph unicode="&#x12c;" glyph-name="Ibreve" horiz-adv-x="330" d="M86 19V681Q86 688 92 694T105 700H225Q232 700 238 694T244 681V19Q244 12 238 6T225 0H105Q98 0 92 6T86 19ZM165 763Q110 763 71 797T23 883Q21 892 26 898T42 905H87Q100 905 104 893Q111
872 127 859T165 845Q184 845 200 859T224 893Q227 905 241 905H288Q297 905 302 899T307 883Q299 831 259 797T165 763Z" />
<glyph unicode="&#x12d;" glyph-name="ibreve" horiz-adv-x="256" d="M54 19V380Q54 388 59 393T73 399H183Q191 399 196 394T202 380V19Q202 12 196 6T183 0H73Q66 0 60 6T54 19ZM128 527Q73 527 34 561T-14 647Q-16 656 -11 662T5 669H50Q63 669 67 657Q74 636
90 623T128 609Q147 609 163 623T187 657Q190 669 204 669H251Q260 669 265 663T270 647Q262 595 222 561T128 527Z" />
<glyph unicode="&#x12e;" glyph-name="Iogonek" horiz-adv-x="330" d="M86 19V681Q86 688 92 694T105 700H225Q232 700 238 694T244 681V19Q244 12 238 6T225 0H196Q151 -45 151 -95Q151 -124 168 -143T221 -162Q229 -162 262 -156Q272 -155 278 -160T284 -175V-208Q284
-223 269 -227Q234 -235 206 -235Q146 -235 107 -206T68 -121Q68 -55 123 0H105Q98 0 92 6T86 19Z" />
<glyph unicode="&#x12f;" glyph-name="iogonek" horiz-adv-x="256" d="M160 521T127 521T71 544T48 600T71 656T127 680T183 657T207 600T184 544ZM54 19V381Q54 389 59 394T73 400H183Q191 400 196 395T202 381V19Q202 12 196 6T183 0H158Q113 -45 113 -95Q113
-124 130 -143T183 -162Q191 -162 224 -156Q234 -155 240 -160T246 -175V-208Q246 -223 231 -227Q196 -235 168 -235Q108 -235 69 -206T30 -121Q30 -55 85 0H73Q66 0 60 6T54 19Z" />
<glyph unicode="&#x130;" glyph-name="Idot" horiz-adv-x="330" d="M86 19V681Q86 688 92 694T105 700H225Q232 700 238 694T244 681V19Q244 12 238 6T225 0H105Q98 0 92 6T86 19ZM198 774T165 774T109 797T86 853T109 909T165 933T221 910T245 853T222 797Z" />
<glyph unicode="&#x131;" glyph-name="dotlessi" horiz-adv-x="256" d="M54 19V380Q54 388 59 393T73 399H183Q191 399 196 394T202 380V19Q202 12 196 6T183 0H73Q66 0 60 6T54 19Z" />
<glyph unicode="&#x132;" glyph-name="IJ" horiz-adv-x="776" d="M86 19V681Q86 688 92 694T105 700H225Q232 700 238 694T244 681V19Q244 12 238 6T225 0H105Q98 0 92 6T86 19ZM338 63Q330 76 340 88L408 155Q422 168 435 155Q456 134 486 134Q509 134 527 154T545
210V681Q545 689 550 694T564 700H686Q694 700 699 695T705 681V209Q705 108 643 49T490 -10Q397 -10 338 63Z" />
<glyph unicode="&#x133;" glyph-name="ij" horiz-adv-x="525" d="M160 521T127 521T71 544T48 600T71 656T127 680T183 657T207 600T184 544ZM54 19V381Q54 389 59 394T73 400H183Q191 400 196 395T202 381V19Q202 12 196 6T183 0H73Q66 0 60 6T54 19ZM429 521T396
521T340 544T317 600T340 656T396 680T452 657T476 600T453 544ZM322 -92V381Q322 389 327 394T341 400H452Q460 400 465 395T471 381V-92Q471 -194 415 -252T268 -310Q232 -310 196 -298T146 -272Q134 -262 142 -249L184 -166Q186 -161 193 -159T207 -159Q237
-175 259 -175Q322 -175 322 -92Z" />
<glyph unicode="&#x134;" glyph-name="Jcircumflex" horiz-adv-x="425" d="M-14 63Q-22 76 -12 88L56 155Q70 168 83 155Q104 134 134 134Q157 134 175 154T193 210V681Q193 689 198 694T212 700H334Q342 700 347 695T353 681V209Q353 108 291 49T138 -10Q45 -10
-14 63ZM168 762Q155 755 146 766L113 813Q107 822 119 832L254 936Q265 944 278 936L416 832Q427 823 422 813L388 767Q379 755 367 762L268 820L168 762Z" />
<glyph unicode="&#x135;" glyph-name="jcircumflex" horiz-adv-x="257" d="M54 -92V380Q54 388 59 393T73 399H184Q192 399 197 394T203 380V-92Q203 -194 147 -252T0 -310Q-36 -310 -72 -298T-122 -272Q-134 -262 -126 -249L-84 -166Q-82 -161 -75 -159T-61 -159Q-31
-175 -9 -175Q54 -175 54 -92ZM30 512Q17 505 8 516L-25 563Q-31 572 -19 582L116 686Q127 694 140 686L278 582Q289 573 284 563L250 517Q241 505 229 512L130 570L30 512Z" />
<glyph unicode="&#x136;" glyph-name="Kcommaaccent" horiz-adv-x="673" d="M86 24V676Q86 686 93 693T110 700H227Q237 700 244 693T251 676V413L473 690Q481 700 492 700H618Q632 700 638 687T636 663L402 370L657 38Q665 27 659 14T638 1H500Q487 1 482 8L251
322V24Q251 14 244 7T227 0H110Q100 0 93 7T86 24ZM383 -90Q418 -90 446 -118T474 -206Q474 -308 381 -385Q369 -394 359 -383L344 -368Q333 -356 345 -346Q415 -295 416 -226Q399 -233 376 -233Q346 -233 325 -213T304 -162T326 -111T383 -90Z" />
<glyph unicode="&#x137;" glyph-name="kcommaaccent" horiz-adv-x="511" d="M54 19V681Q54 688 60 694T73 700H184Q192 700 197 694T203 681V248L324 388Q336 400 349 400H461Q474 400 479 390T476 369L344 216L504 30Q512 20 507 10T489 0H354Q345 0 339 8L203
182V19Q203 12 198 6T184 0H73Q66 0 60 6T54 19ZM275 -90Q310 -90 338 -118T366 -206Q366 -308 273 -385Q261 -394 251 -383L236 -368Q225 -356 237 -346Q307 -295 308 -226Q291 -233 268 -233Q238 -233 217 -213T196 -162T218 -111T275 -90Z" />
<glyph unicode="&#x138;" glyph-name="kgreenlandic" horiz-adv-x="513" d="M54 19V381Q54 388 60 394T73 400H184Q192 400 197 394T203 381V228L334 388Q346 400 359 400H471Q484 400 489 390T486 369L341 196L504 30Q512 20 507 10T489 0H354Q345 0 339 8L203
162V19Q203 12 198 6T184 0H73Q66 0 60 6T54 19Z" />
<glyph unicode="&#x139;" glyph-name="Lacute" horiz-adv-x="511" d="M86 19V681Q86 689 91 694T105 700H224Q232 700 237 694T243 681V147H481Q489 147 494 142T500 128V19Q500 11 495 6T481 0H105Q97 0 92 5T86 19ZM92 762Q75 751 65 771L44 813Q39 823 50 832L220
936Q224 940 233 940T246 933L280 874Q290 854 274 844L92 762Z" />
<glyph unicode="&#x13a;" glyph-name="lacute" horiz-adv-x="256" d="M54 19V681Q54 688 60 694T73 700H183Q190 700 196 694T202 681V19Q202 12 196 6T183 0H73Q66 0 60 6T54 19ZM54 729Q37 718 27 738L6 780Q1 790 12 799L182 903Q186 907 195 907T208 900L242
841Q252 821 236 811L54 729Z" />
<glyph unicode="&#x13b;" glyph-name="Lcommaaccent" horiz-adv-x="511" d="M86 19V681Q86 689 91 694T105 700H224Q232 700 237 694T243 681V147H481Q489 147 494 142T500 128V19Q500 11 495 6T481 0H105Q97 0 92 5T86 19ZM302 -90Q337 -90 365 -118T393 -206Q393
-308 300 -385Q288 -394 278 -383L263 -368Q252 -356 264 -346Q334 -295 335 -226Q318 -233 295 -233Q265 -233 244 -213T223 -162T245 -111T302 -90Z" />
<glyph unicode="&#x13c;" glyph-name="lcommaaccent" horiz-adv-x="256" d="M54 19V681Q54 688 60 694T73 700H183Q190 700 196 694T202 681V19Q202 12 196 6T183 0H73Q66 0 60 6T54 19ZM122 -90Q157 -90 185 -118T213 -206Q213 -308 120 -385Q108 -394 98 -383L83
-368Q72 -356 84 -346Q154 -295 155 -226Q138 -233 115 -233Q85 -233 64 -213T43 -162T65 -111T122 -90Z" />
<glyph unicode="&#x13d;" glyph-name="Lcaron" horiz-adv-x="511" d="M86 19V681Q86 689 91 694T105 700H224Q232 700 237 694T243 681V147H481Q489 147 494 142T500 128V19Q500 11 495 6T481 0H105Q97 0 92 5T86 19ZM388 710Q423 710 451 682T479 594Q479 492
386 415Q374 406 364 417L349 432Q338 444 350 454Q420 505 421 574Q404 567 381 567Q351 567 330 587T309 638T331 689T388 710Z" />
<glyph unicode="&#x13e;" glyph-name="lcaron" horiz-adv-x="296" d="M54 19V681Q54 688 60 694T73 700H183Q190 700 196 694T202 681V19Q202 12 196 6T183 0H73Q66 0 60 6T54 19ZM328 417L313 432Q302 444 314 454Q384 505 385 574Q368 567 345 567Q315 567 294
587T273 638T295 689T352 710Q387 710 415 682T443 594Q443 492 350 415Q338 406 328 417Z" />
<glyph unicode="&#x13f;" glyph-name="Ldot" horiz-adv-x="574" d="M86 19V681Q86 689 91 694T105 700H224Q232 700 237 694T243 681V147H481Q489 147 494 142T500 128V19Q500 11 495 6T481 0H105Q97 0 92 5T86 19ZM508 281T475 281T419 304T396 360T419 416T475
440T531 417T555 360T532 304Z" />
<glyph unicode="&#x140;" glyph-name="ldot" horiz-adv-x="452" d="M54 19V681Q54 688 60 694T73 700H183Q190 700 196 694T202 681V19Q202 12 196 6T183 0H73Q66 0 60 6T54 19ZM376 281T343 281T287 304T264 360T287 416T343 440T399 417T423 360T400 304Z" />
<glyph unicode="&#x141;" glyph-name="Lslash" horiz-adv-x="527" d="M102 19V304L79 291Q62 282 53 298L45 313Q35 329 51 338L102 367V681Q102 689 107 694T121 700H240Q248 700 253 694T259 681V458L334 502Q351 511 360 495L369 479Q378 465 362 454L259 394V147H497Q505
147 510 142T516 128V19Q516 11 511 6T497 0H121Q113 0 108 5T102 19Z" />
<glyph unicode="&#x142;" glyph-name="lslash" horiz-adv-x="269" d="M67 19V306L41 291Q24 282 15 298L7 313Q-3 329 13 338L67 369V681Q67 688 72 694T86 700H196Q204 700 209 694T215 681V456L265 486Q282 495 291 479L300 463Q309 449 293 438L215 392V19Q215
12 210 6T196 0H86Q78 0 73 6T67 19Z" />
<glyph unicode="&#x143;" glyph-name="Nacute" horiz-adv-x="773" d="M86 19L85 692Q85 699 90 704T104 710H129L528 326H529V681Q529 689 534 694T548 700H668Q676 700 681 694T687 681V8Q687 1 682 -4T668 -10H652Q644 -10 639 -5L244 392H243V19Q243 11 238
6T224 0H105Q98 0 92 6T86 19ZM317 762Q300 751 290 771L269 813Q264 823 275 832L445 936Q449 940 458 940T471 933L505 874Q516 854 499 844L317 762Z" />
<glyph unicode="&#x144;" glyph-name="nacute" horiz-adv-x="528" d="M54 19V381Q54 389 59 394T73 400H120Q133 400 138 388L154 348Q211 410 295 410Q384 410 434 351T485 201V19Q485 12 480 6T466 0H359Q351 0 346 5T340 19V206Q340 238 322 259T272 281Q241
281 219 261T196 211V19Q196 0 178 0H73Q66 0 60 6T54 19ZM205 512Q188 501 178 521L157 563Q152 573 163 582L333 686Q337 690 346 690T359 683L393 624Q404 604 387 594L205 512Z" />
<glyph unicode="&#x145;" glyph-name="Ncommaaccent" horiz-adv-x="773" d="M86 19L85 692Q85 699 90 704T104 710H129L528 326H529V681Q529 689 534 694T548 700H668Q676 700 681 694T687 681V8Q687 1 682 -4T668 -10H652Q644 -10 639 -5L244 392H243V19Q243
11 238 6T224 0H105Q98 0 92 6T86 19ZM404 -90Q439 -90 467 -118T495 -206Q495 -308 402 -385Q390 -394 380 -383L365 -368Q354 -356 366 -346Q436 -295 437 -226Q420 -233 397 -233Q367 -233 346 -213T325 -162T347 -111T404 -90Z" />
<glyph unicode="&#x146;" glyph-name="ncommaaccent" horiz-adv-x="529" d="M54 19V381Q54 389 59 394T73 400H120Q133 400 138 388L154 348Q211 410 295 410Q384 410 434 351T485 201V19Q485 12 480 6T466 0H359Q351 0 346 5T340 19V206Q340 238 322 259T272
281Q241 281 219 261T196 211V19Q196 0 178 0H73Q66 0 60 6T54 19ZM268 -90Q303 -90 331 -118T359 -206Q359 -308 266 -385Q254 -394 244 -383L229 -368Q218 -356 230 -346Q300 -295 301 -226Q284 -233 261 -233Q231 -233 210 -213T189 -162T211 -111T268 -90Z"
/>
<glyph unicode="&#x147;" glyph-name="Ncaron" horiz-adv-x="773" d="M86 19L85 692Q85 699 90 704T104 710H129L528 326H529V681Q529 689 534 694T548 700H668Q676 700 681 694T687 681V8Q687 1 682 -4T668 -10H652Q644 -10 639 -5L244 392H243V19Q243 11 238
6T224 0H105Q98 0 92 6T86 19ZM377 762L239 866Q228 875 233 885L267 931Q276 943 288 936L387 878L487 936Q500 943 509 932L542 885Q548 876 536 866L401 762Q390 754 377 762Z" />
<glyph unicode="&#x148;" glyph-name="ncaron" horiz-adv-x="528" d="M54 19V381Q54 389 59 394T73 400H120Q133 400 138 388L154 348Q211 410 295 410Q384 410 434 351T485 201V19Q485 12 480 6T466 0H359Q351 0 346 5T340 19V206Q340 238 322 259T272 281Q241
281 219 261T196 211V19Q196 0 178 0H73Q66 0 60 6T54 19ZM263 512L125 616Q114 625 119 635L153 681Q162 693 174 686L273 628L373 686Q386 693 395 682L428 635Q434 626 422 616L287 512Q276 504 263 512Z" />
<glyph unicode="&#x149;" glyph-name="napostrophe" horiz-adv-x="528" d="M54 19V381Q54 389 59 394T73 400H120Q133 400 138 388L154 348Q211 410 295 410Q384 410 434 351T485 201V19Q485 12 480 6T466 0H359Q351 0 346 5T340 19V206Q340 238 322 259T272 281Q241
281 219 261T196 211V19Q196 0 178 0H73Q66 0 60 6T54 19ZM-60 710Q-25 710 3 682T31 594Q31 492 -62 415Q-74 406 -84 417L-99 432Q-110 444 -98 454Q-28 505 -27 574Q-44 567 -67 567Q-97 567 -118 587T-139 638T-117 689T-60 710Z" />
<glyph unicode="&#x14a;" glyph-name="Eng" horiz-adv-x="773" d="M86 19L85 692Q85 699 90 704T104 710H129L528 320H529V681Q529 689 534 694T548 700H668Q676 700 681 694T687 681L686 -92Q686 -194 630 -252T483 -310Q447 -310 411 -298T361 -272Q349 -262
357 -249L399 -166Q401 -161 408 -159T422 -159Q452 -175 474 -175Q535 -175 535 -92V102L244 392H243V19Q243 11 238 6T224 0H105Q98 0 92 6T86 19Z" />
<glyph unicode="&#x14b;" glyph-name="eng" horiz-adv-x="528" d="M54 19V381Q54 389 59 394T73 400H120Q133 400 138 388L154 348Q211 410 295 410Q384 410 434 351T485 201V-92Q485 -194 429 -252T282 -310Q246 -310 210 -298T160 -272Q148 -262 156 -249L198
-166Q200 -161 207 -159T221 -159Q251 -175 273 -175Q306 -175 323 -153T340 -92V201Q340 232 323 252T272 272Q241 272 219 254T196 206V19Q196 0 178 0H73Q66 0 60 6T54 19Z" />
<glyph unicode="&#x14c;" glyph-name="Omacron" horiz-adv-x="789" d="M35 199T35 349T139 604T394 710T649 605T754 349T649 95T394 -10T140 94ZM195 349Q195 267 253 209T394 150T535 208T594 349Q594 432 535 491T394 550T254 491T195 349ZM266 801Q258 801
253 806T247 819V860Q247 879 266 879H522Q541 879 541 860V819Q541 811 536 806T522 801H266Z" />
<glyph unicode="&#x14d;" glyph-name="omacron" horiz-adv-x="462" d="M23 201Q23 286 84 348T231 410T377 348T439 201Q439 115 378 53T231 -10T85 52T23 201ZM152 201Q152 167 175 143T231 119T287 143T310 201Q310 234 287 257T231 281T175 258T152 201ZM103
563Q95 563 90 568T84 581V622Q84 641 103 641H359Q378 641 378 622V581Q378 573 373 568T359 563H103Z" />
<glyph unicode="&#x14e;" glyph-name="Obreve" horiz-adv-x="789" d="M35 199T35 349T139 604T394 710T649 605T754 349T649 95T394 -10T140 94ZM195 349Q195 267 253 209T394 150T535 208T594 349Q594 432 535 491T394 550T254 491T195 349ZM394 763Q339 763
300 797T252 883Q250 892 255 898T271 905H316Q329 905 333 893Q340 872 356 859T394 845Q413 845 429 859T453 893Q456 905 470 905H517Q526 905 531 899T536 883Q528 831 488 797T394 763Z" />
<glyph unicode="&#x14f;" glyph-name="obreve" horiz-adv-x="462" d="M23 201Q23 286 84 348T231 410T377 348T439 201Q439 115 378 53T231 -10T85 52T23 201ZM152 201Q152 167 175 143T231 119T287 143T310 201Q310 234 287 257T231 281T175 258T152 201ZM231
527Q176 527 137 561T89 647Q87 656 92 662T108 669H153Q166 669 170 657Q177 636 193 623T231 609Q250 609 266 623T290 657Q293 669 307 669H354Q363 669 368 663T373 647Q365 595 325 561T231 527Z" />
<glyph unicode="&#x150;" glyph-name="Ohungarumlaut" horiz-adv-x="789" d="M35 199T35 349T139 604T394 710T649 605T754 349T649 95T394 -10T140 94ZM195 349Q195 267 253 209T394 150T535 208T594 349Q594 432 535 491T394 550T254 491T195 349ZM465 768Q457
768 451 774T446 787L476 928Q482 947 495 947H589Q603 947 608 939T607 922L529 783Q518 768 511 768H465ZM299 768Q291 768 285 774T280 787L310 928Q316 947 329 947H423Q437 947 442 940T441 922L363 783Q356 768 345 768H299Z" />
<glyph unicode="&#x151;" glyph-name="ohungarumlaut" horiz-adv-x="462" d="M23 201Q23 286 84 348T231 410T377 348T439 201Q439 115 378 53T231 -10T85 52T23 201ZM152 201Q152 167 175 143T231 119T287 143T310 201Q310 234 287 257T231 281T175 258T152 201ZM296
521Q288 521 282 527T277 540L307 681Q313 700 326 700H420Q434 700 439 692T438 675L360 536Q349 521 342 521H296ZM130 521Q122 521 116 527T111 540L141 681Q147 700 160 700H254Q268 700 273 693T272 675L194 536Q186 521 176 521H130Z" />
<glyph unicode="&#x152;" glyph-name="OE" horiz-adv-x="978" d="M35 199T35 349T139 604T394 710Q417 710 443 708T483 702L497 700H911Q919 700 924 695T930 681V572Q930 564 925 559T911 553H634V429H862Q870 429 875 424T881 410V301Q881 293 876 288T862
282H634V147H911Q919 147 924 142T930 128V19Q930 11 925 6T911 0H497Q444 -10 394 -10Q244 -10 140 94ZM195 349Q195 267 254 207T394 147Q443 147 478 163V536Q443 552 394 552Q312 552 254 492T195 349Z" />
<glyph unicode="&#x153;" glyph-name="oe" horiz-adv-x="710" d="M24 202Q24 287 85 348T232 410Q306 410 366 358Q424 410 502 410T636 357T692 222Q692 209 690 195Q688 178 671 178H431Q434 153 453 132T508 111Q544 111 576 135Q592 146 601 135Q608 127 624
108T653 76Q667 62 654 49Q595 -10 504 -10Q425 -10 366 41Q309 -10 232 -10Q147 -10 86 53T24 202ZM444 256H551Q550 275 534 289T498 303T463 290T444 256ZM153 202Q153 168 176 144T232 119T288 143T311 202Q311 235 288 258T232 281T176 258T153 202Z" />
<glyph unicode="&#x154;" glyph-name="Racute" horiz-adv-x="670" d="M86 19V681Q86 689 91 694T105 700H404Q494 700 558 637T622 484Q622 417 582 364T474 283L611 29Q617 19 612 10T594 0H461Q450 0 445 9L312 274H243V19Q243 12 238 6T224 0H105Q97 0 92 5T86
19ZM243 401H391Q422 401 444 425T467 481Q467 512 445 534T391 557H243V401ZM253 762Q236 751 226 771L205 813Q200 823 211 832L381 936Q385 940 394 940T407 933L441 874Q452 854 435 844L253 762Z" />
<glyph unicode="&#x155;" glyph-name="racute" horiz-adv-x="345" d="M54 19V381Q54 389 59 394T73 400H120Q132 400 138 388L156 344Q202 410 265 410Q292 410 313 404T343 388T345 367L296 287Q288 273 274 278Q262 283 250 283Q227 283 212 267T197 226V19Q197
0 175 0H73Q66 0 60 6T54 19ZM106 512Q89 501 79 521L58 563Q53 573 64 582L234 686Q238 690 247 690T260 683L294 624Q304 604 288 594L106 512Z" />
<glyph unicode="&#x156;" glyph-name="Rcommaaccent" horiz-adv-x="669" d="M86 19V681Q86 689 91 694T105 700H404Q494 700 558 637T622 484Q622 417 582 364T474 283L611 29Q617 19 612 10T594 0H461Q450 0 445 9L312 274H243V19Q243 12 238 6T224 0H105Q97
0 92 5T86 19ZM243 401H391Q422 401 444 425T467 481Q467 512 445 534T391 557H243V401ZM343 -90Q378 -90 406 -118T434 -206Q434 -308 341 -385Q329 -394 319 -383L304 -368Q293 -356 305 -346Q375 -295 376 -226Q359 -233 336 -233Q306 -233 285 -213T264 -162T286
-111T343 -90Z" />
<glyph unicode="&#x157;" glyph-name="rcommaaccent" horiz-adv-x="345" d="M54 19V381Q54 389 59 394T73 400H120Q132 400 138 388L156 344Q202 410 265 410Q292 410 313 404T343 388T345 367L296 287Q288 273 274 278Q262 283 250 283Q227 283 212 267T197 226V19Q197
0 175 0H73Q66 0 60 6T54 19ZM124 -90Q159 -90 187 -118T215 -206Q215 -308 122 -385Q110 -394 100 -383L85 -368Q74 -356 86 -346Q156 -295 157 -226Q140 -233 117 -233Q87 -233 66 -213T45 -162T67 -111T124 -90Z" />
<glyph unicode="&#x158;" glyph-name="Rcaron" horiz-adv-x="670" d="M86 19V681Q86 689 91 694T105 700H404Q494 700 558 637T622 484Q622 417 582 364T474 283L611 29Q617 19 612 10T594 0H461Q450 0 445 9L312 274H243V19Q243 12 238 6T224 0H105Q97 0 92 5T86
19ZM243 401H391Q422 401 444 425T467 481Q467 512 445 534T391 557H243V401ZM313 762L175 866Q164 875 169 885L203 931Q212 943 224 936L323 878L423 936Q436 943 445 932L478 885Q484 876 472 866L337 762Q326 754 313 762Z" />
<glyph unicode="&#x159;" glyph-name="rcaron" horiz-adv-x="345" d="M54 19V381Q54 389 59 394T73 400H120Q132 400 138 388L156 344Q202 410 265 410Q292 410 313 404T343 388T345 367L296 287Q288 273 274 278Q262 283 250 283Q227 283 212 267T197 226V19Q197
0 175 0H73Q66 0 60 6T54 19ZM166 512L28 616Q17 625 22 635L56 681Q65 693 77 686L176 628L276 686Q289 693 298 682L331 635Q337 626 325 616L190 512Q179 504 166 512Z" />
<glyph unicode="&#x15a;" glyph-name="Sacute" horiz-adv-x="548" d="M51 67Q43 75 42 79T46 95L93 178Q98 187 110 188T127 184L134 180Q141 175 150 169T174 156T203 143T235 133T269 129Q299 129 318 146T338 189Q338 249 235 290Q41 367 41 511Q41 592 102
651T272 710Q384 710 486 635Q494 630 495 619T492 603L441 526Q435 517 425 513T407 513Q406 513 395 521T370 536T339 553T301 567T264 573Q237 573 219 558T201 522Q201 494 226 472T310 425Q512 345 512 197Q512 115 447 53T276 -10Q191 -10 135 15T51 67ZM202
762Q185 751 175 771L154 813Q149 823 160 832L330 936Q334 940 343 940T356 933L390 874Q400 854 384 844L202 762Z" />
<glyph unicode="&#x15b;" glyph-name="sacute" horiz-adv-x="371" d="M40 23Q27 34 33 44L68 113Q70 118 76 121T89 121Q136 95 179 95Q198 95 198 113Q198 135 141 155Q29 194 29 289Q29 342 68 376T185 410Q269 410 318 379Q336 367 328 354L291 286Q285 274
270 280Q224 303 185 303Q163 303 163 289Q163 273 208 257Q277 233 311 203T345 117Q345 62 301 26T176 -10Q81 -10 40 23ZM116 512Q99 501 89 521L68 563Q63 573 74 582L244 686Q248 690 257 690T270 683L304 624Q314 604 298 594L116 512Z" />
<glyph unicode="&#x15c;" glyph-name="Scircumflex" horiz-adv-x="548" d="M51 67Q43 75 42 79T46 95L93 178Q98 187 110 188T127 184L134 180Q141 175 150 169T174 156T203 143T235 133T269 129Q299 129 318 146T338 189Q338 249 235 290Q41 367 41 511Q41 592
102 651T272 710Q384 710 486 635Q494 630 495 619T492 603L441 526Q435 517 425 513T407 513Q406 513 395 521T370 536T339 553T301 567T264 573Q237 573 219 558T201 522Q201 494 226 472T310 425Q512 345 512 197Q512 115 447 53T276 -10Q191 -10 135 15T51
67ZM174 762Q161 755 152 766L119 813Q113 822 125 832L260 936Q271 944 284 936L422 832Q433 823 428 813L394 767Q385 755 373 762L274 820L174 762Z" />
<glyph unicode="&#x15d;" glyph-name="scircumflex" horiz-adv-x="371" d="M40 23Q27 34 33 44L68 113Q70 118 76 121T89 121Q136 95 179 95Q198 95 198 113Q198 135 141 155Q29 194 29 289Q29 342 68 376T185 410Q269 410 318 379Q336 367 328 354L291 286Q285
274 270 280Q224 303 185 303Q163 303 163 289Q163 273 208 257Q277 233 311 203T345 117Q345 62 301 26T176 -10Q81 -10 40 23ZM87 512Q74 505 65 516L32 563Q26 572 38 582L173 686Q184 694 197 686L335 582Q346 573 341 563L307 517Q298 505 286 512L187 570L87
512Z" />
<glyph unicode="&#x15e;" glyph-name="Scedilla" horiz-adv-x="550" d="M52 67Q44 75 43 79T47 95L94 178Q99 187 111 188T128 184L135 180Q142 175 151 169T175 156T204 143T236 133T270 129Q300 129 319 146T339 189Q339 249 236 290Q42 367 42 511Q42 592 103
651T273 710Q385 710 487 635Q495 630 496 619T493 603L442 526Q436 517 426 513T408 513Q407 513 396 521T371 536T340 553T302 567T265 573Q238 573 220 558T202 522Q202 494 227 472T311 425Q513 345 513 197Q513 116 449 54T282 -10V-52Q327 -58 350 -85T374
-154Q374 -198 343 -229T268 -260Q222 -260 192 -225Q179 -211 196 -196L219 -176Q230 -165 240 -178Q246 -187 264 -187Q276 -187 285 -177T294 -155Q294 -116 226 -113Q209 -111 209 -95V-4Q105 11 52 67Z" />
<glyph unicode="&#x15f;" glyph-name="scedilla" horiz-adv-x="372" d="M41 23Q28 34 34 44L69 113Q71 118 77 121T90 121Q137 95 180 95Q199 95 199 113Q199 135 142 155Q30 194 30 289Q30 342 69 376T186 410Q270 410 319 379Q337 367 329 354L292 286Q286 274
271 280Q225 303 186 303Q164 303 164 289Q164 273 209 257Q278 233 312 203T346 117Q346 65 307 30T195 -9V-52Q240 -58 263 -85T287 -154Q287 -198 256 -229T181 -260Q135 -260 105 -225Q92 -211 109 -196L132 -176Q143 -165 153 -178Q159 -187 177 -187Q189
-187 198 -177T207 -155Q207 -116 139 -113Q122 -111 122 -95V-6Q67 2 41 23Z" />
<glyph unicode="&#x160;" glyph-name="Scaron" horiz-adv-x="548" d="M51 67Q43 75 42 79T46 95L93 178Q98 187 110 188T127 184L134 180Q141 175 150 169T174 156T203 143T235 133T269 129Q299 129 318 146T338 189Q338 249 235 290Q41 367 41 511Q41 592 102
651T272 710Q384 710 486 635Q494 630 495 619T492 603L441 526Q435 517 425 513T407 513Q406 513 395 521T370 536T339 553T301 567T264 573Q237 573 219 558T201 522Q201 494 226 472T310 425Q512 345 512 197Q512 115 447 53T276 -10Q191 -10 135 15T51 67ZM262
762L124 866Q113 875 118 885L152 931Q161 943 173 936L272 878L372 936Q385 943 394 932L427 885Q433 876 421 866L286 762Q275 754 262 762Z" />
<glyph unicode="&#x161;" glyph-name="scaron" horiz-adv-x="371" d="M40 23Q27 34 33 44L68 113Q70 118 76 121T89 121Q136 95 179 95Q198 95 198 113Q198 135 141 155Q29 194 29 289Q29 342 68 376T185 410Q269 410 318 379Q336 367 328 354L291 286Q285 274
270 280Q224 303 185 303Q163 303 163 289Q163 273 208 257Q277 233 311 203T345 117Q345 62 301 26T176 -10Q81 -10 40 23ZM175 512L37 616Q26 625 31 635L65 681Q74 693 86 686L185 628L285 686Q298 693 307 682L340 635Q346 626 334 616L199 512Q188 504 175
512Z" />
<glyph unicode="&#x162;" glyph-name="Tcommaaccent" horiz-adv-x="508" d="M175 19V553H32Q24 553 19 558T13 572V681Q13 689 18 694T32 700H476Q484 700 489 695T495 681V572Q495 564 490 559T476 553H333V19Q333 12 328 6T314 0H194Q186 0 181 6T175 19ZM243
-90Q278 -90 306 -118T334 -206Q334 -308 241 -385Q229 -394 219 -383L204 -368Q193 -356 205 -346Q275 -295 276 -226Q259 -233 236 -233Q206 -233 185 -213T164 -162T186 -111T243 -90Z" />
<glyph unicode="&#x163;" glyph-name="tcommaaccent" horiz-adv-x="344" d="M70 129V273H44Q37 273 32 278T26 292V381Q26 389 31 394T44 400H70V511Q70 518 76 524T89 530H196Q203 530 208 525T214 511V400H288Q307 400 307 381V292Q307 284 302 279T288 273H214V148Q214
124 241 124Q245 124 280 131Q298 134 302 118L324 35Q328 17 311 12Q240 -10 190 -10Q133 -10 102 25T70 129ZM184 -90Q219 -90 247 -118T275 -206Q275 -308 182 -385Q170 -394 160 -383L145 -368Q134 -356 146 -346Q216 -295 217 -226Q200 -233 177 -233Q147
-233 126 -213T105 -162T127 -111T184 -90Z" />
<glyph unicode="&#x164;" glyph-name="Tcaron" horiz-adv-x="510" d="M176 19V553H33Q25 553 20 558T14 572V681Q14 689 19 694T33 700H477Q485 700 490 695T496 681V572Q496 564 491 559T477 553H334V19Q334 12 328 6T315 0H195Q188 0 182 6T176 19ZM244 762L106
866Q95 875 100 885L134 931Q143 943 155 936L254 878L354 936Q367 943 376 932L409 885Q415 876 403 866L268 762Q257 754 244 762Z" />
<glyph unicode="&#x165;" glyph-name="tcaron" horiz-adv-x="344" d="M70 129V273H44Q37 273 32 278T26 292V381Q26 389 31 394T44 400H70V511Q70 518 76 524T89 530H196Q203 530 208 525T214 511V400H288Q307 400 307 381V292Q307 284 302 279T288 273H214V148Q214
124 241 124Q245 124 280 131Q298 134 302 118L324 35Q328 17 311 12Q240 -10 190 -10Q133 -10 102 25T70 129ZM393 417L378 432Q367 444 379 454Q449 505 450 574Q433 567 410 567Q380 567 359 587T338 638T360 689T417 710Q452 710 480 682T508 594Q508 492 415
415Q403 406 393 417Z" />
<glyph unicode="&#x166;" glyph-name="Tbar" horiz-adv-x="510" d="M176 19V289H94Q87 289 82 294T76 308V325Q76 333 81 338T94 344H176V553H33Q25 553 20 558T14 572V681Q14 689 19 694T33 700H477Q485 700 490 695T496 681V572Q496 564 491 559T477 553H334V344H421Q429
344 434 339T440 325V307Q440 299 435 294T421 289H334V19Q334 12 328 6T315 0H195Q188 0 182 6T176 19Z" />
<glyph unicode="&#x167;" glyph-name="tbar" horiz-adv-x="344" d="M70 129V168H44Q37 168 32 173T26 187V204Q26 212 31 217T44 223H70V273H44Q37 273 32 278T26 292V381Q26 389 31 394T44 400H70V511Q70 518 76 524T89 530H196Q203 530 208 525T214 511V400H288Q307
400 307 381V292Q307 284 302 279T288 273H214V223H288Q296 223 301 218T307 204V186Q307 178 302 173T288 168H214V151Q214 127 243 127Q260 127 280 131Q298 134 302 118L324 35Q326 17 311 12Q240 -10 190 -10Q133 -10 102 25T70 129Z" />
<glyph unicode="&#x168;" glyph-name="Utilde" horiz-adv-x="722" d="M76 268V681Q76 688 82 694T95 700H218Q226 700 231 695T237 681V276Q237 223 272 187T360 150Q414 150 449 186T485 276V681Q485 689 490 694T504 700H627Q634 700 640 694T646 681V268Q646
154 562 72T360 -10Q243 -10 160 72T76 268ZM244 785L209 813Q197 822 203 836Q211 850 223 866T260 901T310 920Q335 920 367 897T418 873T456 904Q466 920 481 906L515 880Q529 870 516 851Q470 773 416 773Q388 773 355 797T306 821Q298 821 291 816T276 799T266
786Q257 777 244 785Z" />
<glyph unicode="&#x169;" glyph-name="utilde" horiz-adv-x="510" d="M45 200V381Q45 389 50 394T64 400H171Q179 400 184 395T190 381V196Q190 164 207 142T254 119Q282 119 298 140T314 190V381Q314 400 335 400H437Q445 400 450 395T456 381V19Q456 12 450
6T437 0H390Q377 0 371 14L356 51Q335 30 325 22T286 2T221 -10Q136 -10 91 49T45 200ZM136 555L101 583Q89 592 95 606Q103 620 115 636T152 671T202 690Q227 690 259 667T310 643T348 674Q358 690 373 676L407 650Q421 640 408 621Q362 543 308 543Q280 543 247
567T198 591Q190 591 183 586T168 569T158 556Q149 547 136 555Z" />
<glyph unicode="&#x16a;" glyph-name="Umacron" horiz-adv-x="722" d="M76 268V681Q76 688 82 694T95 700H218Q226 700 231 695T237 681V276Q237 223 272 187T360 150Q414 150 449 186T485 276V681Q485 689 490 694T504 700H627Q634 700 640 694T646 681V268Q646
154 562 72T360 -10Q243 -10 160 72T76 268ZM233 801Q225 801 220 806T214 819V860Q214 879 233 879H489Q508 879 508 860V819Q508 811 503 806T489 801H233Z" />
<glyph unicode="&#x16b;" glyph-name="umacron" horiz-adv-x="510" d="M45 200V381Q45 389 50 394T64 400H171Q179 400 184 395T190 381V196Q190 164 207 142T254 119Q282 119 298 140T314 190V381Q314 400 335 400H437Q445 400 450 395T456 381V19Q456 12 450
6T437 0H390Q377 0 371 14L356 51Q335 30 325 22T286 2T221 -10Q136 -10 91 49T45 200ZM125 563Q117 563 112 568T106 581V622Q106 641 125 641H381Q400 641 400 622V581Q400 573 395 568T381 563H125Z" />
<glyph unicode="&#x16c;" glyph-name="Ubreve" horiz-adv-x="722" d="M76 268V681Q76 688 82 694T95 700H218Q226 700 231 695T237 681V276Q237 223 272 187T360 150Q414 150 449 186T485 276V681Q485 689 490 694T504 700H627Q634 700 640 694T646 681V268Q646
154 562 72T360 -10Q243 -10 160 72T76 268ZM361 763Q306 763 267 797T219 883Q217 892 222 898T238 905H283Q296 905 300 893Q307 872 323 859T361 845Q380 845 396 859T420 893Q423 905 437 905H484Q493 905 498 899T503 883Q495 831 455 797T361 763Z" />
<glyph unicode="&#x16d;" glyph-name="ubreve" horiz-adv-x="510" d="M45 200V381Q45 389 50 394T64 400H171Q179 400 184 395T190 381V196Q190 164 207 142T254 119Q282 119 298 140T314 190V381Q314 400 335 400H437Q445 400 450 395T456 381V19Q456 12 450
6T437 0H390Q377 0 371 14L356 51Q335 30 325 22T286 2T221 -10Q136 -10 91 49T45 200ZM255 527Q200 527 161 561T113 647Q111 656 116 662T132 669H177Q190 669 194 657Q201 636 217 623T255 609Q274 609 290 623T314 657Q317 669 331 669H378Q387 669 392 663T397
647Q389 595 349 561T255 527Z" />
<glyph unicode="&#x16e;" glyph-name="Uring" horiz-adv-x="722" d="M76 268V681Q76 688 82 694T95 700H218Q226 700 231 695T237 681V276Q237 223 272 187T360 150Q414 150 449 186T485 276V681Q485 689 490 694T504 700H627Q634 700 640 694T646 681V268Q646
154 562 72T360 -10Q243 -10 160 72T76 268ZM361 752Q313 752 280 785T246 867T279 948T361 982Q408 982 442 949T476 867T442 786T361 752ZM344 823T361 823T391 836T404 867T391 897T361 910T331 897T317 867T330 837Z" />
<glyph unicode="&#x16f;" glyph-name="uring" horiz-adv-x="510" d="M45 200V381Q45 389 50 394T64 400H171Q179 400 184 395T190 381V196Q190 164 207 142T254 119Q282 119 298 140T314 190V381Q314 400 335 400H437Q445 400 450 395T456 381V19Q456 12 450 6T437
0H390Q377 0 371 14L356 51Q335 30 325 22T286 2T221 -10Q136 -10 91 49T45 200ZM255 480Q207 480 174 513T140 595T173 676T255 710Q302 710 336 677T370 595T336 514T255 480ZM238 551T255 551T285 564T298 595T285 625T255 638T225 625T211 595T224 565Z" />
<glyph unicode="&#x170;" glyph-name="Uhungarumlaut" horiz-adv-x="722" d="M76 268V681Q76 688 82 694T95 700H218Q226 700 231 695T237 681V276Q237 223 272 187T360 150Q414 150 449 186T485 276V681Q485 689 490 694T504 700H627Q634 700 640 694T646 681V268Q646
154 562 72T360 -10Q243 -10 160 72T76 268ZM422 768Q414 768 408 774T403 787L433 928Q439 947 452 947H546Q560 947 565 939T564 922L486 783Q475 768 468 768H422ZM256 768Q248 768 242 774T237 787L267 928Q273 947 286 947H380Q394 947 399 940T398 922L320
783Q312 768 302 768H256Z" />
<glyph unicode="&#x171;" glyph-name="uhungarumlaut" horiz-adv-x="510" d="M45 200V381Q45 389 50 394T64 400H171Q179 400 184 395T190 381V196Q190 164 207 142T254 119Q282 119 298 140T314 190V381Q314 400 335 400H437Q445 400 450 395T456 381V19Q456
12 450 6T437 0H390Q377 0 371 14L356 51Q335 30 325 22T286 2T221 -10Q136 -10 91 49T45 200ZM322 521Q314 521 308 527T303 540L333 681Q339 700 352 700H446Q460 700 465 692T464 675L386 536Q375 521 368 521H322ZM156 521Q148 521 142 527T137 540L167 681Q173
700 186 700H280Q294 700 299 693T298 675L220 536Q212 521 202 521H156Z" />
<glyph unicode="&#x172;" glyph-name="Uogonek" horiz-adv-x="727" d="M79 268V681Q79 688 84 694T98 700H221Q229 700 234 695T240 681V276Q240 223 275 187T363 150Q417 150 452 186T488 276V681Q488 689 493 694T507 700H630Q638 700 643 694T649 681V268Q649
161 574 82T390 -8Q353 -52 353 -95Q353 -124 370 -143T423 -162Q431 -162 464 -156Q474 -155 480 -160T486 -175V-208Q486 -223 471 -227Q436 -235 408 -235Q348 -235 309 -206T270 -121Q270 -56 319 -7Q216 9 148 87T79 268Z" />
<glyph unicode="&#x173;" glyph-name="uogonek" horiz-adv-x="510" d="M45 200V381Q45 389 50 394T64 400H171Q179 400 184 395T190 381V200Q190 168 207 148T254 127Q282 127 298 147T314 194V381Q314 400 335 400H437Q445 400 450 395T456 381V19Q456 12 450
6T437 0H428Q383 -45 383 -95Q383 -124 400 -143T453 -162Q461 -162 494 -156Q504 -155 510 -160T516 -175V-208Q516 -223 501 -227Q466 -235 438 -235Q378 -235 339 -206T300 -121Q300 -86 317 -53T348 -6T371 13V14L356 51Q335 30 325 22T286 2T221 -10Q136 -10
91 49T45 200Z" />
<glyph unicode="&#x174;" glyph-name="Wcircumflex" horiz-adv-x="896" d="M213 4L24 676Q21 686 26 693T42 700H159Q173 700 177 686L263 347H267L422 699Q428 710 439 710H457Q470 710 474 699L629 347H633L719 686Q723 700 737 700H854Q865 700 870 693T872
676L683 4Q680 -10 665 -10H649Q638 -10 632 1L449 410H446L264 1Q258 -10 247 -10H231Q216 -10 213 4ZM347 762Q334 755 325 766L292 813Q286 822 298 832L433 936Q444 944 457 936L595 832Q606 823 601 813L567 767Q558 755 546 762L447 820L347 762Z" />
<glyph unicode="&#x175;" glyph-name="wcircumflex" horiz-adv-x="619" d="M143 2L10 375Q6 385 11 392T28 400H123Q138 400 141 388L193 251H194L289 402Q294 410 305 410H315Q326 410 330 402L426 251H427L478 388Q483 400 498 400H591Q602 400 607 393T609
375L476 2Q473 -10 458 -10H454Q442 -10 438 -2L309 198H308L181 -2Q175 -10 165 -10H160Q145 -10 143 2ZM210 512Q197 505 188 516L155 563Q149 572 161 582L296 686Q307 694 320 686L458 582Q469 573 464 563L430 517Q421 505 409 512L310 570L210 512Z" />
<glyph unicode="&#x176;" glyph-name="Ycircumflex" horiz-adv-x="590" d="M215 19V337L-6 671Q-12 681 -7 690T10 700H140Q149 700 156 691L295 486L434 691Q441 700 450 700H580Q592 700 597 691T596 671L372 338V19Q372 12 366 6T353 0H234Q226 0 221 5T215
19ZM196 762Q183 755 174 766L141 813Q135 822 147 832L282 936Q293 944 306 936L444 832Q455 823 450 813L416 767Q407 755 395 762L296 820L196 762Z" />
<glyph unicode="&#x177;" glyph-name="ycircumflex" horiz-adv-x="465" d="M156 41L6 374Q1 384 6 392T23 400H137Q148 400 154 389L231 203H233L312 389Q316 400 329 400H442Q453 400 458 392T459 374L153 -288Q147 -300 136 -300H24Q13 -300 8 -292T7 -273L156
41ZM133 512Q120 505 111 516L78 563Q72 572 84 582L219 686Q230 694 243 686L381 582Q392 573 387 563L353 517Q344 505 332 512L233 570L133 512Z" />
<glyph unicode="&#x178;" glyph-name="Ydieresis" horiz-adv-x="590" d="M215 19V337L-6 671Q-12 681 -7 690T10 700H140Q149 700 156 691L295 486L434 691Q441 700 450 700H580Q592 700 597 691T596 671L372 338V19Q372 12 366 6T353 0H234Q226 0 221 5T215 19ZM456
768T427 768T378 789T357 839T377 888T427 909T477 889T498 839T477 789ZM191 768T162 768T113 789T92 839T112 888T162 909T212 889T233 839T212 789Z" />
<glyph unicode="&#x179;" glyph-name="Zacute" horiz-adv-x="542" d="M23 19V37L289 551V553H71Q64 553 58 558T52 572V681Q52 688 58 694T71 700H496Q504 700 509 694T515 681V668L258 149V147H476Q484 147 489 142T495 128V19Q495 11 490 6T476 0H42Q34 0 29
6T23 19ZM208 762Q191 751 181 771L160 813Q155 823 166 832L336 936Q340 940 349 940T362 933L396 874Q406 854 390 844L208 762Z" />
<glyph unicode="&#x17a;" glyph-name="zacute" horiz-adv-x="369" d="M28 19V29L145 269V271H56Q49 271 44 276T38 290V381Q38 389 43 394T56 400H327Q338 400 343 392T344 373L218 130V128H307Q326 128 326 109V19Q326 11 321 6T307 0H47Q40 0 34 6T28 19ZM125
512Q108 501 98 521L77 563Q72 573 83 582L253 686Q257 690 266 690T279 683L313 624Q324 604 307 594L125 512Z" />
<glyph unicode="&#x17b;" glyph-name="Zdotaccent" horiz-adv-x="542" d="M23 19V37L289 551V553H71Q64 553 58 558T52 572V681Q52 688 58 694T71 700H496Q504 700 509 694T515 681V668L258 149V147H476Q484 147 489 142T495 128V19Q495 11 490 6T476 0H42Q34
0 29 6T23 19ZM312 774T279 774T223 797T200 853T223 909T279 933T335 910T359 853T336 797Z" />
<glyph unicode="&#x17c;" glyph-name="zdotaccent" horiz-adv-x="369" d="M28 19V29L145 269V271H56Q49 271 44 276T38 290V381Q38 389 43 394T56 400H327Q338 400 343 392T344 373L218 130V128H307Q326 128 326 109V19Q326 11 321 6T307 0H47Q40 0 34 6T28 19ZM228
521T195 521T139 544T116 600T139 656T195 680T251 657T275 600T252 544Z" />
<glyph unicode="&#x17d;" glyph-name="Zcaron" horiz-adv-x="542" d="M23 19V37L289 551V553H71Q64 553 58 558T52 572V681Q52 688 58 694T71 700H496Q504 700 509 694T515 681V668L258 149V147H476Q484 147 489 142T495 128V19Q495 11 490 6T476 0H42Q34 0 29
6T23 19ZM268 762L130 866Q119 875 124 885L158 931Q167 943 179 936L278 878L378 936Q391 943 400 932L433 885Q439 876 427 866L292 762Q281 754 268 762Z" />
<glyph unicode="&#x17e;" glyph-name="zcaron" horiz-adv-x="369" d="M28 19V29L145 269V271H56Q49 271 44 276T38 290V381Q38 389 43 394T56 400H327Q338 400 343 392T344 373L218 130V128H307Q326 128 326 109V19Q326 11 321 6T307 0H47Q40 0 34 6T28 19ZM185
512L47 616Q36 625 41 635L75 681Q84 693 96 686L195 628L295 686Q308 693 317 682L350 635Q356 626 344 616L209 512Q198 504 185 512Z" />
<glyph unicode="&#x192;" glyph-name="florin" horiz-adv-x="398" d="M117 -92V273H36Q28 273 23 278T17 292V381Q17 400 36 400H117V493Q117 594 175 652T331 710Q395 710 442 672Q454 660 446 647L398 568Q389 554 375 561Q350 572 333 572Q305 572 288 552T270
492V400H362Q381 400 381 381V292Q381 284 376 279T362 273H270V-93Q270 -193 210 -251T56 -310Q-8 -310 -55 -272Q-67 -260 -59 -247L-11 -168Q-2 -154 12 -161Q37 -172 54 -172Q82 -172 99 -152T117 -92Z" />
<glyph unicode="&#x1fa;" glyph-name="Aringacute" horiz-adv-x="662" d="M260 875Q243 864 233 884L212 926Q207 936 218 945L388 1049Q392 1053 401 1053T414 1046L448 987Q458 967 442 957L260 875ZM13 0Q2 0 -3 8T-4 26L287 652Q255 665 236 694T216 759Q216
807 249 840T331 874Q378 874 412 841T446 759Q446 723 426 694T374 652L666 26Q671 16 666 8T649 0H538Q515 0 503 25L467 104H195L159 24Q149 0 123 0H13ZM314 715T331 715T361 728T374 759T361 789T331 802T301 789T287 759T300 729ZM255 240H407L331 405H330L255
240Z" />
<glyph unicode="&#x1fb;" glyph-name="aringacute" horiz-adv-x="429" d="M27 63T27 122T67 218T174 256Q194 256 213 252T242 244L251 240Q251 272 241 285T197 299Q146 299 97 284Q77 277 73 305L64 368Q60 389 79 395Q89 398 133 404T212 410Q304 410 342 370T381
240V19Q381 12 376 6T362 0H318Q306 0 300 13L286 40Q231 -10 165 -10Q105 -10 66 26ZM157 132Q157 114 169 101T200 88T231 101T244 132Q243 149 231 161T200 174T170 162T157 132ZM219 429Q171 429 138 462T104 544T137 625T219 659Q266 659 300 626T334 544T300
463T219 429ZM202 500T219 500T249 513T262 544T249 574T219 587T189 574T175 544T188 514ZM148 661Q131 650 121 670L100 712Q95 722 106 731L276 835Q280 839 289 839T302 832L336 773Q346 753 330 743L148 661Z" />
<glyph unicode="&#x1fc;" glyph-name="AEacute" horiz-adv-x="898" d="M-3 0Q-14 0 -17 8T-15 26L386 669Q401 693 411 697Q418 700 430 700H831Q839 700 844 695T850 681V572Q850 564 845 559T831 553H554V429H782Q790 429 795 424T801 410V301Q801 293 796 288T782
282H554V147H831Q839 147 844 142T850 128V19Q850 11 845 6T831 0H417Q409 0 404 5T398 19V104H214L161 17Q151 0 132 0H-3ZM288 240H398V417L288 240ZM536 763Q519 752 509 772L488 814Q483 824 494 833L664 937Q668 941 677 941T690 934L724 875Q734 855 718
845L536 763Z" />
<glyph unicode="&#x1fd;" glyph-name="aeacute" horiz-adv-x="661" d="M26 123Q26 180 66 218T175 256Q193 256 212 252T241 244L251 240Q252 274 240 288T197 302Q159 302 97 290Q78 288 74 306L63 375Q62 382 67 388T79 395Q158 410 212 410Q300 410 338 375Q390
410 453 410Q531 410 587 357T643 222Q643 178 622 178H382Q385 153 404 132T459 111Q495 111 527 135Q543 146 552 135L604 76Q618 62 605 49Q546 -10 455 -10Q362 -10 305 55Q296 43 281 31T234 4T165 -10Q102 -10 64 27T26 123ZM395 256H502Q501 275 485 289T449
303T414 290T395 256ZM157 132Q157 114 169 101T200 88T231 101T244 132Q243 149 231 161T200 174T170 162T157 132ZM309 512Q292 501 282 521L261 563Q256 573 267 582L437 686Q441 690 450 690T463 683L497 624Q508 604 491 594L309 512Z" />
<glyph unicode="&#x1fe;" glyph-name="Oslashacute" horiz-adv-x="796" d="M57 23Q44 36 56 49L123 115Q38 216 38 349Q38 499 142 604T397 710Q530 710 632 623L702 692Q714 706 728 692L740 680Q754 668 740 654L670 584Q757 482 757 349Q757 199 652 95T397
-10Q261 -10 162 76L95 10Q82 -2 69 11L57 23ZM238 230L518 509Q462 550 397 550Q315 550 257 491T198 349Q198 283 238 230ZM277 191Q329 150 397 150Q479 150 538 208T597 349Q597 418 556 470L277 191ZM326 762Q309 751 299 771L278 813Q273 823 284 832L454
936Q458 940 467 940T480 933L514 874Q524 854 508 844L326 762Z" />
<glyph unicode="&#x1ff;" glyph-name="oslashacute" horiz-adv-x="470" d="M44 21Q39 26 39 34T43 47L68 72Q25 128 25 202Q25 287 86 348T233 410Q302 410 359 366L387 394Q399 408 413 394L425 382Q439 370 425 356L397 328Q441 271 441 202Q441 116 380 53T233
-10Q163 -10 107 33L82 8Q70 -4 56 9L44 21ZM161 168L267 274Q253 281 233 281Q200 281 177 258T154 202Q154 182 161 168ZM199 126Q213 119 233 119Q266 119 289 143T312 202Q312 218 305 235L199 126ZM160 512Q143 501 133 521L112 563Q107 573 118 582L288 686Q292
690 301 690T314 683L348 624Q358 604 342 594L160 512Z" />
<glyph unicode="&#x218;" glyph-name="Scommaaccent" horiz-adv-x="548" d="M51 67Q43 75 42 79T46 95L93 178Q98 187 110 188T127 184L134 180Q141 175 150 169T174 156T203 143T235 133T269 129Q299 129 318 146T338 189Q338 249 235 290Q41 367 41 511Q41 592
102 651T272 710Q384 710 486 635Q494 630 495 619T492 603L441 526Q435 517 425 513T407 513Q406 513 395 521T370 536T339 553T301 567T264 573Q237 573 219 558T201 522Q201 494 226 472T310 425Q512 345 512 197Q512 115 447 53T276 -10Q191 -10 135 15T51
67ZM285 -90Q320 -90 348 -118T376 -206Q376 -308 283 -385Q271 -394 261 -383L246 -368Q235 -356 247 -346Q317 -295 318 -226Q301 -233 278 -233Q248 -233 227 -213T206 -162T228 -111T285 -90Z" />
<glyph unicode="&#x219;" glyph-name="scommaaccent" horiz-adv-x="370" d="M40 23Q27 34 33 44L68 113Q70 118 76 121T89 121Q136 95 179 95Q198 95 198 113Q198 135 141 155Q29 194 29 289Q29 342 68 376T185 410Q269 410 318 379Q336 367 328 354L291 286Q285
274 270 280Q224 303 185 303Q163 303 163 289Q163 273 208 257Q277 233 311 203T345 117Q345 62 301 26T176 -10Q81 -10 40 23ZM195 -90Q230 -90 258 -118T286 -206Q286 -308 193 -385Q181 -394 171 -383L156 -368Q145 -356 157 -346Q227 -295 228 -226Q211 -233
188 -233Q158 -233 137 -213T116 -162T138 -111T195 -90Z" />
<glyph unicode="&#x21a;" glyph-name="uni021A" horiz-adv-x="508" d="M175 19V553H32Q24 553 19 558T13 572V681Q13 689 18 694T32 700H476Q484 700 489 695T495 681V572Q495 564 490 559T476 553H333V19Q333 12 328 6T314 0H194Q186 0 181 6T175 19ZM243 -90Q278
-90 306 -118T334 -206Q334 -308 241 -385Q229 -394 219 -383L204 -368Q193 -356 205 -346Q275 -295 276 -226Q259 -233 236 -233Q206 -233 185 -213T164 -162T186 -111T243 -90Z" />
<glyph unicode="&#x21b;" glyph-name="uni021B" horiz-adv-x="344" d="M70 129V273H44Q37 273 32 278T26 292V381Q26 389 31 394T44 400H70V511Q70 518 76 524T89 530H196Q203 530 208 525T214 511V400H288Q307 400 307 381V292Q307 284 302 279T288 273H214V148Q214
124 241 124Q245 124 280 131Q298 134 302 118L324 35Q328 17 311 12Q240 -10 190 -10Q133 -10 102 25T70 129ZM184 -90Q219 -90 247 -118T275 -206Q275 -308 182 -385Q170 -394 160 -383L145 -368Q134 -356 146 -346Q216 -295 217 -226Q200 -233 177 -233Q147
-233 126 -213T105 -162T127 -111T184 -90Z" />
<glyph unicode="&#x237;" glyph-name="dotlessj" horiz-adv-x="257" d="M54 -92V380Q54 388 59 393T73 399H184Q192 399 197 394T203 380V-92Q203 -194 147 -252T0 -310Q-36 -310 -72 -298T-122 -272Q-134 -262 -126 -249L-84 -166Q-82 -161 -75 -159T-61 -159Q-31
-175 -9 -175Q54 -175 54 -92Z" />
<glyph unicode="&#x2c6;" glyph-name="circumflex" horiz-adv-x="373" d="M87 512Q74 505 65 516L32 563Q26 572 38 582L173 686Q184 694 197 686L335 582Q346 573 341 563L307 517Q298 505 286 512L187 570L87 512Z" />
<glyph unicode="&#x2c7;" glyph-name="caron" horiz-adv-x="373" d="M175 512L37 616Q26 625 31 635L65 681Q74 693 86 686L185 628L285 686Q298 693 307 682L340 635Q346 626 334 616L199 512Q188 504 175 512Z" />
<glyph unicode="&#x2c9;" glyph-name="uni02C9" horiz-adv-x="414" d="M79 563Q71 563 66 568T60 581V622Q60 641 79 641H335Q354 641 354 622V581Q354 573 349 568T335 563H79Z" />
<glyph unicode="&#x2d8;" glyph-name="breve" horiz-adv-x="346" d="M173 527Q118 527 79 561T31 647Q29 656 34 662T50 669H95Q108 669 112 657Q119 636 135 623T173 609Q192 609 208 623T232 657Q235 669 249 669H296Q305 669 310 663T315 647Q307 595 267 561T173
527Z" />
<glyph unicode="&#x2d9;" glyph-name="dotaccent" horiz-adv-x="219" d="M142 521T109 521T53 544T30 600T53 656T109 680T165 657T189 600T166 544Z" />
<glyph unicode="&#x2da;" glyph-name="ring" horiz-adv-x="290" d="M145 480Q97 480 64 513T30 595T63 676T145 710Q192 710 226 677T260 595T226 514T145 480ZM128 551T145 551T175 564T188 595T175 625T145 638T115 625T101 595T114 565Z" />
<glyph unicode="&#x2db;" glyph-name="ogonek" horiz-adv-x="276" d="M104 15H175Q168 9 158 0T131 -39T114 -95Q114 -124 131 -143T184 -162Q192 -162 225 -156Q235 -155 241 -160T247 -175V-208Q247 -223 232 -227Q197 -235 169 -235Q108 -235 70 -206T31 -121Q31
-84 49 -50T86 0L104 15Z" />
<glyph unicode="&#x2dc;" glyph-name="tilde" horiz-adv-x="380" d="M73 555L38 583Q26 592 32 606Q40 620 52 636T89 671T139 690Q164 690 196 667T247 643T285 674Q295 690 310 676L344 650Q358 640 345 621Q299 543 245 543Q217 543 184 567T135 591Q127 591
120 586T105 569T95 556Q86 547 73 555Z" />
<glyph unicode="&#x2dd;" glyph-name="hungarumlaut" horiz-adv-x="392" d="M216 521Q208 521 202 527T197 540L227 681Q233 700 246 700H340Q354 700 359 692T358 675L280 536Q269 521 262 521H216ZM50 521Q42 521 36 527T31 540L61 681Q67 700 80 700H174Q188
700 193 693T192 675L114 536Q106 521 96 521H50Z" />
<glyph unicode="&#x394;" glyph-name="uni0394" horiz-adv-x="710" d="M29 45L334 699Q340 710 351 710H361Q372 710 378 699L682 43Q690 26 685 13T662 0H58Q37 0 29 10T29 45ZM237 144L475 145L354 405H353L237 144Z" />
<glyph unicode="&#x3a9;" glyph-name="uni03A9" horiz-adv-x="781" d="M26 19V128Q26 136 31 141T45 147H122Q83 175 57 237T30 358Q30 507 134 608T390 710T645 609T750 358Q750 300 724 238T658 147H735Q743 147 748 142T754 128V19Q754 11 749 6T735 0H456Q448
0 443 5T437 19V84Q437 99 441 108T448 120T465 130Q525 166 557 226T590 349Q590 432 531 491T390 550T249 491T190 349Q190 286 222 226T315 130Q328 123 331 120T339 108T343 84V19Q343 11 338 6T324 0H45Q37 0 32 5T26 19Z" />
<glyph unicode="&#x3bc;" glyph-name="uni03BC" horiz-adv-x="519" d="M199 -7V-281Q199 -288 194 -294T180 -300H73Q66 -300 60 -294T54 -281V381Q54 389 59 394T73 400H180Q188 400 193 395T199 381V194Q201 165 218 146T263 127T307 147T323 194V381Q323 400
344 400H446Q454 400 459 395T465 381V19Q465 12 460 6T446 0H399Q386 0 380 14L365 51Q344 30 334 22T295 2T230 -10Q214 -10 199 -7Z" />
<glyph unicode="&#x3c0;" glyph-name="pi" horiz-adv-x="703" d="M114 19V273H49Q41 273 36 278T30 292V381Q30 400 49 400H626Q645 400 645 381V292Q645 284 640 279T626 273H554V19Q554 12 548 6T535 0H420Q412 0 407 6T401 19V273H267V19Q267 12 262 6T248
0H133Q126 0 120 6T114 19Z" />
<glyph unicode="&#x1e80;" glyph-name="Wgrave" horiz-adv-x="896" d="M213 4L24 676Q21 686 26 693T42 700H159Q173 700 177 686L263 347H267L422 699Q428 710 439 710H457Q470 710 474 699L629 347H633L719 686Q723 700 737 700H854Q865 700 870 693T872 676L683
4Q680 -10 665 -10H649Q638 -10 632 1L449 410H446L264 1Q258 -10 247 -10H231Q216 -10 213 4ZM518 762L336 844Q320 854 330 874L364 933Q367 939 376 939T390 936L560 832Q571 823 566 813L545 771Q535 751 518 762Z" />
<glyph unicode="&#x1e81;" glyph-name="wgrave" horiz-adv-x="619" d="M143 2L10 375Q6 385 11 392T28 400H123Q138 400 141 388L193 251H194L289 402Q294 410 305 410H315Q326 410 330 402L426 251H427L478 388Q483 400 498 400H591Q602 400 607 393T609 375L476
2Q473 -10 458 -10H454Q442 -10 438 -2L309 198H308L181 -2Q175 -10 165 -10H160Q145 -10 143 2ZM390 512L208 594Q192 604 202 624L236 683Q239 689 248 689T262 686L432 582Q443 573 438 563L417 521Q407 501 390 512Z" />
<glyph unicode="&#x1e82;" glyph-name="Wacute" horiz-adv-x="896" d="M213 4L24 676Q21 686 26 693T42 700H159Q173 700 177 686L263 347H267L422 699Q428 710 439 710H457Q470 710 474 699L629 347H633L719 686Q723 700 737 700H854Q865 700 870 693T872 676L683
4Q680 -10 665 -10H649Q638 -10 632 1L449 410H446L264 1Q258 -10 247 -10H231Q216 -10 213 4ZM375 762Q358 751 348 771L327 813Q322 823 333 832L503 936Q507 940 516 940T529 933L563 874Q574 854 557 844L375 762Z" />
<glyph unicode="&#x1e83;" glyph-name="wacute" horiz-adv-x="619" d="M143 2L10 375Q6 385 11 392T28 400H123Q138 400 141 388L193 251H194L289 402Q294 410 305 410H315Q326 410 330 402L426 251H427L478 388Q483 400 498 400H591Q602 400 607 393T609 375L476
2Q473 -10 458 -10H454Q442 -10 438 -2L309 198H308L181 -2Q175 -10 165 -10H160Q145 -10 143 2ZM238 512Q221 501 211 521L190 563Q185 573 196 582L366 686Q370 690 379 690T392 683L426 624Q436 604 420 594L238 512Z" />
<glyph unicode="&#x1e84;" glyph-name="Wdieresis" horiz-adv-x="896" d="M213 4L24 676Q21 686 26 693T42 700H159Q173 700 177 686L263 347H267L422 699Q428 710 439 710H457Q470 710 474 699L629 347H633L719 686Q723 700 737 700H854Q865 700 870 693T872
676L683 4Q680 -10 665 -10H649Q638 -10 632 1L449 410H446L264 1Q258 -10 247 -10H231Q216 -10 213 4ZM607 768T578 768T529 789T508 839T528 888T578 909T628 889T649 839T628 789ZM342 768T313 768T264 789T243 839T263 888T313 909T363 889T384 839T363 789Z"
/>
<glyph unicode="&#x1e85;" glyph-name="wdieresis" horiz-adv-x="619" d="M143 2L10 375Q6 385 11 392T28 400H123Q138 400 141 388L193 251H194L289 402Q294 410 305 410H315Q326 410 330 402L426 251H427L478 388Q483 400 498 400H591Q602 400 607 393T609 375L476
2Q473 -10 458 -10H454Q442 -10 438 -2L309 198H308L181 -2Q175 -10 165 -10H160Q145 -10 143 2ZM440 535T411 535T362 556T341 606T361 655T411 676T461 656T482 606T461 556ZM235 535T206 535T157 556T136 606T156 655T206 676T256 656T277 606T256 556Z" />
<glyph unicode="&#x1ef2;" glyph-name="Ygrave" horiz-adv-x="590" d="M215 19V337L-6 671Q-12 681 -7 690T10 700H140Q149 700 156 691L295 486L434 691Q441 700 450 700H580Q592 700 597 691T596 671L372 338V19Q372 12 366 6T353 0H234Q226 0 221 5T215 19ZM366
762L184 844Q168 854 178 874L212 933Q215 939 224 939T238 936L408 832Q419 823 414 813L393 771Q383 751 366 762Z" />
<glyph unicode="&#x1ef3;" glyph-name="ygrave" horiz-adv-x="465" d="M156 41L6 374Q1 384 6 392T23 400H137Q148 400 154 389L231 203H233L312 389Q316 400 329 400H442Q453 400 458 392T459 374L153 -288Q147 -300 136 -300H24Q13 -300 8 -292T7 -273L156 41ZM304
512L122 594Q106 604 116 624L150 683Q153 689 162 689T176 686L346 582Q357 573 352 563L331 521Q321 501 304 512Z" />
<glyph unicode="&#x2013;" glyph-name="endash" horiz-adv-x="535" d="M63 203Q55 203 50 208T44 221V272Q44 291 63 291H472Q491 291 491 272V221Q491 213 486 208T472 203H63Z" />
<glyph unicode="&#x2014;" glyph-name="emdash" horiz-adv-x="755" d="M63 203Q55 203 50 208T44 221V272Q44 291 63 291H692Q711 291 711 272V221Q711 213 706 208T692 203H63Z" />
<glyph unicode="&#x2018;" glyph-name="quoteleft" horiz-adv-x="204" d="M110 408Q75 408 47 436T19 524Q19 626 112 703Q124 712 134 701L149 686Q160 674 148 664Q78 613 77 544Q94 551 117 551Q147 551 168 531T189 480T167 429T110 408Z" />
<glyph unicode="&#x2019;" glyph-name="quoteright" horiz-adv-x="200" d="M68 417L53 432Q42 444 54 454Q124 505 125 574Q108 567 85 567Q55 567 34 587T13 638T35 689T92 710Q127 710 155 682T183 594Q183 492 90 415Q78 406 68 417Z" />
<glyph unicode="&#x201a;" glyph-name="quotesinglbase" horiz-adv-x="228" d="M30 31T30 61T52 112T109 133Q144 133 172 105T200 17Q200 -85 107 -162Q95 -171 85 -160L70 -145Q59 -133 71 -123Q141 -72 142 -3Q125 -10 102 -10Q72 -10 51 10Z" />
<glyph unicode="&#x201c;" glyph-name="quotedblleft" horiz-adv-x="403" d="M309 409Q274 409 246 437T218 525Q218 627 311 704Q323 713 333 702L348 687Q359 675 347 665Q277 614 276 545Q293 552 316 552Q346 552 367 532T388 481T366 430T309 409ZM110 409Q75
409 47 437T19 525Q19 627 112 704Q124 713 134 702L149 687Q160 675 148 665Q78 614 77 545Q94 552 117 552Q147 552 168 532T189 481T167 430T110 409Z" />
<glyph unicode="&#x201d;" glyph-name="quotedblright" horiz-adv-x="399" d="M267 417L252 432Q241 444 253 454Q323 505 324 574Q307 567 284 567Q254 567 233 587T212 638T234 689T291 710Q326 710 354 682T382 594Q382 492 289 415Q277 406 267 417ZM68 417L53
432Q42 444 54 454Q124 505 125 574Q108 567 85 567Q55 567 34 587T13 638T35 689T92 710Q127 710 155 682T183 594Q183 492 90 415Q78 406 68 417Z" />
<glyph unicode="&#x201e;" glyph-name="quotedblbase" horiz-adv-x="428" d="M229 31T229 61T251 112T308 133Q343 133 371 105T399 17Q399 -85 306 -162Q294 -171 284 -160L269 -145Q258 -133 270 -123Q340 -72 341 -3Q324 -10 301 -10Q271 -10 250 10ZM30 31T30
61T52 112T109 133Q144 133 172 105T200 17Q200 -85 107 -162Q95 -171 85 -160L70 -145Q59 -133 71 -123Q141 -72 142 -3Q125 -10 102 -10Q72 -10 51 10Z" />
<glyph unicode="&#x2020;" glyph-name="dagger" horiz-adv-x="618" d="M69 262Q62 262 56 268T50 281V381Q50 388 56 394T69 400H226V681Q226 688 232 694T245 700H365Q372 700 378 694T384 681V400H550Q557 400 562 395T568 381V281Q568 273 563 268T550 262H374L335
-284Q333 -300 316 -300H294Q277 -300 275 -284L236 262H69Z" />
<glyph unicode="&#x2021;" glyph-name="daggerdbl" horiz-adv-x="618" d="M80 20V120Q80 128 86 133T99 139H244L226 398V399H69Q62 399 56 404T50 418V518Q50 526 56 531T69 537H226V681Q226 688 232 694T245 700H365Q372 700 378 694T384 681V537H550Q557 537
562 532T568 518V418Q568 410 563 405T550 399H384L365 139H520Q527 139 532 134T538 120V20Q538 12 533 7T520 1H355L335 -284Q333 -300 316 -300H294Q277 -300 275 -284L254 1H99Q92 1 86 6T80 20Z" />
<glyph unicode="&#x2022;" glyph-name="bullet" horiz-adv-x="406" d="M201 83Q144 83 102 125T60 224Q60 283 102 326T201 369Q260 369 303 326T346 224Q346 167 303 125T201 83Z" />
<glyph unicode="&#x2026;" glyph-name="ellipsis" horiz-adv-x="690" d="M491 37T491 70T514 126T570 149T626 126T650 70T627 14T570 -10T514 13ZM269 37T269 70T292 126T348 149T404 126T428 70T405 14T348 -10T292 13ZM40 37T40 70T63 126T119 149T175 126T199
70T176 14T119 -10T63 13Z" />
<glyph unicode="&#x2030;" glyph-name="perthousand" horiz-adv-x="986" d="M231 441T175 441T80 480T40 576T79 671T175 711T270 672T310 576T271 481ZM114 27L457 690Q463 700 474 700H550Q561 700 566 692T567 673L222 10Q214 0 205 0H131Q120 0 115 8T114
27ZM161 541T175 541T199 551T209 576T199 600T175 610Q161 610 151 600T140 576T150 552ZM675 125Q675 181 714 220T810 260T906 221T946 125T906 30T810 -10T715 30T675 125ZM375 125Q375 181 414 220T510 260T606 221T646 125T606 30T510 -10T415 30T375 125ZM776
125Q776 112 786 102T810 91T834 101T845 125T835 149T810 160T786 150T776 125ZM476 125Q476 112 486 102T510 91T534 101T545 125T535 149T510 160T486 150T476 125Z" />
<glyph unicode="&#x2039;" glyph-name="guilsinglleft" horiz-adv-x="283" d="M125 39L21 194Q13 205 21 218L130 366Q137 378 148 378H227Q240 378 244 369T242 347L177 208L239 61Q245 49 241 40T224 31H140Q131 31 125 39Z" />
<glyph unicode="&#x203a;" glyph-name="guilsinglright" horiz-adv-x="283" d="M58 31Q46 31 42 40T43 61L105 208L40 347Q34 359 38 368T55 378H134Q145 378 152 366L261 218Q269 205 261 194L157 39Q151 31 142 31H58Z" />
<glyph unicode="&#x2044;" glyph-name="fraction" horiz-adv-x="104" d="M-74 10Q-79 0 -91 0H-146Q-157 0 -162 8T-163 27L181 690Q186 700 198 700H254Q265 700 270 692T271 673L-74 10Z" />
<glyph unicode="&#x2070;" glyph-name="zerosuperior" horiz-adv-x="362" d="M244 494T181 494T84 536T50 652Q50 727 84 768T181 810T278 769T312 652Q312 578 278 536ZM150 574T181 574T212 652T181 730T150 652Z" />
<glyph unicode="&#x2074;" glyph-name="foursuperior" horiz-adv-x="374" d="M199 504Q189 504 189 513V560H59Q50 560 50 568V630L209 797Q210 800 216 800H267Q276 800 276 791V628H315Q324 628 324 620V569Q324 560 315 560H276V513Q276 504 267 504H199ZM132
626H190V691L132 626Z" />
<glyph unicode="&#x2075;" glyph-name="fivesuperior" horiz-adv-x="328" d="M150 494Q87 494 54 532Q47 539 53 547L83 586Q91 599 100 590Q119 572 151 572Q164 572 175 579T186 600T176 621T148 629H76Q69 629 65 633T60 644V791Q60 800 70 800H231Q241 800
241 791V738Q241 729 231 729H135V700H164Q218 700 248 675T278 601T243 524T150 494Z" />
<glyph unicode="&#x2076;" glyph-name="sixsuperior" horiz-adv-x="339" d="M173 494Q117 494 84 527T50 613Q50 660 70 699T122 761T176 796T219 814Q234 818 239 805L254 765Q258 752 245 748Q219 740 189 723T148 683Q165 695 198 695Q234 695 261 670T289
598Q289 555 255 525T173 494ZM161 574T173 574T193 582T202 603T194 624T173 633T152 625T143 603Q143 591 152 583Z" />
<glyph unicode="&#x2077;" glyph-name="sevensuperior" horiz-adv-x="324" d="M63 504Q50 504 50 513V518L158 726H66Q56 726 56 734V791Q56 800 66 800H264Q274 800 274 791V775L147 513Q142 504 131 504H63Z" />
<glyph unicode="&#x2078;" glyph-name="eightsuperior" horiz-adv-x="353" d="M175 494Q119 494 85 518T50 580Q50 602 65 621T93 647T111 656V657Q92 664 76 682T59 727Q59 764 93 787T175 810Q225 810 259 787T293 727Q293 700 277 682T241 657V656Q265 650
284 631T303 580Q303 543 268 519T175 494ZM166 688T176 688T193 695T201 713T194 731T176 739T158 731T150 713T158 696ZM165 562T177 562T198 570T208 592Q208 605 200 614T177 623Q165 623 155 614T145 592Q145 579 155 571Z" />
<glyph unicode="&#x2079;" glyph-name="ninesuperior" horiz-adv-x="339" d="M120 490Q105 486 100 499L85 539Q81 552 94 556Q120 564 150 581T191 621Q174 609 137 609Q104 609 77 635T50 706Q50 749 84 779T166 810Q222 810 255 777T289 691Q289 644 269 605T217
543T163 508T120 490ZM154 671T166 671T187 679T196 701Q196 713 187 721T166 730T146 722T137 701T145 680Z" />
<glyph unicode="&#x2080;" glyph-name="zeroinferior" horiz-adv-x="362" d="M50 -2Q50 73 84 114T181 156T278 115T312 -2Q312 -76 278 -118T181 -160T84 -118T50 -2ZM150 76T150 -2T181 -80T212 -2T181 76Z" />
<glyph unicode="&#x2081;" glyph-name="oneinferior" horiz-adv-x="256" d="M58 43Q50 43 50 54V92Q50 98 58 103L134 146H197Q206 146 206 137V-141Q206 -150 197 -150H122Q112 -150 112 -141V43H58Z" />
<glyph unicode="&#x2082;" glyph-name="twoinferior" horiz-adv-x="317" d="M88 65L66 101Q58 115 62 121Q64 124 70 128Q106 156 163 156Q208 156 237 131T267 62Q267 21 237 -22L197 -75H255Q265 -75 265 -84V-141Q265 -150 255 -150H60Q50 -150 50 -141V-123L152
0Q172 26 172 47Q172 76 141 76Q121 76 106 61Q94 53 88 65Z" />
<glyph unicode="&#x2083;" glyph-name="threeinferior" horiz-adv-x="316" d="M87 17Q87 34 105 34H133Q145 34 153 40T161 58Q161 80 132 80Q117 80 102 69Q92 63 85 73L59 108Q50 119 60 129Q91 156 147 156Q197 156 227 134T257 73Q257 28 206 3Q266 -20 266
-74Q266 -115 232 -137T147 -160Q96 -160 57 -131Q45 -122 54 -109L77 -75Q85 -64 97 -71Q111 -82 133 -82Q166 -82 166 -58Q166 -33 133 -33H100Q87 -31 87 -17V17Z" />
<glyph unicode="&#x2084;" glyph-name="fourinferior" horiz-adv-x="374" d="M50 -24L209 143Q210 146 216 146H267Q276 146 276 137V-26H315Q324 -26 324 -34V-85Q324 -94 315 -94H276V-141Q276 -150 267 -150H199Q189 -150 189 -141V-94H59Q50 -94 50 -86V-24ZM132
-28H190V37L132 -28Z" />
<glyph unicode="&#x2085;" glyph-name="fiveinferior" horiz-adv-x="328" d="M60 -10V137Q60 146 70 146H231Q241 146 241 137V84Q241 75 231 75H135V46H164Q218 46 248 21T278 -53T243 -130T150 -160Q87 -160 54 -122Q47 -115 53 -107L83 -68Q91 -55 100 -64Q119
-82 151 -82Q164 -82 175 -75T186 -54T176 -33T148 -25H76Q69 -25 65 -21T60 -10Z" />
<glyph unicode="&#x2086;" glyph-name="sixinferior" horiz-adv-x="339" d="M50 -41Q50 6 70 45T122 107T176 142T219 160Q234 164 239 151L254 111Q258 98 245 94Q219 86 189 69T148 29Q165 41 198 41Q234 41 261 16T289 -56Q289 -99 255 -129T173 -160Q117 -160
84 -127T50 -41ZM143 -51Q143 -63 152 -71T173 -80T193 -72T202 -51T194 -30T173 -21T152 -29T143 -51Z" />
<glyph unicode="&#x2087;" glyph-name="seveninferior" horiz-adv-x="324" d="M56 80V137Q56 146 66 146H264Q274 146 274 137V121L147 -141Q142 -150 131 -150H63Q50 -150 50 -141V-136L158 72H66Q56 72 56 80Z" />
<glyph unicode="&#x2088;" glyph-name="eightinferior" horiz-adv-x="353" d="M50 -74Q50 -52 65 -33T93 -7T111 2V3Q92 10 76 28T59 73Q59 110 93 133T175 156Q225 156 259 133T293 73Q293 46 277 28T241 3V2Q265 -4 284 -23T303 -74Q303 -111 268 -135T175 -160Q119
-160 85 -136T50 -74ZM150 69T150 59T158 42T176 34T193 41T201 59T194 77T176 85T158 77ZM145 -62Q145 -75 155 -83T177 -92T198 -84T208 -62Q208 -49 200 -40T177 -31Q165 -31 155 -40T145 -62Z" />
<glyph unicode="&#x2089;" glyph-name="nineinferior" horiz-adv-x="339" d="M50 52Q50 95 84 125T166 156Q222 156 255 123T289 37Q289 -10 269 -49T217 -111T163 -146T120 -164Q105 -168 100 -155L85 -115Q81 -102 94 -98Q120 -90 150 -73T191 -33Q174 -45 137
-45Q104 -45 77 -19T50 52ZM137 60T137 47T145 26T166 17T187 25T196 47Q196 59 187 67T166 76T146 68Z" />
<glyph unicode="&#x20ac;" glyph-name="Euro" horiz-adv-x="712" d="M38 248Q31 248 26 253T20 267V284Q20 292 25 297T38 303H76Q74 318 74 349V368H38Q31 368 26 373T20 387V404Q20 412 25 417T38 423H81Q107 547 206 628T435 710Q575 710 677 617Q692 603 678
589L600 508Q588 496 575 508Q518 559 440 559Q375 559 326 521T255 423H465Q473 423 478 418T484 404V385Q484 377 479 372T465 367H244V353Q244 327 250 303H425Q433 303 438 298T444 284V266Q444 258 439 253T425 248H271Q297 203 342 177T441 150Q519 150 575
198Q589 210 601 197L679 114Q692 101 678 87Q578 -10 435 -10Q312 -10 217 62T88 248H38Z" />
<glyph unicode="&#x2113;" glyph-name="afii61289" horiz-adv-x="505" d="M89 156Q89 181 92 205Q53 195 51 195Q38 192 36 207L31 252Q31 256 31 260T34 267T47 273Q87 281 108 288Q120 354 123 369Q154 538 204 624T332 710Q388 710 419 673T451 571Q451 450
372 364T172 232Q164 192 164 158Q164 119 181 93T233 66Q305 66 376 109Q389 116 394 116T405 104L421 80Q428 68 428 64T419 50Q326 -10 233 -10Q162 -10 126 38T89 156ZM189 310Q275 349 325 415T376 571Q376 601 364 617T332 634Q245 634 197 356L189 310Z"
/>
<glyph unicode="&#x2122;" glyph-name="trademark" horiz-adv-x="721" d="M331 378Q321 378 316 385T312 401L364 690Q366 705 383 705H387Q398 705 404 694L495 522L587 694Q592 705 604 705H608Q625 705 627 690L680 400Q681 391 676 385T661 378H609Q602 378
597 383T590 395L573 500L514 384Q509 375 498 375H492Q480 375 475 385L418 500L400 394Q399 388 393 383T381 378H331ZM138 378Q130 378 125 383T119 397V613H59Q51 613 46 618T40 632V681Q40 688 46 694T59 700H270Q278 700 283 695T289 681V632Q289 613 270
613H210V397Q210 390 204 384T191 378H138Z" />
<glyph unicode="&#x2126;" glyph-name="Omega" horiz-adv-x="781" d="M26 19V128Q26 136 31 141T45 147H122Q83 175 57 237T30 358Q30 507 134 608T390 710T645 609T750 358Q750 300 724 238T658 147H735Q743 147 748 142T754 128V19Q754 11 749 6T735 0H456Q448
0 443 5T437 19V84Q437 99 441 108T448 120T465 130Q525 166 557 226T590 349Q590 432 531 491T390 550T249 491T190 349Q190 286 222 226T315 130Q328 123 331 120T339 108T343 84V19Q343 11 338 6T324 0H45Q37 0 32 5T26 19Z" />
<glyph unicode="&#x212e;" glyph-name="estimated" horiz-adv-x="823" d="M153 172Q189 121 251 92T383 63Q487 63 579 142Q597 158 610 145L634 119Q646 106 627 87Q524 -10 383 -10Q231 -10 126 94T20 349Q20 501 125 605T383 710Q534 710 639 604T746 345Q746
326 741 320T720 313H153V172ZM153 384H614V526Q574 577 513 606T383 636Q234 636 153 528V384Z" />
<glyph unicode="&#x2153;" glyph-name="onethird" horiz-adv-x="667" d="M103 27L447 690Q452 700 464 700H520Q531 700 536 692T537 673L192 10Q187 0 175 0H120Q109 0 104 8T103 27ZM122 404Q112 404 112 413V597H58Q50 597 50 608V646Q50 652 58 657L134 700H197Q206
700 206 691V413Q206 404 197 404H122ZM412 41L435 75Q443 86 455 79Q469 68 491 68Q524 68 524 92Q524 117 491 117H458Q445 119 445 133V167Q445 184 463 184H491Q503 184 511 190T519 208Q519 230 490 230Q475 230 460 219Q450 213 443 223L417 258Q408 269
418 279Q449 306 505 306Q555 306 585 284T615 223Q615 178 564 153Q624 130 624 76Q624 35 590 13T505 -10Q454 -10 415 19Q403 28 412 41Z" />
<glyph unicode="&#x2154;" glyph-name="twothirds" horiz-adv-x="667" d="M11 404Q1 404 1 413V431L103 554Q123 580 123 601Q123 630 92 630Q72 630 57 615Q45 607 39 619L17 655Q9 669 13 675Q15 678 21 682Q57 710 114 710Q159 710 188 685T218 616Q218 575
188 532L148 479H206Q216 479 216 470V413Q216 404 206 404H11ZM103 27L447 690Q452 700 464 700H520Q531 700 536 692T537 673L192 10Q187 0 175 0H120Q109 0 104 8T103 27ZM412 41L435 75Q443 86 455 79Q469 68 491 68Q524 68 524 92Q524 117 491 117H458Q445
119 445 133V167Q445 184 463 184H491Q503 184 511 190T519 208Q519 230 490 230Q475 230 460 219Q450 213 443 223L417 258Q408 269 418 279Q449 306 505 306Q555 306 585 284T615 223Q615 178 564 153Q624 130 624 76Q624 35 590 13T505 -10Q454 -10 415 19Q403
28 412 41Z" />
<glyph unicode="&#x215b;" glyph-name="oneeighth" horiz-adv-x="667" d="M103 27L447 690Q452 700 464 700H520Q531 700 536 692T537 673L192 10Q187 0 175 0H120Q109 0 104 8T103 27ZM122 404Q112 404 112 413V597H58Q50 597 50 608V646Q50 652 58 657L134 700H197Q206
700 206 691V413Q206 404 197 404H122ZM388 77Q388 99 403 118T431 144T449 153V154Q430 161 414 179T397 224Q397 261 431 284T513 307Q563 307 597 284T631 224Q631 197 615 179T579 154V153Q603 147 622 128T641 77Q641 40 606 16T513 -9Q457 -9 423 15T388
77ZM490 220T490 210T497 194T514 187T530 193T537 210T530 227T514 234T498 227ZM486 89Q486 77 495 70T515 62T534 69T543 89Q543 101 535 109T515 117Q504 117 495 109T486 89Z" />
<glyph unicode="&#x215c;" glyph-name="threeeighths" horiz-adv-x="691" d="M147 394Q96 394 57 423Q45 432 54 445L77 479Q85 490 97 483Q111 472 133 472Q166 472 166 496Q166 521 133 521H100Q87 523 87 537V571Q87 588 105 588H133Q145 588 153 594T161 612Q161
634 132 634Q117 634 102 623Q92 617 85 627L59 662Q50 673 60 683Q91 710 147 710Q197 710 227 688T257 627Q257 582 206 557Q266 534 266 480Q266 439 232 417T147 394ZM124 27L468 690Q473 700 485 700H541Q552 700 557 692T558 673L213 10Q208 0 196 0H141Q130
0 125 8T124 27ZM408 77Q408 99 423 118T451 144T469 153V154Q450 161 434 179T417 224Q417 261 451 284T533 307Q583 307 617 284T651 224Q651 197 635 179T599 154V153Q623 147 642 128T661 77Q661 40 626 16T533 -9Q477 -9 443 15T408 77ZM510 220T510 210T517
194T534 187T550 193T557 210T550 227T534 234T518 227ZM506 89Q506 77 515 70T535 62T554 69T563 89Q563 101 555 109T535 117Q524 117 515 109T506 89Z" />
<glyph unicode="&#x215d;" glyph-name="fiveeighths" horiz-adv-x="691" d="M124 27L468 690Q473 700 485 700H541Q552 700 557 692T558 673L213 10Q208 0 196 0H141Q130 0 125 8T124 27ZM139 394Q76 394 43 432Q36 439 42 447L72 486Q80 499 89 490Q108 472 140
472Q153 472 164 479T175 500T165 521T137 529H65Q58 529 54 533T49 544V691Q49 700 59 700H220Q230 700 230 691V638Q230 629 220 629H124V600H153Q207 600 237 575T267 501T232 424T139 394ZM408 77Q408 99 423 118T451 144T469 153V154Q450 161 434 179T417
224Q417 261 451 284T533 307Q583 307 617 284T651 224Q651 197 635 179T599 154V153Q623 147 642 128T661 77Q661 40 626 16T533 -9Q477 -9 443 15T408 77ZM510 220T510 210T517 194T534 187T550 193T557 210T550 227T534 234T518 227ZM506 89Q506 77 515 70T535
62T554 69T563 89Q563 101 555 109T535 117Q524 117 515 109T506 89Z" />
<glyph unicode="&#x215e;" glyph-name="seveneighths" horiz-adv-x="691" d="M124 27L468 690Q473 700 485 700H541Q552 700 557 692T558 673L213 10Q208 0 196 0H141Q130 0 125 8T124 27ZM88 404Q75 404 75 413V418L183 626H91Q81 626 81 634V691Q81 700 91 700H289Q299
700 299 691V675L172 413Q167 404 156 404H88ZM408 77Q408 99 423 118T451 144T469 153V154Q450 161 434 179T417 224Q417 261 451 284T533 307Q583 307 617 284T651 224Q651 197 635 179T599 154V153Q623 147 642 128T661 77Q661 40 626 16T533 -9Q477 -9 443
15T408 77ZM510 220T510 210T517 194T534 187T550 193T557 210T550 227T534 234T518 227ZM506 89Q506 77 515 70T535 62T554 69T563 89Q563 101 555 109T535 117Q524 117 515 109T506 89Z" />
<glyph unicode="&#x2202;" glyph-name="partialdiff" horiz-adv-x="570" d="M50 219Q50 323 110 379T249 436Q297 436 344 416Q322 523 143 580Q117 588 124 609L153 686Q161 710 184 702Q216 692 252 675T339 620T427 537T492 418T520 262Q520 142 456 66T279
-10Q185 -10 118 57T50 219ZM185 224Q185 185 213 157T281 128T349 156T377 224Q377 264 349 292T281 321T213 293T185 224Z" />
<glyph unicode="&#x2206;" glyph-name="increment" horiz-adv-x="710" d="M29 45L334 699Q340 710 351 710H361Q372 710 378 699L682 43Q690 26 685 13T662 0H58Q37 0 29 10T29 45ZM237 144L475 145L354 405H353L237 144Z" />
<glyph unicode="&#x220f;" glyph-name="product" horiz-adv-x="698" d="M49 19V681Q49 688 54 694T68 700H630Q638 700 643 694T649 681V19Q649 12 644 6T630 0H511Q503 0 498 5T492 19V553H206V19Q206 11 201 6T187 0H68Q60 0 55 6T49 19Z" />
<glyph unicode="&#x2211;" glyph-name="summation" horiz-adv-x="552" d="M50 19V68L315 353L50 640V681Q50 689 55 694T69 700H483Q491 700 496 695T502 681V572Q502 564 497 559T483 553H299L434 429Q453 410 453 388V319Q453 301 434 282L299 147H483Q491 147
496 142T502 128V19Q502 11 497 6T483 0H69Q61 0 56 5T50 19Z" />
<glyph unicode="&#x2212;" glyph-name="minus" horiz-adv-x="539" d="M69 293Q62 293 56 298T50 312V382Q50 390 56 395T69 401H470Q477 401 482 396T488 382V312Q488 304 483 299T470 293H69Z" />
<glyph unicode="&#x2215;" glyph-name="uni2215" horiz-adv-x="104" d="M-74 10Q-79 0 -91 0H-146Q-157 0 -162 8T-163 27L181 690Q186 700 198 700H254Q265 700 270 692T271 673L-74 10Z" />
<glyph unicode="&#x2219;" glyph-name="uni2219" horiz-adv-x="406" d="M201 149Q158 149 127 180T96 254Q96 299 127 331T201 363Q246 363 278 331T310 254Q310 211 278 180T201 149Z" />
<glyph unicode="&#x221a;" glyph-name="radical" horiz-adv-x="696" d="M242 1L68 374Q63 384 68 392T85 400H198Q211 400 215 389L262 283H268L453 689Q457 700 470 700H675Q694 700 694 681V592Q694 584 689 579T675 573H553L286 1Q280 -10 269 -10H259Q248 -10 242 1Z" />
<glyph unicode="&#x221e;" glyph-name="infinity" horiz-adv-x="586" d="M190 156Q132 156 91 197T50 296T91 395T190 436Q246 436 292 386Q340 436 395 436Q454 436 495 395T536 296T495 197T395 156Q338 156 292 206Q247 156 190 156ZM352 312T352 296T363 269T390
258T417 269T429 296T418 323T390 335T363 324ZM179 258T195 258T222 269T234 296T223 323T195 335Q179 335 168 324T157 296T168 269Z" />
<glyph unicode="&#x222b;" glyph-name="integral'" horiz-adv-x="393" d="M111 -92V493Q111 594 169 652T325 710Q389 710 436 672Q448 660 440 647L392 568Q383 554 369 561Q344 572 327 572Q299 572 282 552T264 492V-93Q264 -193 204 -251T50 -310Q-14 -310
-61 -272Q-73 -260 -65 -247L-17 -168Q-8 -154 6 -161Q31 -172 48 -172Q76 -172 93 -152T111 -92Z" />
<glyph unicode="&#x2248;" glyph-name="approxequal" horiz-adv-x="477" d="M93 309L46 350Q38 362 45 369Q47 372 51 378T69 398T96 423T132 443T173 452Q181 452 189 450T202 447T216 441T227 435T239 426T250 418Q253 416 263 410T278 400T292 394T309 391Q333
391 363 435Q374 447 387 436L431 396Q440 385 432 376Q430 373 426 368T409 348T382 323T348 303T307 294Q293 294 280 298T260 306T240 320T222 333Q188 354 173 354Q146 354 116 311Q112 304 105 304T93 309ZM93 113L46 154Q38 166 45 173Q47 176 51 182T69
202T96 227T132 247T173 256Q181 256 189 254T202 251T216 245T227 239T239 230T250 222Q253 220 263 214T278 204T292 198T309 195Q333 195 363 239Q374 251 387 240L431 200Q440 189 432 180Q430 177 426 172T409 152T382 127T348 107T307 98Q293 98 280 102T260
110T240 124T222 137Q188 158 173 158Q146 158 116 115Q112 108 105 108T93 113Z" />
<glyph unicode="&#x2260;" glyph-name="notequal" horiz-adv-x="477" d="M124 48Q107 56 114 72L136 120H69Q61 120 56 125T50 139V210Q50 218 55 223T69 229H187L234 331H69Q61 331 56 336T50 350V420Q50 428 55 433T69 439H284L319 513Q326 530 344 522L359
514Q366 512 369 505T368 490L344 439H408Q416 439 421 434T427 420V350Q427 342 422 337T408 331H294L247 229H408Q416 229 421 224T427 210V139Q427 131 422 126T408 120H197L164 48Q157 32 139 40L124 48Z" />
<glyph unicode="&#x2264;" glyph-name="lessequal" horiz-adv-x="458" d="M26 383Q16 389 16 400V415Q16 426 26 432L403 614Q414 619 422 615T431 598V511Q431 501 423 497L215 409L423 325Q431 321 431 311V224Q431 212 422 207T403 208L26 383ZM39 39Q32 39
26 44T20 58V128Q20 136 26 141T39 147H413Q420 147 425 142T431 128V58Q431 50 426 45T413 39H39Z" />
<glyph unicode="&#x2265;" glyph-name="greaterequal" horiz-adv-x="458" d="M44 208Q34 202 25 207T16 224V311Q16 321 24 325L232 409L24 497Q16 501 16 511V598Q16 610 25 614T44 614L421 432Q431 426 431 415V400Q431 389 421 383L44 208ZM34 39Q27 39 22
44T16 58V128Q16 136 21 141T34 147H408Q416 147 421 142T427 128V58Q427 50 422 45T408 39H34Z" />
<glyph unicode="&#x25ca;" glyph-name="lozenge" horiz-adv-x="710" d="M86 314Q72 330 73 354T92 400L333 699Q338 710 350 710H360Q372 710 377 699L619 400Q656 355 618 309L377 11Q372 0 360 0H350Q338 0 333 11L86 314ZM354 198H355L479 355L355 512H354L230
355L354 198Z" />
<glyph unicode="&#xf8ff;" glyph-name="uniF8FF" horiz-adv-x="599" d="M50 30V670Q50 700 80 700H519Q549 700 549 670V30Q549 0 519 0H80Q50 0 50 30ZM262 314Q262 302 276 302H312Q327 302 327 315V341Q327 357 343 373T379 401T415 438T432 491Q432 539 397
570T307 602Q283 602 261 596T224 581T198 563T182 548L177 541Q169 529 177 523L199 501Q208 495 216 501Q217 502 223 508T233 517T244 525T260 534T278 539T300 542Q329 542 345 527T361 490Q361 469 346 451T312 421T278 389T262 343V314ZM245 176T245 156T259
122T293 108Q313 108 327 122T342 156T328 190T293 204Q274 204 260 190Z" />
<glyph unicode="&#xfb01;" glyph-name="fi" horiz-adv-x="571" d="M75 19V273H54Q46 273 41 278T35 292V381Q35 400 54 400H75V493Q75 587 135 648T289 710Q367 710 444 669Q461 660 452 642L409 560Q398 539 381 547Q327 572 291 572Q265 572 247 552T228 492V400H498Q517
400 517 381V19Q517 11 512 6T498 0H389Q381 0 376 5T370 19V273H228V19Q228 12 225 8T216 2T205 0T191 -1T180 0H94Q86 0 81 6T75 19Z" />
<glyph unicode="&#xfb02;" glyph-name="fl" horiz-adv-x="592" d="M76 19V273H53Q45 273 40 278T34 292V381Q34 400 53 400H76V493Q76 593 137 651T290 710Q330 710 367 695T422 666L440 651L453 681Q462 700 479 700H519Q526 700 532 694T538 681V19Q538 12 532
6T519 0H408Q400 0 395 6T389 19V531Q381 543 357 557T305 572Q272 572 250 552T228 492V400H295Q303 400 308 395T314 381V292Q314 284 308 279T295 273H228V19Q228 12 222 6T209 0H94Q87 0 82 5T76 19Z" />
</font>
</defs>
</svg>
